SplineFontDB: 3.0
FontName: DeliusUnicase-Regular
FullName: DeliusUnicase-Regular
FamilyName: Delius Unicase
Weight: Book
Copyright: Copyright (c) 2010, 2011, Natalia Raices<nraices@gmail.com>, with Reserved Font Name "Delius" "Delius Unicase" "Delius Swash Caps".
Version: 1.001
ItalicAngle: 0
UnderlinePosition: -150
UnderlineWidth: 50
Ascent: 800
Descent: 200
sfntRevision: 0x00010042
LayerCount: 2
Layer: 0 1 "Back"  1
Layer: 1 1 "Fore"  0
XUID: [1021 288 713564382 10603194]
FSType: 0
OS2Version: 2
OS2_WeightWidthSlopeOnly: 0
OS2_UseTypoMetrics: 1
CreationTime: 1313778468
ModificationTime: 1313774920
PfmFamily: 17
TTFWeight: 400
TTFWidth: 5
LineGap: 0
VLineGap: 0
Panose: 2 0 6 3 0 0 0 0 0 0
OS2TypoAscent: 216
OS2TypoAOffset: 1
OS2TypoDescent: -36
OS2TypoDOffset: 1
OS2TypoLinegap: 0
OS2WinAscent: 0
OS2WinAOffset: 1
OS2WinDescent: 0
OS2WinDOffset: 1
HheadAscent: 0
HheadAOffset: 1
HheadDescent: 0
HheadDOffset: 1
OS2SubXSize: 700
OS2SubYSize: 650
OS2SubXOff: 0
OS2SubYOff: 140
OS2SupXSize: 700
OS2SupYSize: 650
OS2SupXOff: 0
OS2SupYOff: 477
OS2StrikeYSize: 50
OS2StrikeYPos: 250
OS2FamilyClass: 2560
OS2Vendor: 'pyrs'
OS2CodePages: 00000001.00000000
OS2UnicodeRanges: 00000061.00000000.00000000.00000000
DEI: 91125
TtTable: prep
PUSHW_1
 511
SCANCTRL
PUSHB_1
 4
SCANTYPE
EndTTInstrs
ShortTable: maxp 16
  1
  0
  257
  93
  6
  83
  4
  2
  0
  1
  1
  0
  64
  0
  2
  1
EndShort
LangName: 1033 "" "" "" "NataliaRaices: Delius Unicase: 2010" "" "Version 1.001" "" "Delius Unicase is a trademark of Natalia Raices." "Natalia Raices" "Natalia Raices" "Copyright (c) 2010 by Natalia Raices. All rights reserved." "" "" "This Font Software is licensed under the SIL Open Font License, Version 1.1. This license is available with a FAQ at: http://scripts.sil.org/OFL" "http://scripts.sil.org/OFL" 
GaspTable: 1 65535 15
Encoding: UnicodeBmp
UnicodeInterp: none
NameList: Adobe Glyph List
DisplaySize: -36
AntiAlias: 1
FitToEm: 1
WinInfo: 34 34 12
BeginChars: 65540 257

StartChar: exclam
Encoding: 33 33 4
Width: 279
Flags: W
LayerCount: 2
Fore
SplineSet
183 467 m 1,0,-1
 184 266 l 2,1,2
 184 240 184 240 172 225 c 128,-1,3
 160 210 160 210 139 210 c 128,-1,4
 118 210 118 210 106 225 c 128,-1,5
 94 240 94 240 94 266 c 2,6,-1
 96 467 l 1,7,-1
 88 695 l 1,8,9
 88 725 88 725 101.5 742.5 c 128,-1,10
 115 760 115 760 139 760 c 128,-1,11
 163 760 163 760 176.5 742.5 c 128,-1,12
 190 725 190 725 190 695 c 2,13,-1
 183 467 l 1,0,-1
181 95 m 128,-1,15
 194 78 194 78 194 52.5 c 128,-1,16
 194 27 194 27 177 6 c 128,-1,17
 160 -15 160 -15 136 -15 c 128,-1,18
 112 -15 112 -15 98.5 3.5 c 128,-1,19
 85 22 85 22 85 47 c 128,-1,20
 85 72 85 72 101.5 92 c 128,-1,21
 118 112 118 112 143 112 c 128,-1,14
 168 112 168 112 181 95 c 128,-1,15
EndSplineSet
EndChar

StartChar: quotedbl
Encoding: 34 34 5
Width: 403
Flags: W
LayerCount: 2
Fore
SplineSet
338 704 m 1,0,-1
 326 596 l 1,1,2
 324 553 324 553 316.5 535 c 128,-1,3
 309 517 309 517 290 517 c 128,-1,4
 271 517 271 517 263.5 535 c 128,-1,5
 256 553 256 553 254 596 c 1,6,-1
 242 704 l 1,7,8
 242 730 242 730 255 745 c 128,-1,9
 268 760 268 760 290 760 c 128,-1,10
 312 760 312 760 325 745 c 128,-1,11
 338 730 338 730 338 704 c 1,0,-1
161 704 m 1,12,-1
 149 596 l 1,13,14
 147 553 147 553 139.5 535 c 128,-1,15
 132 517 132 517 113 517 c 128,-1,16
 94 517 94 517 86.5 535 c 128,-1,17
 79 553 79 553 77 596 c 1,18,-1
 65 704 l 1,19,20
 65 730 65 730 78 745 c 128,-1,21
 91 760 91 760 113 760 c 128,-1,22
 135 760 135 760 148 745 c 128,-1,23
 161 730 161 730 161 704 c 1,12,-1
EndSplineSet
EndChar

StartChar: numbersign
Encoding: 35 35 6
Width: 848
Flags: W
LayerCount: 2
Fore
SplineSet
686 196 m 1,0,-1
 559 199 l 1,1,2
 551 156 551 156 528 35 c 0,3,4
 520 -10 520 -10 483 -10 c 0,5,6
 465 -10 465 -10 454.5 1.5 c 128,-1,7
 444 13 444 13 444 27.5 c 128,-1,8
 444 42 444 42 479 200 c 1,9,-1
 312 200 l 1,10,11
 306 170 306 170 281 35 c 0,12,13
 273 -10 273 -10 236 -10 c 0,14,15
 218 -10 218 -10 207.5 1.5 c 128,-1,16
 197 13 197 13 197 25 c 128,-1,17
 197 37 197 37 203.5 68.5 c 128,-1,18
 210 100 210 100 218.5 140 c 128,-1,19
 227 180 227 180 230 200 c 1,20,-1
 117 196 l 1,21,22
 58 196 58 196 58 238 c 0,23,24
 58 278 58 278 117 278 c 1,25,-1
 244 274 l 1,26,27
 250 298 250 298 261.5 357 c 128,-1,28
 273 416 273 416 276 429 c 1,29,-1
 162 427 l 1,30,31
 103 427 103 427 103 466 c 0,32,33
 103 507 103 507 162 507 c 1,34,-1
 291 504 l 1,35,36
 300 547 300 547 322 668 c 0,37,38
 330 713 330 713 367 713 c 0,39,40
 385 713 385 713 395.5 701.5 c 128,-1,41
 406 690 406 690 406 675 c 128,-1,42
 406 660 406 660 371 503 c 1,43,-1
 538 503 l 1,44,45
 544 533 544 533 569 668 c 0,46,47
 577 713 577 713 614 713 c 0,48,49
 631 713 631 713 642 701.5 c 128,-1,50
 653 690 653 690 653 678 c 128,-1,51
 653 666 653 666 646.5 635 c 128,-1,52
 640 604 640 604 631 563 c 128,-1,53
 622 522 622 522 619 503 c 1,54,-1
 731 507 l 1,55,56
 790 507 790 507 790 466 c 0,57,58
 790 427 790 427 731 427 c 0,59,60
 709 427 709 427 604 430 c 1,61,62
 576 300 576 300 572 275 c 1,63,-1
 686 278 l 1,64,65
 745 278 745 278 745 238 c 0,66,67
 745 196 745 196 686 196 c 1,0,-1
356 431 m 1,68,69
 327 293 327 293 324 274 c 1,70,-1
 493 274 l 1,71,72
 499 298 499 298 510.5 357.5 c 128,-1,73
 522 417 522 417 525 431 c 1,74,-1
 356 431 l 1,68,69
EndSplineSet
EndChar

StartChar: dollar
Encoding: 36 36 7
Width: 614
Flags: W
LayerCount: 2
Fore
SplineSet
208.5 598 m 128,-1,1
 184 575 184 575 184 546 c 128,-1,2
 184 517 184 517 206.5 494 c 128,-1,3
 229 471 229 471 274 443 c 1,4,5
 270 623 270 623 270 630 c 1,6,0
 233 621 233 621 208.5 598 c 128,-1,1
457 188 m 0,7,8
 457 243 457 243 354 301 c 1,9,10
 354 299 354 299 358 83 c 1,11,12
 402 95 402 95 429.5 122 c 128,-1,13
 457 149 457 149 457 188 c 0,7,8
500 64 m 128,-1,15
 447 11 447 11 361 -4 c 1,16,17
 361 -85 361 -85 315 -85 c 128,-1,18
 269 -85 269 -85 269 -7 c 1,19,20
 190 0 190 0 126 39.5 c 128,-1,21
 62 79 62 79 62 115 c 0,22,23
 62 133 62 133 74 145 c 128,-1,24
 86 157 86 157 103.5 157 c 128,-1,25
 121 157 121 157 139 146 c 128,-1,26
 157 135 157 135 171 121.5 c 128,-1,27
 185 108 185 108 212 95 c 128,-1,28
 239 82 239 82 271 78 c 1,29,30
 274 267 274 267 274 345 c 1,31,32
 194 389 194 389 155.5 421 c 128,-1,33
 117 453 117 453 102.5 482 c 128,-1,34
 88 511 88 511 88 545 c 0,35,36
 88 607 88 607 138.5 655 c 128,-1,37
 189 703 189 703 268 715 c 1,38,39
 268 802 268 802 314 802 c 128,-1,40
 360 802 360 802 360 715 c 1,41,42
 424 707 424 707 468.5 680 c 128,-1,43
 513 653 513 653 513 622 c 0,44,45
 513 603 513 603 501 592 c 128,-1,46
 489 581 489 581 468 581 c 128,-1,47
 447 581 447 581 415 602 c 128,-1,48
 383 623 383 623 357 630 c 1,49,50
 354 456 354 456 354 400 c 1,51,52
 400 375 400 375 427.5 358 c 128,-1,53
 455 341 455 341 488 314 c 0,54,55
 553 261 553 261 553 189 c 128,-1,14
 553 117 553 117 500 64 c 128,-1,15
EndSplineSet
EndChar

StartChar: percent
Encoding: 37 37 8
Width: 864
Flags: W
LayerCount: 2
Fore
SplineSet
707.5 86 m 128,-1,1
 727 115 727 115 727 160 c 128,-1,2
 727 205 727 205 708 234.5 c 128,-1,3
 689 264 689 264 654.5 264 c 128,-1,4
 620 264 620 264 600.5 235 c 128,-1,5
 581 206 581 206 581 161.5 c 128,-1,6
 581 117 581 117 600.5 87 c 128,-1,7
 620 57 620 57 654 57 c 128,-1,0
 688 57 688 57 707.5 86 c 128,-1,1
765.5 287 m 128,-1,9
 807 238 807 238 807 162.5 c 128,-1,10
 807 87 807 87 764 36 c 128,-1,11
 721 -15 721 -15 652.5 -15 c 128,-1,12
 584 -15 584 -15 542.5 34 c 128,-1,13
 501 83 501 83 501 159 c 128,-1,14
 501 235 501 235 544 285.5 c 128,-1,15
 587 336 587 336 655.5 336 c 128,-1,8
 724 336 724 336 765.5 287 c 128,-1,9
262.5 462.5 m 128,-1,17
 281 491 281 491 281 536.5 c 128,-1,18
 281 582 281 582 263 611.5 c 128,-1,19
 245 641 245 641 211 641 c 128,-1,20
 177 641 177 641 157.5 612 c 128,-1,21
 138 583 138 583 138 538 c 128,-1,22
 138 493 138 493 157 463.5 c 128,-1,23
 176 434 176 434 210 434 c 128,-1,16
 244 434 244 434 262.5 462.5 c 128,-1,17
615 700 m 0,24,25
 615 650 615 650 557 589 c 1,26,27
 556 586 556 586 507 445.5 c 128,-1,28
 458 305 458 305 410 166 c 128,-1,29
 362 27 362 27 358 18 c 0,30,31
 345 -15 345 -15 312 -15 c 0,32,33
 296 -15 296 -15 284 -4 c 128,-1,34
 272 7 272 7 272 25 c 128,-1,35
 272 43 272 43 296 104 c 0,36,37
 401 361 401 361 464 555 c 1,38,39
 446 552 446 552 421 552 c 128,-1,40
 396 552 396 552 359 564 c 1,41,42
 361 548 361 548 361 537 c 0,43,44
 361 463 361 463 319 412.5 c 128,-1,45
 277 362 277 362 209 362 c 128,-1,46
 141 362 141 362 99.5 411 c 128,-1,47
 58 460 58 460 58 535.5 c 128,-1,48
 58 611 58 611 101 662 c 128,-1,49
 144 713 144 713 211 713 c 0,50,51
 242 713 242 713 270.5 699 c 128,-1,52
 299 685 299 685 318 668 c 0,53,54
 367 624 367 624 413 624 c 128,-1,55
 459 624 459 624 485 638 c 1,56,57
 511 735 511 735 533 752 c 0,58,59
 544 760 544 760 564 760 c 128,-1,60
 584 760 584 760 599.5 743 c 128,-1,61
 615 726 615 726 615 700 c 0,24,25
EndSplineSet
EndChar

StartChar: ampersand
Encoding: 38 38 9
Width: 825
Flags: W
LayerCount: 2
Fore
SplineSet
450 370 m 1,0,-1
 533 368 l 1,1,2
 701 368 701 368 701 459 c 0,3,4
 701 490 701 490 682.5 510 c 128,-1,5
 664 530 664 530 642 538 c 0,6,7
 583 558 583 558 583 593 c 0,8,9
 583 611 583 611 595 622.5 c 128,-1,10
 607 634 607 634 628 634 c 0,11,12
 685 634 685 634 739 580.5 c 128,-1,13
 793 527 793 527 793 461 c 0,14,15
 793 372 793 372 729.5 330.5 c 128,-1,16
 666 289 666 289 572 287 c 1,17,18
 590 245 590 245 590 203 c 0,19,20
 590 113 590 113 516.5 49 c 128,-1,21
 443 -15 443 -15 327.5 -15 c 128,-1,22
 212 -15 212 -15 134.5 57.5 c 128,-1,23
 57 130 57 130 57 239 c 0,24,25
 57 302 57 302 88 361.5 c 128,-1,26
 119 421 119 421 171 460 c 1,27,28
 107 520 107 520 107 590.5 c 128,-1,29
 107 661 107 661 157.5 713 c 128,-1,30
 208 765 208 765 300 765 c 0,31,32
 357 765 357 765 405.5 737 c 128,-1,33
 454 709 454 709 454 677 c 0,34,35
 454 657 454 657 442 646 c 128,-1,36
 430 635 430 635 414 635 c 128,-1,37
 398 635 398 635 367.5 656.5 c 128,-1,38
 337 678 337 678 296 678 c 128,-1,39
 255 678 255 678 227.5 654.5 c 128,-1,40
 200 631 200 631 200 593 c 0,41,42
 200 536 200 536 252 501 c 1,43,44
 296 505 296 505 299 505 c 0,45,46
 329 505 329 505 348 491 c 128,-1,47
 367 477 367 477 367 452.5 c 128,-1,48
 367 428 367 428 346 413.5 c 128,-1,49
 325 399 325 399 294.5 399 c 128,-1,50
 264 399 264 399 244 409 c 1,51,52
 202 384 202 384 177 341 c 128,-1,53
 152 298 152 298 152 247 c 0,54,55
 152 169 152 169 201 120.5 c 128,-1,56
 250 72 250 72 326 72 c 128,-1,57
 402 72 402 72 449.5 111.5 c 128,-1,58
 497 151 497 151 497 202 c 0,59,60
 497 280 497 280 465 280 c 0,61,62
 447 280 447 280 426.5 270 c 128,-1,63
 406 260 406 260 387.5 260 c 128,-1,64
 369 260 369 260 357 273.5 c 128,-1,65
 345 287 345 287 345 306 c 0,66,67
 345 336 345 336 374.5 353 c 128,-1,68
 404 370 404 370 450 370 c 1,0,-1
EndSplineSet
EndChar

StartChar: quotesingle
Encoding: 39 39 10
Width: 226
Flags: W
LayerCount: 2
Fore
SplineSet
161 704 m 1,0,-1
 149 596 l 1,1,2
 147 553 147 553 139.5 535 c 128,-1,3
 132 517 132 517 113 517 c 128,-1,4
 94 517 94 517 86.5 535 c 128,-1,5
 79 553 79 553 77 596 c 1,6,-1
 65 704 l 1,7,8
 65 730 65 730 78 745 c 128,-1,9
 91 760 91 760 113 760 c 128,-1,10
 135 760 135 760 148 745 c 128,-1,11
 161 730 161 730 161 704 c 1,0,-1
EndSplineSet
EndChar

StartChar: parenleft
Encoding: 40 40 11
Width: 337
Flags: W
LayerCount: 2
Fore
SplineSet
79.5 209 m 128,-1,1
 57 300 57 300 57 385 c 128,-1,2
 57 470 57 470 77.5 552.5 c 128,-1,3
 98 635 98 635 128.5 695.5 c 128,-1,4
 159 756 159 756 193.5 795.5 c 128,-1,5
 228 835 228 835 253.5 835 c 128,-1,6
 279 835 279 835 293 821 c 128,-1,7
 307 807 307 807 307 789.5 c 128,-1,8
 307 772 307 772 290.5 746.5 c 128,-1,9
 274 721 274 721 251 688 c 128,-1,10
 228 655 228 655 205 612 c 128,-1,11
 182 569 182 569 165.5 502.5 c 128,-1,12
 149 436 149 436 149 352.5 c 128,-1,13
 149 269 149 269 171 190 c 128,-1,14
 193 111 193 111 219.5 67 c 128,-1,15
 246 23 246 23 268 -11.5 c 128,-1,16
 290 -46 290 -46 290 -56.5 c 128,-1,17
 290 -67 290 -67 283 -75.5 c 128,-1,18
 276 -84 276 -84 261 -84 c 0,19,20
 236 -84 236 -84 201.5 -45.5 c 128,-1,21
 167 -7 167 -7 134.5 55.5 c 128,-1,0
 102 118 102 118 79.5 209 c 128,-1,1
EndSplineSet
EndChar

StartChar: parenright
Encoding: 41 41 12
Width: 337
Flags: W
LayerCount: 2
Fore
SplineSet
259.5 552.5 m 128,-1,1
 280 470 280 470 280 385 c 128,-1,2
 280 300 280 300 257.5 209 c 128,-1,3
 235 118 235 118 202.5 55.5 c 128,-1,4
 170 -7 170 -7 135.5 -45.5 c 128,-1,5
 101 -84 101 -84 76 -84 c 0,6,7
 61 -84 61 -84 54 -75.5 c 128,-1,8
 47 -67 47 -67 47 -56.5 c 128,-1,9
 47 -46 47 -46 69 -11.5 c 128,-1,10
 91 23 91 23 117.5 67 c 128,-1,11
 144 111 144 111 166 190 c 128,-1,12
 188 269 188 269 188 352.5 c 128,-1,13
 188 436 188 436 171.5 502.5 c 128,-1,14
 155 569 155 569 132 612 c 128,-1,15
 109 655 109 655 86 688 c 128,-1,16
 63 721 63 721 46.5 746.5 c 128,-1,17
 30 772 30 772 30 789.5 c 128,-1,18
 30 807 30 807 44 821 c 128,-1,19
 58 835 58 835 83.5 835 c 128,-1,20
 109 835 109 835 143.5 795.5 c 128,-1,21
 178 756 178 756 208.5 695.5 c 128,-1,0
 239 635 239 635 259.5 552.5 c 128,-1,1
EndSplineSet
EndChar

StartChar: asterisk
Encoding: 42 42 13
Width: 466
Flags: W
LayerCount: 2
Fore
SplineSet
199 642 m 1,0,-1
 189 716 l 1,1,2
 189 738 189 738 201 751.5 c 128,-1,3
 213 765 213 765 233 765 c 128,-1,4
 253 765 253 765 265 751.5 c 128,-1,5
 277 738 277 738 277 721 c 128,-1,6
 277 704 277 704 272 679.5 c 128,-1,7
 267 655 267 655 267 642 c 1,8,9
 274 647 274 647 294 662 c 1,10,11
 333 694 333 694 351 694 c 128,-1,12
 369 694 369 694 381 683 c 128,-1,13
 393 672 393 672 393 653.5 c 128,-1,14
 393 635 393 635 376.5 622.5 c 128,-1,15
 360 610 360 610 329 600 c 128,-1,16
 298 590 298 590 293 587 c 1,17,18
 298 584 298 584 329 574 c 128,-1,19
 360 564 360 564 376.5 551.5 c 128,-1,20
 393 539 393 539 393 520 c 128,-1,21
 393 501 393 501 381 490.5 c 128,-1,22
 369 480 369 480 354.5 480 c 128,-1,23
 340 480 340 480 326 488 c 128,-1,24
 312 496 312 496 292.5 511.5 c 128,-1,25
 273 527 273 527 266 532 c 1,26,-1
 277 460 l 1,27,28
 277 438 277 438 265 424 c 128,-1,29
 253 410 253 410 233 410 c 128,-1,30
 213 410 213 410 201 424 c 128,-1,31
 189 438 189 438 189 454.5 c 128,-1,32
 189 471 189 471 194.5 495.5 c 128,-1,33
 200 520 200 520 200 532 c 1,34,35
 193 527 193 527 174 512 c 0,36,37
 134 480 134 480 115.5 480 c 128,-1,38
 97 480 97 480 85 490.5 c 128,-1,39
 73 501 73 501 73 520 c 128,-1,40
 73 539 73 539 89.5 551.5 c 128,-1,41
 106 564 106 564 137 574 c 128,-1,42
 168 584 168 584 173 587 c 1,43,44
 168 590 168 590 137 600 c 128,-1,45
 106 610 106 610 89.5 622.5 c 128,-1,46
 73 635 73 635 73 653.5 c 128,-1,47
 73 672 73 672 85 683 c 128,-1,48
 97 694 97 694 111 694 c 128,-1,49
 125 694 125 694 139 686 c 128,-1,50
 153 678 153 678 172.5 662.5 c 128,-1,51
 192 647 192 647 199 642 c 1,0,-1
EndSplineSet
EndChar

StartChar: plus
Encoding: 43 43 14
Width: 591
Flags: W
LayerCount: 2
Fore
SplineSet
108 418 m 2,0,-1
 258 415 l 1,1,2
 258 485 258 485 256 522 c 128,-1,3
 254 559 254 559 254 561 c 0,4,5
 254 584 254 584 265.5 597 c 128,-1,6
 277 610 277 610 296 610 c 128,-1,7
 315 610 315 610 327 596.5 c 128,-1,8
 339 583 339 583 339 560 c 0,9,10
 339 558 339 558 338 540 c 0,11,12
 335 486 335 486 335 415 c 1,13,-1
 485 417 l 2,14,15
 507 417 507 417 521 405 c 128,-1,16
 535 393 535 393 535 375 c 128,-1,17
 535 357 535 357 521 345 c 128,-1,18
 507 333 507 333 485 333 c 2,19,-1
 335 336 l 1,20,-1
 339 177 l 2,21,22
 339 154 339 154 327.5 140 c 128,-1,23
 316 126 316 126 296.5 126 c 128,-1,24
 277 126 277 126 265.5 140.5 c 128,-1,25
 254 155 254 155 254 178 c 2,26,-1
 258 337 l 1,27,-1
 108 334 l 2,28,29
 86 334 86 334 72 346 c 128,-1,30
 58 358 58 358 58 376 c 128,-1,31
 58 394 58 394 72 406 c 128,-1,32
 86 418 86 418 108 418 c 2,0,-1
EndSplineSet
EndChar

StartChar: comma
Encoding: 44 44 15
Width: 241
Flags: W
LayerCount: 2
Fore
SplineSet
172 36 m 0,0,1
 172 -18 172 -18 136 -83 c 128,-1,2
 100 -148 100 -148 69 -148 c 128,-1,3
 38 -148 38 -148 38 -122 c 0,4,5
 38 -108 38 -108 53.5 -82.5 c 128,-1,6
 69 -57 69 -57 69 -37.5 c 128,-1,7
 69 -18 69 -18 65 0 c 128,-1,8
 61 18 61 18 61 40.5 c 128,-1,9
 61 63 61 63 77 83.5 c 128,-1,10
 93 104 93 104 118.5 104 c 128,-1,11
 144 104 144 104 158 85.5 c 128,-1,12
 172 67 172 67 172 36 c 0,0,1
EndSplineSet
EndChar

StartChar: hyphen
Encoding: 45 45 16
Width: 488
Flags: W
LayerCount: 2
Fore
SplineSet
244 336 m 1,0,-1
 125 333 l 2,1,2
 103 333 103 333 89.5 345 c 128,-1,3
 76 357 76 357 76 375 c 128,-1,4
 76 393 76 393 89.5 405 c 128,-1,5
 103 417 103 417 125 417 c 2,6,-1
 244 414 l 1,7,-1
 363 417 l 2,8,9
 385 417 385 417 398.5 405 c 128,-1,10
 412 393 412 393 412 375 c 128,-1,11
 412 357 412 357 398.5 345 c 128,-1,12
 385 333 385 333 363 333 c 2,13,-1
 244 336 l 1,0,-1
EndSplineSet
EndChar

StartChar: period
Encoding: 46 46 17
Width: 244
Flags: W
LayerCount: 2
Fore
SplineSet
163.5 102 m 128,-1,1
 177 85 177 85 177 58.5 c 128,-1,2
 177 32 177 32 160 11 c 128,-1,3
 143 -10 143 -10 118.5 -10 c 128,-1,4
 94 -10 94 -10 80 8 c 128,-1,5
 66 26 66 26 66 52 c 128,-1,6
 66 78 66 78 82.5 98.5 c 128,-1,7
 99 119 99 119 124.5 119 c 128,-1,0
 150 119 150 119 163.5 102 c 128,-1,1
EndSplineSet
EndChar

StartChar: slash
Encoding: 47 47 18
Width: 423
Flags: W
LayerCount: 2
Fore
SplineSet
279.5 822 m 128,-1,1
 293 835 293 835 313 835 c 128,-1,2
 333 835 333 835 344.5 820 c 128,-1,3
 356 805 356 805 356 789 c 128,-1,4
 356 773 356 773 342 717.5 c 128,-1,5
 328 662 328 662 302 558 c 0,6,7
 203 171 203 171 165 -20 c 0,8,9
 153 -84 153 -84 113 -84 c 0,10,11
 91 -84 91 -84 78.5 -70 c 128,-1,12
 66 -56 66 -56 66 -39.5 c 128,-1,13
 66 -23 66 -23 78 25 c 128,-1,14
 90 73 90 73 118 182 c 0,15,16
 184 439 184 439 262 787 c 0,17,0
 266 809 266 809 279.5 822 c 128,-1,1
EndSplineSet
EndChar

StartChar: zero
Encoding: 48 48 19
Width: 718
Flags: W
LayerCount: 2
Fore
SplineSet
550 375 m 128,-1,1
 550 500 550 500 499 589 c 128,-1,2
 448 678 448 678 362 678 c 128,-1,3
 276 678 276 678 222 588 c 128,-1,4
 168 498 168 498 168 375 c 128,-1,5
 168 252 168 252 222 162 c 128,-1,6
 276 72 276 72 362 72 c 128,-1,7
 448 72 448 72 499 161 c 128,-1,0
 550 250 550 250 550 375 c 128,-1,1
569.5 650 m 128,-1,9
 646 535 646 535 646 374.5 c 128,-1,10
 646 214 646 214 569.5 99.5 c 128,-1,11
 493 -15 493 -15 362 -15 c 128,-1,12
 231 -15 231 -15 151.5 100.5 c 128,-1,13
 72 216 72 216 72 375 c 0,14,15
 72 477 72 477 105.5 565 c 128,-1,16
 139 653 139 653 206.5 709 c 128,-1,17
 274 765 274 765 361 765 c 0,18,8
 493 765 493 765 569.5 650 c 128,-1,9
EndSplineSet
EndChar

StartChar: one
Encoding: 49 49 20
Width: 457
Flags: W
LayerCount: 2
Fore
SplineSet
326 698 m 2,0,-1
 322 380 l 1,1,2
 322 279 322 279 325.5 174 c 128,-1,3
 329 69 329 69 329 61 c 0,4,5
 329 -10 329 -10 278 -10 c 0,6,7
 256 -10 256 -10 244 4 c 128,-1,8
 232 18 232 18 229.5 33.5 c 128,-1,9
 227 49 227 49 227 65.5 c 128,-1,10
 227 82 227 82 230 186 c 128,-1,11
 233 290 233 290 233 379 c 2,12,-1
 232 625 l 1,13,14
 188 560 188 560 162 520.5 c 128,-1,15
 136 481 136 481 131.5 474 c 128,-1,16
 127 467 127 467 120.5 458 c 128,-1,17
 114 449 114 449 109.5 444 c 128,-1,18
 105 439 105 439 99 434 c 0,19,20
 88 426 88 426 72.5 426 c 128,-1,21
 57 426 57 426 45 439 c 128,-1,22
 33 452 33 452 33 469.5 c 128,-1,23
 33 487 33 487 47.5 510 c 128,-1,24
 62 533 62 533 87 564.5 c 128,-1,25
 112 596 112 596 114.5 599.5 c 128,-1,26
 117 603 117 603 121 608 c 128,-1,27
 125 613 125 613 136 627 c 128,-1,28
 147 641 147 641 167.5 669.5 c 128,-1,29
 188 698 188 698 197.5 711 c 128,-1,30
 207 724 207 724 220 738 c 0,31,32
 242 760 242 760 268.5 760 c 128,-1,33
 295 760 295 760 310.5 742 c 128,-1,34
 326 724 326 724 326 698 c 2,0,-1
EndSplineSet
EndChar

StartChar: two
Encoding: 50 50 21
Width: 608
Flags: W
LayerCount: 2
Fore
SplineSet
306 0 m 1,0,-1
 121 -5 l 2,1,2
 92 -5 92 -5 74 8.5 c 128,-1,3
 56 22 56 22 56 51.5 c 128,-1,4
 56 81 56 81 92 131.5 c 128,-1,5
 128 182 128 182 179.5 238 c 128,-1,6
 231 294 231 294 282.5 351 c 128,-1,7
 334 408 334 408 370 465 c 128,-1,8
 406 522 406 522 406 569.5 c 128,-1,9
 406 617 406 617 371.5 647.5 c 128,-1,10
 337 678 337 678 287 678 c 0,11,12
 259 678 259 678 236 665.5 c 128,-1,13
 213 653 213 653 203 640.5 c 128,-1,14
 193 628 193 628 181 610.5 c 128,-1,15
 169 593 169 593 163 586 c 0,16,17
 147 565 147 565 126 565 c 128,-1,18
 105 565 105 565 91.5 578 c 128,-1,19
 78 591 78 591 78 608 c 0,20,21
 78 650 78 650 139 707.5 c 128,-1,22
 200 765 200 765 295 765 c 128,-1,23
 390 765 390 765 446 708 c 128,-1,24
 502 651 502 651 502 568 c 0,25,26
 502 516 502 516 461 446 c 128,-1,27
 420 376 420 376 369.5 318.5 c 128,-1,28
 319 261 319 261 258 192 c 128,-1,29
 197 123 197 123 173 87 c 1,30,31
 228 82 228 82 289 82 c 128,-1,32
 350 82 350 82 414 85.5 c 128,-1,33
 478 89 478 89 496 89 c 128,-1,34
 514 89 514 89 530.5 76.5 c 128,-1,35
 547 64 547 64 547 42 c 128,-1,36
 547 20 547 20 530.5 7.5 c 128,-1,37
 514 -5 514 -5 487 -5 c 2,38,-1
 306 0 l 1,0,-1
EndSplineSet
EndChar

StartChar: three
Encoding: 51 51 22
Width: 618
Flags: W
LayerCount: 2
Fore
SplineSet
300 750 m 1,0,-1
 466 755 l 2,1,2
 493 755 493 755 510 741 c 128,-1,3
 527 727 527 727 527 705 c 0,4,5
 527 663 527 663 458.5 593.5 c 128,-1,6
 390 524 390 524 349 474 c 1,7,8
 444 449 444 449 500 384 c 128,-1,9
 556 319 556 319 556 237 c 0,10,11
 556 137 556 137 486.5 61 c 128,-1,12
 417 -15 417 -15 297 -15 c 0,13,14
 206 -15 206 -15 136.5 35.5 c 128,-1,15
 67 86 67 86 67 129 c 0,16,17
 67 143 67 143 77 154.5 c 128,-1,18
 87 166 87 166 102 166 c 128,-1,19
 117 166 117 166 135.5 151.5 c 128,-1,20
 154 137 154 137 172 119 c 128,-1,21
 190 101 190 101 226 86.5 c 128,-1,22
 262 72 262 72 305 72 c 0,23,24
 373 72 373 72 416.5 118.5 c 128,-1,25
 460 165 460 165 460 234.5 c 128,-1,26
 460 304 460 304 411 348 c 128,-1,27
 362 392 362 392 296 398 c 1,28,29
 263 365 263 365 241 353 c 128,-1,30
 219 341 219 341 193.5 341 c 128,-1,31
 168 341 168 341 154 355.5 c 128,-1,32
 140 370 140 370 140 395.5 c 128,-1,33
 140 421 140 421 167 445.5 c 128,-1,34
 194 470 194 470 248 482 c 1,35,36
 316 557 316 557 405 665 c 1,37,38
 376 668 376 668 319.5 668 c 128,-1,39
 263 668 263 668 209 664.5 c 128,-1,40
 155 661 155 661 138.5 661 c 128,-1,41
 122 661 122 661 105.5 673.5 c 128,-1,42
 89 686 89 686 89 708 c 128,-1,43
 89 730 89 730 105.5 742.5 c 128,-1,44
 122 755 122 755 149 755 c 2,45,-1
 300 750 l 1,0,-1
EndSplineSet
EndChar

StartChar: four
Encoding: 52 52 23
Width: 638
Flags: W
LayerCount: 2
Fore
SplineSet
152 327 m 1,0,-1
 389 327 l 1,1,2
 391 399 391 399 391 507 c 2,3,-1
 390 631 l 1,4,5
 261 478 261 478 152 327 c 1,0,-1
477 243 m 1,6,-1
 483 50 l 2,7,8
 483 23 483 23 470 7 c 128,-1,9
 457 -9 457 -9 433.5 -9 c 128,-1,10
 410 -9 410 -9 397 7 c 128,-1,11
 384 23 384 23 384 50 c 2,12,-1
 388 247 l 1,13,-1
 319 247 l 1,14,-1
 91 242 l 2,15,16
 65 242 65 242 50 256 c 128,-1,17
 35 270 35 270 35 291.5 c 128,-1,18
 35 313 35 313 53.5 341.5 c 128,-1,19
 72 370 72 370 132 446 c 2,20,-1
 336 708 l 2,21,22
 377 760 377 760 420 760 c 0,23,24
 446 760 446 760 464.5 743.5 c 128,-1,25
 483 727 483 727 483 690 c 0,26,27
 483 681 483 681 482 634 c 0,28,29
 477 491 477 491 477 329 c 1,30,-1
 528 332 l 1,31,32
 556 332 556 332 572.5 319.5 c 128,-1,33
 589 307 589 307 589 287 c 128,-1,34
 589 267 589 267 572.5 254.5 c 128,-1,35
 556 242 556 242 528 242 c 2,36,-1
 477 243 l 1,6,-1
EndSplineSet
EndChar

StartChar: five
Encoding: 53 53 24
Width: 635
Flags: W
LayerCount: 2
Fore
SplineSet
320 750 m 1,0,-1
 472 755 l 2,1,2
 499 755 499 755 515.5 742.5 c 128,-1,3
 532 730 532 730 532 708 c 128,-1,4
 532 686 532 686 515.5 673.5 c 128,-1,5
 499 661 499 661 482.5 661 c 128,-1,6
 466 661 466 661 411.5 665 c 128,-1,7
 357 669 357 669 326 669 c 128,-1,8
 295 669 295 669 250.5 667 c 128,-1,9
 206 665 206 665 188 665 c 1,10,11
 193 628 193 628 193 560 c 1,12,-1
 188 454 l 1,13,14
 256 498 256 498 332 498 c 0,15,16
 446 498 446 498 509 427.5 c 128,-1,17
 572 357 572 357 572 249.5 c 128,-1,18
 572 142 572 142 501 63.5 c 128,-1,19
 430 -15 430 -15 309 -15 c 0,20,21
 214 -15 214 -15 143 43.5 c 128,-1,22
 72 102 72 102 72 153 c 0,23,24
 72 171 72 171 83.5 183 c 128,-1,25
 95 195 95 195 113 195 c 0,26,27
 145 195 145 195 163 162 c 0,28,29
 213 72 213 72 316 72 c 0,30,31
 385 72 385 72 431 126 c 128,-1,32
 477 180 477 180 477 251 c 128,-1,33
 477 322 477 322 436.5 368.5 c 128,-1,34
 396 415 396 415 327 415 c 0,35,36
 262 415 262 415 184 359 c 0,37,38
 157 340 157 340 141 340 c 0,39,40
 91 340 91 340 91 390 c 0,41,42
 91 403 91 403 98 461 c 128,-1,43
 105 519 105 519 105 559.5 c 128,-1,44
 105 600 105 600 99 641 c 128,-1,45
 93 682 93 682 93 699 c 0,46,47
 93 754 93 754 159 754 c 1,48,-1
 320 750 l 1,0,-1
EndSplineSet
EndChar

StartChar: six
Encoding: 54 54 25
Width: 637
Flags: W
LayerCount: 2
Fore
SplineSet
436.5 119.5 m 128,-1,1
 479 167 479 167 479 236 c 128,-1,2
 479 305 479 305 438.5 352.5 c 128,-1,3
 398 400 398 400 330.5 400 c 128,-1,4
 263 400 263 400 217 348 c 128,-1,5
 171 296 171 296 171 230.5 c 128,-1,6
 171 165 171 165 217.5 118.5 c 128,-1,7
 264 72 264 72 329 72 c 128,-1,0
 394 72 394 72 436.5 119.5 c 128,-1,1
512 414 m 128,-1,9
 574 341 574 341 574 240.5 c 128,-1,10
 574 140 574 140 509 63 c 128,-1,11
 444 -14 444 -14 326 -14 c 128,-1,12
 208 -14 208 -14 140 70.5 c 128,-1,13
 72 155 72 155 72 285 c 0,14,15
 72 481 72 481 183 620.5 c 128,-1,16
 294 760 294 760 461 760 c 0,17,18
 498 760 498 760 517.5 748 c 128,-1,19
 537 736 537 736 537 717 c 0,20,21
 537 669 537 669 472 669 c 0,22,23
 363 669 363 669 281.5 595.5 c 128,-1,24
 200 522 200 522 177 416 c 1,25,26
 246 487 246 487 348 487 c 128,-1,8
 450 487 450 487 512 414 c 128,-1,9
EndSplineSet
EndChar

StartChar: seven
Encoding: 55 55 26
Width: 550
Flags: W
LayerCount: 2
Fore
SplineSet
268 750 m 1,0,-1
 434 754 l 1,1,2
 515 754 515 754 515 695 c 0,3,4
 515 673 515 673 493.5 630 c 128,-1,5
 472 587 472 587 429 507 c 0,6,7
 315 295 315 295 239 31 c 0,8,9
 227 -9 227 -9 190 -9 c 0,10,11
 170 -9 170 -9 157 5 c 128,-1,12
 144 19 144 19 144 47 c 128,-1,13
 144 75 144 75 166.5 137 c 128,-1,14
 189 199 189 199 233 301.5 c 128,-1,15
 277 404 277 404 314 481.5 c 128,-1,16
 351 559 351 559 372 601 c 128,-1,17
 393 643 393 643 400 663 c 1,18,19
 348 668 348 668 287.5 668 c 128,-1,20
 227 668 227 668 167.5 664.5 c 128,-1,21
 108 661 108 661 91 661 c 128,-1,22
 74 661 74 661 57.5 673.5 c 128,-1,23
 41 686 41 686 41 708 c 128,-1,24
 41 730 41 730 57.5 742.5 c 128,-1,25
 74 755 74 755 101 755 c 2,26,-1
 268 750 l 1,0,-1
EndSplineSet
EndChar

StartChar: eight
Encoding: 56 56 27
Width: 636
Flags: W
LayerCount: 2
Fore
SplineSet
434 590 m 128,-1,1
 434 627 434 627 398.5 652.5 c 128,-1,2
 363 678 363 678 318.5 678 c 128,-1,3
 274 678 274 678 238 652 c 128,-1,4
 202 626 202 626 202 590 c 128,-1,5
 202 554 202 554 233 525 c 128,-1,6
 264 496 264 496 320 464 c 1,7,8
 374 494 374 494 404 523.5 c 128,-1,0
 434 553 434 553 434 590 c 128,-1,1
471 204 m 0,9,10
 471 304 471 304 318 371 c 1,11,12
 165 304 165 304 165 204 c 0,13,14
 165 145 165 145 209 109 c 128,-1,15
 253 73 253 73 318 73 c 128,-1,16
 383 73 383 73 427 109 c 128,-1,17
 471 145 471 145 471 204 c 0,9,10
567 204 m 0,18,19
 567 113 567 113 497 49 c 128,-1,20
 427 -15 427 -15 318 -15 c 128,-1,21
 209 -15 209 -15 139 49 c 128,-1,22
 69 113 69 113 69 204 c 0,23,24
 69 337 69 337 232 419 c 1,25,26
 109 491 109 491 109 590 c 0,27,28
 109 662 109 662 168.5 714 c 128,-1,29
 228 766 228 766 317.5 766 c 128,-1,30
 407 766 407 766 467 714 c 128,-1,31
 527 662 527 662 527 590 c 0,32,33
 527 494 527 494 411 419 c 1,34,35
 567 336 567 336 567 204 c 0,18,19
EndSplineSet
EndChar

StartChar: nine
Encoding: 57 57 28
Width: 635
Flags: W
LayerCount: 2
Fore
SplineSet
200 631 m 128,-1,1
 157 584 157 584 157 515 c 128,-1,2
 157 446 157 446 196.5 399 c 128,-1,3
 236 352 236 352 304 352 c 128,-1,4
 372 352 372 352 417 403.5 c 128,-1,5
 462 455 462 455 462 521 c 128,-1,6
 462 587 462 587 417.5 632.5 c 128,-1,7
 373 678 373 678 308 678 c 128,-1,0
 243 678 243 678 200 631 c 128,-1,1
123 341 m 128,-1,9
 61 417 61 417 61 516.5 c 128,-1,10
 61 616 61 616 129 690.5 c 128,-1,11
 197 765 197 765 312 765 c 128,-1,12
 427 765 427 765 495 681 c 128,-1,13
 563 597 563 597 563 466 c 0,14,15
 563 263 563 263 452.5 124.5 c 128,-1,16
 342 -14 342 -14 174 -14 c 0,17,18
 137 -14 137 -14 117.5 -2 c 128,-1,19
 98 10 98 10 98 29 c 0,20,21
 98 75 98 75 164 75 c 0,22,23
 273 75 273 75 354 150.5 c 128,-1,24
 435 226 435 226 459 337 c 1,25,26
 387 265 387 265 286 265 c 128,-1,8
 185 265 185 265 123 341 c 128,-1,9
EndSplineSet
EndChar

StartChar: colon
Encoding: 58 58 29
Width: 263
Flags: W
LayerCount: 2
Fore
SplineSet
173.5 102 m 128,-1,1
 187 85 187 85 187 58.5 c 128,-1,2
 187 32 187 32 170 11 c 128,-1,3
 153 -10 153 -10 128.5 -10 c 128,-1,4
 104 -10 104 -10 90 8 c 128,-1,5
 76 26 76 26 76 52 c 128,-1,6
 76 78 76 78 92.5 98.5 c 128,-1,7
 109 119 109 119 134.5 119 c 128,-1,0
 160 119 160 119 173.5 102 c 128,-1,1
173.5 487 m 128,-1,9
 187 470 187 470 187 444 c 128,-1,10
 187 418 187 418 170 396.5 c 128,-1,11
 153 375 153 375 128.5 375 c 128,-1,12
 104 375 104 375 90 393 c 128,-1,13
 76 411 76 411 76 437 c 128,-1,14
 76 463 76 463 92.5 483.5 c 128,-1,15
 109 504 109 504 134.5 504 c 128,-1,8
 160 504 160 504 173.5 487 c 128,-1,9
EndSplineSet
EndChar

StartChar: semicolon
Encoding: 59 59 30
Width: 273
Flags: W
LayerCount: 2
Fore
SplineSet
191 36 m 0,0,1
 191 -18 191 -18 155 -83 c 128,-1,2
 119 -148 119 -148 88 -148 c 128,-1,3
 57 -148 57 -148 57 -122 c 0,4,5
 57 -108 57 -108 72.5 -82.5 c 128,-1,6
 88 -57 88 -57 88 -37.5 c 128,-1,7
 88 -18 88 -18 84 0 c 128,-1,8
 80 18 80 18 80 40.5 c 128,-1,9
 80 63 80 63 96 83.5 c 128,-1,10
 112 104 112 104 137.5 104 c 128,-1,11
 163 104 163 104 177 85.5 c 128,-1,12
 191 67 191 67 191 36 c 0,0,1
178.5 487 m 128,-1,14
 192 470 192 470 192 444 c 128,-1,15
 192 418 192 418 175 396.5 c 128,-1,16
 158 375 158 375 133.5 375 c 128,-1,17
 109 375 109 375 95 393 c 128,-1,18
 81 411 81 411 81 437 c 128,-1,19
 81 463 81 463 97.5 483.5 c 128,-1,20
 114 504 114 504 139.5 504 c 128,-1,13
 165 504 165 504 178.5 487 c 128,-1,14
EndSplineSet
EndChar

StartChar: less
Encoding: 60 60 31
Width: 610
Flags: W
LayerCount: 2
Fore
SplineSet
80 376 m 128,-1,1
 80 394 80 394 88.5 408 c 128,-1,2
 97 422 97 422 120 435.5 c 128,-1,3
 143 449 143 449 161 457 c 128,-1,4
 179 465 179 465 222.5 481.5 c 128,-1,5
 266 498 266 498 292.5 509 c 128,-1,6
 319 520 319 520 357 536 c 128,-1,7
 395 552 395 552 414.5 560.5 c 128,-1,8
 434 569 434 569 457 578 c 0,9,10
 499 593 499 593 517.5 593 c 128,-1,11
 536 593 536 593 548 582.5 c 128,-1,12
 560 572 560 572 560 556 c 0,13,14
 560 529 560 529 526 514 c 1,15,16
 489 499 489 499 431 477.5 c 128,-1,17
 373 456 373 456 349 446 c 0,18,19
 197 386 197 386 197 376 c 0,20,21
 197 368 197 368 310 322 c 1,22,-1
 348 306 l 2,23,24
 372 296 372 296 430 274.5 c 128,-1,25
 488 253 488 253 525 238 c 1,26,27
 559 223 559 223 559 196 c 0,28,29
 559 180 559 180 547 169.5 c 128,-1,30
 535 159 535 159 521.5 159 c 128,-1,31
 508 159 508 159 493.5 162.5 c 128,-1,32
 479 166 479 166 456 174.5 c 128,-1,33
 433 183 433 183 414 192 c 0,34,35
 304 239 304 239 241 263 c 128,-1,36
 178 287 178 287 160.5 295 c 128,-1,37
 143 303 143 303 120 316.5 c 128,-1,38
 97 330 97 330 88.5 344 c 128,-1,0
 80 358 80 358 80 376 c 128,-1,1
EndSplineSet
EndChar

StartChar: equal
Encoding: 61 61 32
Width: 652
Flags: W
LayerCount: 2
Fore
SplineSet
321 258 m 1,0,-1
 137 255 l 2,1,2
 115 255 115 255 101.5 267 c 128,-1,3
 88 279 88 279 88 297 c 128,-1,4
 88 315 88 315 101.5 327 c 128,-1,5
 115 339 115 339 137 339 c 2,6,-1
 321 336 l 1,7,-1
 515 339 l 2,8,9
 537 339 537 339 550.5 327 c 128,-1,10
 564 315 564 315 564 297 c 128,-1,11
 564 279 564 279 550.5 267 c 128,-1,12
 537 255 537 255 515 255 c 2,13,-1
 321 258 l 1,0,-1
321 412 m 1,14,-1
 137 409 l 2,15,16
 115 409 115 409 101.5 421 c 128,-1,17
 88 433 88 433 88 451 c 128,-1,18
 88 469 88 469 101.5 481 c 128,-1,19
 115 493 115 493 137 493 c 2,20,-1
 321 490 l 1,21,-1
 515 493 l 2,22,23
 537 493 537 493 550.5 481 c 128,-1,24
 564 469 564 469 564 451 c 128,-1,25
 564 433 564 433 550.5 421 c 128,-1,26
 537 409 537 409 515 409 c 2,27,-1
 321 412 l 1,14,-1
EndSplineSet
EndChar

StartChar: greater
Encoding: 62 62 33
Width: 610
Flags: W
LayerCount: 2
Fore
SplineSet
530 376 m 128,-1,1
 530 358 530 358 521.5 344 c 128,-1,2
 513 330 513 330 490 316.5 c 128,-1,3
 467 303 467 303 449.5 295 c 128,-1,4
 432 287 432 287 388.5 270.5 c 128,-1,5
 345 254 345 254 318.5 243 c 128,-1,6
 292 232 292 232 254 216 c 128,-1,7
 216 200 216 200 196.5 191.5 c 128,-1,8
 177 183 177 183 154 174 c 0,9,10
 112 159 112 159 93.5 159 c 128,-1,11
 75 159 75 159 63 169.5 c 128,-1,12
 51 180 51 180 51 196 c 0,13,14
 51 223 51 223 85 238 c 1,15,16
 122 253 122 253 180 274.5 c 128,-1,17
 238 296 238 296 262 306 c 0,18,19
 413 366 413 366 413 376 c 0,20,21
 413 384 413 384 299 430 c 1,22,-1
 261 446 l 2,23,24
 237 456 237 456 179 477.5 c 128,-1,25
 121 499 121 499 84 514 c 1,26,27
 50 529 50 529 50 556 c 0,28,29
 50 572 50 572 62 582.5 c 128,-1,30
 74 593 74 593 87.5 593 c 128,-1,31
 101 593 101 593 115.5 589.5 c 128,-1,32
 130 586 130 586 153 577.5 c 128,-1,33
 176 569 176 569 196 560 c 0,34,35
 305 513 305 513 368 489 c 128,-1,36
 431 465 431 465 449 457 c 128,-1,37
 467 449 467 449 490 435.5 c 128,-1,38
 513 422 513 422 521.5 408 c 128,-1,0
 530 394 530 394 530 376 c 128,-1,1
EndSplineSet
EndChar

StartChar: question
Encoding: 63 63 34
Width: 511
Flags: W
LayerCount: 2
Fore
SplineSet
259 95 m 128,-1,1
 272 78 272 78 272 52.5 c 128,-1,2
 272 27 272 27 255 6 c 128,-1,3
 238 -15 238 -15 214 -15 c 128,-1,4
 190 -15 190 -15 176.5 3.5 c 128,-1,5
 163 22 163 22 163 47 c 128,-1,6
 163 72 163 72 179.5 92 c 128,-1,7
 196 112 196 112 221 112 c 128,-1,0
 246 112 246 112 259 95 c 128,-1,1
451 580 m 0,8,9
 451 542 451 542 434.5 506 c 128,-1,10
 418 470 418 470 402.5 451.5 c 128,-1,11
 387 433 387 433 355 400 c 1,12,13
 325 375 325 375 309.5 360.5 c 128,-1,14
 294 346 294 346 279.5 322 c 128,-1,15
 265 298 265 298 265 274 c 0,16,17
 265 208 265 208 220 208 c 0,18,19
 200 208 200 208 187 225.5 c 128,-1,20
 174 243 174 243 174 272 c 128,-1,21
 174 301 174 301 182 325 c 128,-1,22
 190 349 190 349 210 372 c 1,23,24
 235 403 235 403 283 446 c 1,25,26
 307 473 307 473 319 488 c 128,-1,27
 331 503 331 503 343 529 c 128,-1,28
 355 555 355 555 355 580 c 0,29,30
 355 623 355 623 322.5 650.5 c 128,-1,31
 290 678 290 678 249 678 c 0,32,33
 188 678 188 678 144 634 c 1,34,35
 120 606 120 606 100.5 606 c 128,-1,36
 81 606 81 606 70 618.5 c 128,-1,37
 59 631 59 631 59 648 c 0,38,39
 59 686 59 686 116.5 726 c 128,-1,40
 174 766 174 766 244 766 c 0,41,42
 336 766 336 766 393.5 712.5 c 128,-1,43
 451 659 451 659 451 580 c 0,8,9
EndSplineSet
EndChar

StartChar: at
Encoding: 64 64 35
Width: 928
Flags: W
LayerCount: 2
Fore
SplineSet
556 334 m 1,0,-1
 556 453 l 1,1,2
 507 489 507 489 460.5 489 c 128,-1,3
 414 489 414 489 380.5 447.5 c 128,-1,4
 347 406 347 406 347 348.5 c 128,-1,5
 347 291 347 291 367 252 c 128,-1,6
 387 213 387 213 427.5 213 c 128,-1,7
 468 213 468 213 500.5 248 c 128,-1,8
 533 283 533 283 556 334 c 1,0,-1
859 369 m 0,9,10
 859 266 859 266 808.5 196.5 c 128,-1,11
 758 127 758 127 687 127 c 0,12,13
 598 127 598 127 570 210 c 1,14,15
 513 127 513 127 424 127 c 0,16,17
 380 127 380 127 345 148 c 128,-1,18
 310 169 310 169 290 202 c 0,19,20
 252 267 252 267 252 342 c 0,21,22
 252 437 252 437 310.5 506.5 c 128,-1,23
 369 576 369 576 460 576 c 0,24,25
 509 576 509 576 559 540 c 1,26,27
 572 576 572 576 605 576 c 0,28,29
 659 576 659 576 659 496 c 0,30,31
 659 486 659 486 649 421 c 128,-1,32
 639 356 639 356 639 313 c 0,33,34
 639 209 639 209 686 209 c 0,35,36
 718 209 718 209 743.5 247.5 c 128,-1,37
 769 286 769 286 769 371 c 0,38,39
 769 521 769 521 680.5 599.5 c 128,-1,40
 592 678 592 678 463 678 c 128,-1,41
 334 678 334 678 244 581 c 128,-1,42
 154 484 154 484 154 338.5 c 128,-1,43
 154 193 154 193 231 109.5 c 128,-1,44
 308 26 308 26 416 26 c 0,45,46
 469 26 469 26 526 48.5 c 128,-1,47
 583 71 583 71 587 71 c 0,48,49
 603 71 603 71 613 61.5 c 128,-1,50
 623 52 623 52 623 37 c 0,51,52
 623 10 623 10 561.5 -22.5 c 128,-1,53
 500 -55 500 -55 412 -55 c 0,54,55
 263 -55 263 -55 161 54.5 c 128,-1,56
 59 164 59 164 59 338.5 c 128,-1,57
 59 513 59 513 175 639 c 128,-1,58
 291 765 291 765 462.5 765 c 128,-1,59
 634 765 634 765 746.5 658 c 128,-1,60
 859 551 859 551 859 369 c 0,9,10
EndSplineSet
EndChar

StartChar: A
Encoding: 65 65 36
Width: 682
Flags: W
LayerCount: 2
Fore
SplineSet
227 328 m 1,0,1
 291 326 291 326 350.5 326 c 128,-1,2
 410 326 410 326 446 328 c 1,3,4
 340 633 340 633 339 633 c 0,5,6
 333 633 333 633 254 404 c 1,7,-1
 227 328 l 1,0,1
471 241 m 1,8,-1
 342 244 l 1,9,10
 246 244 246 244 202 242 c 1,11,12
 191 209 191 209 170.5 138.5 c 128,-1,13
 150 68 150 68 137 29 c 128,-1,14
 124 -10 124 -10 91 -10 c 0,15,16
 72 -10 72 -10 60.5 2 c 128,-1,17
 49 14 49 14 49 28.5 c 128,-1,18
 49 43 49 43 50.5 52 c 128,-1,19
 52 61 52 61 57.5 79 c 128,-1,20
 63 97 63 97 68 113 c 0,21,22
 98 199 98 199 111 239 c 1,23,24
 82 239 82 239 65.5 251.5 c 128,-1,25
 49 264 49 264 49 285 c 0,26,27
 49 332 49 332 123 332 c 2,28,-1
 141 332 l 1,29,30
 198 492 198 492 254 644 c 1,31,-1
 260 661 l 2,32,33
 279 716 279 716 292 730 c 0,34,35
 318 760 318 760 335.5 760 c 128,-1,36
 353 760 353 760 362 757 c 128,-1,37
 371 754 371 754 379 746 c 128,-1,38
 387 738 387 738 392.5 729 c 128,-1,39
 398 720 398 720 405.5 701 c 128,-1,40
 413 682 413 682 418 666 c 0,41,42
 467 519 467 519 539 332 c 1,43,-1
 575 333 l 2,44,45
 601 333 601 333 617.5 319 c 128,-1,46
 634 305 634 305 634 284 c 0,47,48
 634 240 634 240 568 237 c 1,49,50
 578 205 578 205 596 156 c 0,51,52
 634 50 634 50 634 33.5 c 128,-1,53
 634 17 634 17 622.5 3.5 c 128,-1,54
 611 -10 611 -10 591 -10 c 0,55,56
 555 -10 555 -10 539 29 c 1,57,58
 522 78 522 78 471 241 c 1,8,-1
EndSplineSet
EndChar

StartChar: B
Encoding: 66 66 37
Width: 695
Flags: W
LayerCount: 2
Fore
SplineSet
311 679 m 0,0,1
 264 679 264 679 216 667 c 1,2,3
 213 615 213 615 213 443 c 1,4,5
 233 448 233 448 280.5 448 c 128,-1,6
 328 448 328 448 365 440 c 1,7,8
 402 442 402 442 447 478 c 128,-1,9
 492 514 492 514 492 573 c 0,10,11
 492 614 492 614 448 646.5 c 128,-1,12
 404 679 404 679 311 679 c 0,0,1
311 72 m 0,13,14
 416 72 416 72 478 109.5 c 128,-1,15
 540 147 540 147 540 218 c 0,16,17
 540 274 540 274 489 311.5 c 128,-1,18
 438 349 438 349 379 359 c 1,19,20
 318 345 318 345 278 345 c 128,-1,21
 238 345 238 345 213 349 c 1,22,23
 213 159 213 159 216 78 c 1,24,25
 241 72 241 72 311 72 c 0,13,14
637 212 m 0,26,27
 637 103 637 103 549 44 c 128,-1,28
 461 -15 461 -15 314 -15 c 0,29,30
 206 -15 206 -15 136 8 c 128,-1,31
 66 31 66 31 66 68.5 c 128,-1,32
 66 106 66 106 119 106 c 1,33,34
 122 209 122 209 122 381 c 128,-1,35
 122 553 122 553 118 626 c 1,36,37
 96 626 96 626 85.5 640 c 128,-1,38
 75 654 75 654 75 672 c 0,39,40
 75 703 75 703 123 726 c 0,41,42
 207 765 207 765 311 765 c 0,43,44
 382 765 382 765 436.5 746.5 c 128,-1,45
 491 728 491 728 522 698 c 0,46,47
 583 639 583 639 583 574 c 0,48,49
 583 468 583 468 486 409 c 1,50,51
 552 385 552 385 594.5 330.5 c 128,-1,52
 637 276 637 276 637 212 c 0,26,27
EndSplineSet
EndChar

StartChar: C
Encoding: 67 67 38
Width: 698
Flags: W
LayerCount: 2
Fore
SplineSet
650 106 m 0,0,1
 650 70 650 70 575.5 27.5 c 128,-1,2
 501 -15 501 -15 400 -15 c 0,3,4
 257 -15 257 -15 162 99 c 128,-1,5
 67 213 67 213 67 376 c 128,-1,6
 67 539 67 539 162.5 652 c 128,-1,7
 258 765 258 765 402 765 c 0,8,9
 490 765 490 765 559.5 732 c 128,-1,10
 629 699 629 699 629 658 c 0,11,12
 629 638 629 638 617 626 c 128,-1,13
 605 614 605 614 584.5 614 c 128,-1,14
 564 614 564 614 530 637 c 1,15,16
 466 678 466 678 402 678 c 0,17,18
 298 678 298 678 230.5 588.5 c 128,-1,19
 163 499 163 499 163 376.5 c 128,-1,20
 163 254 163 254 230.5 163 c 128,-1,21
 298 72 298 72 396 72 c 128,-1,22
 494 72 494 72 575 121 c 1,23,24
 608 139 608 139 619.5 139 c 128,-1,25
 631 139 631 139 640.5 129.5 c 128,-1,26
 650 120 650 120 650 106 c 0,0,1
EndSplineSet
EndChar

StartChar: D
Encoding: 68 68 39
Width: 749
Flags: W
LayerCount: 2
Fore
SplineSet
568 265 m 128,-1,1
 586 319 586 319 586 387 c 128,-1,2
 586 455 586 455 555 522 c 128,-1,3
 524 589 524 589 457 633.5 c 128,-1,4
 390 678 390 678 298 678 c 0,5,6
 266 678 266 678 217 671 c 1,7,8
 214 609 214 609 214 390.5 c 128,-1,9
 214 172 214 172 219 75 c 1,10,11
 243 72 243 72 309 72 c 128,-1,12
 375 72 375 72 429 98 c 128,-1,13
 483 124 483 124 516.5 167.5 c 128,-1,0
 550 211 550 211 568 265 c 128,-1,1
123 376 m 1,14,-1
 118 646 l 1,15,16
 71 651 71 651 71 690 c 0,17,18
 71 709 71 709 94 724 c 128,-1,19
 117 739 117 739 152 748 c 0,20,21
 221 764 221 764 306 764 c 128,-1,22
 391 764 391 764 465.5 731 c 128,-1,23
 540 698 540 698 586 642 c 0,24,25
 682 527 682 527 682 372 c 0,26,27
 682 221 682 221 590 108 c 0,28,29
 545 52 545 52 473 18.5 c 128,-1,30
 401 -15 401 -15 303 -15 c 128,-1,31
 205 -15 205 -15 136 8 c 128,-1,32
 67 31 67 31 67 68 c 128,-1,33
 67 105 67 105 120 105 c 1,34,-1
 123 376 l 1,14,-1
EndSplineSet
EndChar

StartChar: E
Encoding: 69 69 40
Width: 629
Flags: W
LayerCount: 2
Fore
SplineSet
509 662 m 1,0,-1
 350 668 l 1,1,2
 273 668 273 668 213 663 c 1,3,-1
 213 441 l 1,4,5
 232 440 232 440 279 440 c 1,6,-1
 458 445 l 2,7,8
 485 445 485 445 501 432.5 c 128,-1,9
 517 420 517 420 517 399 c 0,10,11
 517 355 517 355 458 355 c 1,12,-1
 279 359 l 2,13,14
 236 359 236 359 213 358 c 1,15,-1
 213 279 l 2,16,17
 213 133 213 133 217 87 c 1,18,19
 277 82 277 82 353 82 c 1,20,-1
 512 88 l 1,21,22
 539 88 539 88 555.5 75.5 c 128,-1,23
 572 63 572 63 572 41 c 128,-1,24
 572 19 572 19 555.5 6.5 c 128,-1,25
 539 -6 539 -6 512 -6 c 1,26,-1
 353 0 l 1,27,-1
 172 -5 l 1,28,29
 118 -5 118 -5 118 41 c 0,30,31
 118 76 118 76 120.5 155.5 c 128,-1,32
 123 235 123 235 123 355 c 1,33,34
 56 355 56 355 56 399 c 0,35,36
 56 422 56 422 75 433.5 c 128,-1,37
 94 445 94 445 123 445 c 1,38,39
 121 632 121 632 116 670 c 1,40,41
 104 689 104 689 104 710 c 0,42,43
 104 755 104 755 166 755 c 1,44,-1
 350 750 l 1,45,-1
 509 756 l 1,46,47
 536 756 536 756 552.5 743.5 c 128,-1,48
 569 731 569 731 569 709 c 128,-1,49
 569 687 569 687 552.5 674.5 c 128,-1,50
 536 662 536 662 509 662 c 1,0,-1
EndSplineSet
EndChar

StartChar: F
Encoding: 70 70 41
Width: 606
Flags: W
LayerCount: 2
Fore
SplineSet
279 440 m 1,0,-1
 449 445 l 2,1,2
 476 445 476 445 492 432.5 c 128,-1,3
 508 420 508 420 508 399 c 0,4,5
 508 355 508 355 449 355 c 1,6,-1
 279 359 l 1,7,8
 235 359 235 359 212 358 c 1,9,10
 212 227 212 227 215 148 c 128,-1,11
 218 69 218 69 218 61 c 0,12,13
 218 -10 218 -10 167 -10 c 128,-1,14
 116 -10 116 -10 116 61 c 0,15,16
 116 69 116 69 118 108 c 0,17,18
 122 225 122 225 122 355 c 1,19,20
 55 355 55 355 55 399 c 0,21,22
 55 422 55 422 74 433.5 c 128,-1,23
 93 445 93 445 122 445 c 1,24,25
 120 632 120 632 115 670 c 1,26,27
 103 689 103 689 103 710 c 0,28,29
 103 755 103 755 165 755 c 1,30,-1
 350 750 l 1,31,-1
 510 756 l 1,32,33
 537 756 537 756 553.5 743.5 c 128,-1,34
 570 731 570 731 570 709 c 128,-1,35
 570 687 570 687 553.5 674.5 c 128,-1,36
 537 662 537 662 510 662 c 1,37,-1
 350 668 l 1,38,39
 272 668 272 668 212 663 c 1,40,-1
 212 441 l 1,41,42
 231 440 231 440 279 440 c 1,0,-1
EndSplineSet
EndChar

StartChar: G
Encoding: 71 71 42
Width: 762
Flags: W
LayerCount: 2
Fore
SplineSet
521 398 m 1,0,-1
 647 404 l 1,1,2
 674 404 674 404 690.5 391 c 128,-1,3
 707 378 707 378 707 353 c 0,4,5
 707 183 707 183 621.5 84 c 128,-1,6
 536 -15 536 -15 396.5 -15 c 128,-1,7
 257 -15 257 -15 162 99 c 128,-1,8
 67 213 67 213 67 376 c 128,-1,9
 67 539 67 539 165 652 c 128,-1,10
 263 765 263 765 413 765 c 0,11,12
 506 765 506 765 582.5 728 c 128,-1,13
 659 691 659 691 659 648 c 0,14,15
 659 629 659 629 647.5 618 c 128,-1,16
 636 607 636 607 613.5 607 c 128,-1,17
 591 607 591 607 553 634 c 0,18,19
 492 678 492 678 413 678 c 0,20,21
 305 678 305 678 234 589 c 128,-1,22
 163 500 163 500 163 377.5 c 128,-1,23
 163 255 163 255 231 163.5 c 128,-1,24
 299 72 299 72 402 72 c 0,25,26
 487 72 487 72 544 135 c 128,-1,27
 601 198 601 198 605 314 c 1,28,29
 572 317 572 317 521 317 c 1,30,-1
 386 312 l 2,31,32
 359 312 359 312 344 324 c 128,-1,33
 329 336 329 336 329 356.5 c 128,-1,34
 329 377 329 377 344 390 c 128,-1,35
 359 403 359 403 386 403 c 2,36,-1
 521 398 l 1,0,-1
EndSplineSet
EndChar

StartChar: H
Encoding: 72 72 43
Width: 758
Flags: W
LayerCount: 2
Fore
SplineSet
548 353 m 1,0,-1
 376 355 l 1,1,2
 260 355 260 355 208 354 c 1,3,4
 208 275 208 275 211 170.5 c 128,-1,5
 214 66 214 66 214 61 c 0,6,7
 214 -10 214 -10 163 -10 c 128,-1,8
 112 -10 112 -10 112 61 c 0,9,10
 112 66 112 66 115 169 c 128,-1,11
 118 272 118 272 118 351 c 1,12,13
 54 351 54 351 54 396 c 0,14,15
 54 417 54 417 70.5 429.5 c 128,-1,16
 87 442 87 442 118 442 c 1,17,18
 118 521 118 521 115 602.5 c 128,-1,19
 112 684 112 684 112 689 c 0,20,21
 112 760 112 760 163 760 c 128,-1,22
 214 760 214 760 214 689 c 0,23,24
 214 684 214 684 211 601 c 128,-1,25
 208 518 208 518 208 439 c 1,26,27
 306 437 306 437 403 437 c 128,-1,28
 500 437 500 437 548 439 c 1,29,30
 548 518 548 518 545.5 601 c 128,-1,31
 543 684 543 684 543 689 c 0,32,33
 543 760 543 760 594 760 c 128,-1,34
 645 760 645 760 645 689 c 0,35,36
 645 684 645 684 642 603 c 128,-1,37
 639 522 639 522 639 443 c 1,38,39
 669 443 669 443 686.5 430 c 128,-1,40
 704 417 704 417 704 396 c 128,-1,41
 704 375 704 375 686.5 362.5 c 128,-1,42
 669 350 669 350 639 350 c 1,43,44
 639 271 639 271 642 168.5 c 128,-1,45
 645 66 645 66 645 61 c 0,46,47
 645 -10 645 -10 594 -10 c 128,-1,48
 543 -10 543 -10 543 61 c 1,49,-1
 548 353 l 1,0,-1
EndSplineSet
EndChar

StartChar: I
Encoding: 73 73 44
Width: 476
Flags: W
LayerCount: 2
Fore
SplineSet
369 661 m 1,0,-1
 287 665 l 1,1,2
 283 568 283 568 283 386.5 c 128,-1,3
 283 205 283 205 288 83 c 1,4,-1
 369 87 l 1,5,6
 396 87 396 87 412.5 74.5 c 128,-1,7
 429 62 429 62 429 40.5 c 128,-1,8
 429 19 429 19 412.5 6.5 c 128,-1,9
 396 -6 396 -6 369 -6 c 1,10,-1
 238 0 l 1,11,-1
 107 -6 l 1,12,13
 80 -6 80 -6 63.5 6.5 c 128,-1,14
 47 19 47 19 47 40.5 c 128,-1,15
 47 62 47 62 63.5 74.5 c 128,-1,16
 80 87 80 87 107 87 c 1,17,-1
 188 82 l 1,18,19
 193 204 193 204 193 386 c 128,-1,20
 193 568 193 568 189 665 c 1,21,-1
 107 661 l 1,22,23
 80 661 80 661 63.5 674 c 128,-1,24
 47 687 47 687 47 709 c 128,-1,25
 47 731 47 731 63.5 743.5 c 128,-1,26
 80 756 80 756 107 756 c 1,27,-1
 238 750 l 1,28,-1
 369 756 l 1,29,30
 396 756 396 756 412.5 743.5 c 128,-1,31
 429 731 429 731 429 709 c 128,-1,32
 429 687 429 687 412.5 674 c 128,-1,33
 396 661 396 661 369 661 c 1,0,-1
EndSplineSet
EndChar

StartChar: J
Encoding: 74 74 45
Width: 563
Flags: W
LayerCount: 2
Fore
SplineSet
313 750 m 1,0,-1
 452 756 l 1,1,2
 479 756 479 756 495.5 743.5 c 128,-1,3
 512 731 512 731 512 709.5 c 128,-1,4
 512 688 512 688 493 675 c 128,-1,5
 474 662 474 662 444 662 c 1,6,7
 443 600 443 600 443 257 c 0,8,9
 443 184 443 184 423.5 129 c 128,-1,10
 404 74 404 74 371 44 c 0,11,12
 306 -15 306 -15 225 -15 c 128,-1,13
 144 -15 144 -15 92.5 19.5 c 128,-1,14
 41 54 41 54 41 87 c 0,15,16
 41 106 41 106 52.5 117.5 c 128,-1,17
 64 129 64 129 81 129 c 128,-1,18
 98 129 98 129 114.5 115 c 128,-1,19
 131 101 131 101 157 86.5 c 128,-1,20
 183 72 183 72 222 72 c 0,21,22
 275 72 275 72 314 121.5 c 128,-1,23
 353 171 353 171 353 278 c 2,24,-1
 350 667 l 1,25,26
 291 667 291 667 243 664 c 128,-1,27
 195 661 195 661 176 661 c 128,-1,28
 157 661 157 661 140.5 673.5 c 128,-1,29
 124 686 124 686 124 708 c 128,-1,30
 124 730 124 730 140.5 742.5 c 128,-1,31
 157 755 157 755 184 755 c 1,32,-1
 313 750 l 1,0,-1
EndSplineSet
EndChar

StartChar: K
Encoding: 75 75 46
Width: 658
Flags: W
LayerCount: 2
Fore
SplineSet
203 337 m 1,0,-1
 208 47 l 2,1,2
 208 23 208 23 193 6.5 c 128,-1,3
 178 -10 178 -10 157.5 -10 c 128,-1,4
 137 -10 137 -10 122.5 6.5 c 128,-1,5
 108 23 108 23 108 47 c 2,6,-1
 112 372 l 1,7,-1
 108 702 l 2,8,9
 108 726 108 726 122.5 742.5 c 128,-1,10
 137 759 137 759 157.5 759 c 128,-1,11
 178 759 178 759 193 742.5 c 128,-1,12
 208 726 208 726 208 702 c 2,13,-1
 206 612 l 2,14,15
 203 522 203 522 203 434 c 1,16,17
 227 442 227 442 272 442 c 1,18,-1
 320 436 l 1,19,20
 368 476 368 476 409.5 556 c 128,-1,21
 451 636 451 636 468 711 c 1,22,23
 478 760 478 760 516 760 c 0,24,25
 534 760 534 760 546 748 c 128,-1,26
 558 736 558 736 558 717 c 0,27,28
 558 651 558 651 506.5 549 c 128,-1,29
 455 447 455 447 395 381 c 1,30,31
 429 314 429 314 476.5 233 c 128,-1,32
 524 152 524 152 554 113.5 c 128,-1,33
 584 75 584 75 616 75 c 1,34,-1
 627 76 l 2,35,36
 634 76 634 76 634 54 c 128,-1,37
 634 32 634 32 616 11 c 128,-1,38
 598 -10 598 -10 570.5 -10 c 128,-1,39
 543 -10 543 -10 516 14 c 0,40,41
 463 63 463 63 310 341 c 1,42,43
 298 341 298 341 279 337.5 c 128,-1,44
 260 334 260 334 238 334 c 128,-1,45
 216 334 216 334 203 337 c 1,0,-1
EndSplineSet
EndChar

StartChar: L
Encoding: 76 76 47
Width: 584
Flags: W
LayerCount: 2
Fore
SplineSet
110 54 m 2,0,-1
 114 380 l 1,1,2
 114 511 114 511 111 596 c 128,-1,3
 108 681 108 681 108 689 c 0,4,5
 108 760 108 760 159 760 c 128,-1,6
 210 760 210 760 210 689 c 0,7,8
 210 681 210 681 208 638 c 0,9,10
 204 511 204 511 204 405.5 c 128,-1,11
 204 300 204 300 205 240.5 c 128,-1,12
 206 181 206 181 208 139.5 c 128,-1,13
 210 98 210 98 210 87 c 1,14,15
 258 82 258 82 314 82 c 128,-1,16
 370 82 370 82 423 85.5 c 128,-1,17
 476 89 476 89 492.5 89 c 128,-1,18
 509 89 509 89 525.5 76.5 c 128,-1,19
 542 64 542 64 542 42 c 128,-1,20
 542 20 542 20 525.5 7.5 c 128,-1,21
 509 -5 509 -5 482 -5 c 2,22,-1
 333 0 l 1,23,-1
 171 -5 l 2,24,25
 141 -5 141 -5 125.5 7.5 c 128,-1,26
 110 20 110 20 110 54 c 2,0,-1
EndSplineSet
EndChar

StartChar: M
Encoding: 77 77 48
Width: 862
Flags: W
LayerCount: 2
Fore
SplineSet
108 48 m 2,0,-1
 113 372 l 1,1,2
 113 475 113 475 110.5 584.5 c 128,-1,3
 108 694 108 694 108 697 c 0,4,5
 108 726 108 726 122.5 743 c 128,-1,6
 137 760 137 760 158 760 c 0,7,8
 190 760 190 760 208 721 c 2,9,-1
 431 242 l 1,10,11
 523 436 523 436 634 684 c 0,12,13
 656 733 656 733 668 746.5 c 128,-1,14
 680 760 680 760 702.5 760 c 128,-1,15
 725 760 725 760 739.5 743.5 c 128,-1,16
 754 727 754 727 754 697 c 1,17,18
 749 671 749 671 749 470 c 128,-1,19
 749 269 749 269 752 160 c 128,-1,20
 755 51 755 51 755 48 c 0,21,22
 755 22 755 22 741 6 c 128,-1,23
 727 -10 727 -10 704.5 -10 c 128,-1,24
 682 -10 682 -10 668 6 c 128,-1,25
 654 22 654 22 654 39.5 c 128,-1,26
 654 57 654 57 656 104 c 0,27,28
 661 223 661 223 661 372 c 2,29,-1
 661 525 l 1,30,-1
 480 144 l 2,31,32
 463 109 463 109 434 109 c 128,-1,33
 405 109 405 109 387 146 c 2,34,-1
 203 525 l 1,35,-1
 203 372 l 2,36,37
 203 269 203 269 206 160 c 128,-1,38
 209 51 209 51 209 48 c 0,39,40
 209 22 209 22 195 6 c 128,-1,41
 181 -10 181 -10 158.5 -10 c 128,-1,42
 136 -10 136 -10 122 6 c 128,-1,43
 108 22 108 22 108 48 c 2,0,-1
EndSplineSet
EndChar

StartChar: N
Encoding: 78 78 49
Width: 733
Flags: W
LayerCount: 2
Fore
SplineSet
621 372 m 1,0,-1
 624 62 l 2,1,2
 624 -10 624 -10 571 -10 c 0,3,4
 538 -10 538 -10 521 21 c 2,5,-1
 204 567 l 1,6,7
 204 241 204 241 206.5 148.5 c 128,-1,8
 209 56 209 56 209 39.5 c 128,-1,9
 209 23 209 23 194 6.5 c 128,-1,10
 179 -10 179 -10 158.5 -10 c 128,-1,11
 138 -10 138 -10 123.5 6.5 c 128,-1,12
 109 23 109 23 109 48 c 2,13,-1
 113 372 l 1,14,15
 113 475 113 475 110.5 581 c 128,-1,16
 108 687 108 687 108 689 c 0,17,18
 108 760 108 760 159 760 c 0,19,20
 196 760 196 760 214 729 c 0,21,22
 505 229 505 229 531 189 c 1,23,24
 531 472 531 472 528 579 c 128,-1,25
 525 686 525 686 525 689 c 0,26,27
 525 760 525 760 576 760 c 128,-1,28
 627 760 627 760 627 689 c 0,29,30
 627 681 627 681 626 636 c 0,31,32
 621 503 621 503 621 372 c 1,0,-1
EndSplineSet
EndChar

StartChar: O
Encoding: 79 79 50
Width: 814
Flags: W
LayerCount: 2
Fore
SplineSet
747 376 m 128,-1,1
 747 213 747 213 649.5 99 c 128,-1,2
 552 -15 552 -15 406.5 -15 c 128,-1,3
 261 -15 261 -15 164 99 c 128,-1,4
 67 213 67 213 67 376 c 128,-1,5
 67 539 67 539 165 652 c 128,-1,6
 263 765 263 765 408.5 765 c 128,-1,7
 554 765 554 765 650.5 652 c 128,-1,0
 747 539 747 539 747 376 c 128,-1,1
581.5 164 m 128,-1,9
 651 256 651 256 651 377 c 128,-1,10
 651 498 651 498 582 588.5 c 128,-1,11
 513 679 513 679 407.5 679 c 128,-1,12
 302 679 302 679 232.5 588.5 c 128,-1,13
 163 498 163 498 163 377.5 c 128,-1,14
 163 257 163 257 233 164.5 c 128,-1,15
 303 72 303 72 407.5 72 c 128,-1,8
 512 72 512 72 581.5 164 c 128,-1,9
EndSplineSet
EndChar

StartChar: P
Encoding: 80 80 51
Width: 641
Flags: W
LayerCount: 2
Fore
SplineSet
109 48 m 2,0,-1
 117 382 l 1,1,2
 117 633 117 633 111 633 c 0,3,4
 89 633 89 633 78 644.5 c 128,-1,5
 67 656 67 656 67 675.5 c 128,-1,6
 67 695 67 695 94.5 714 c 128,-1,7
 122 733 122 733 162 744 c 0,8,9
 244 765 244 765 303 765 c 0,10,11
 447 765 447 765 523 693.5 c 128,-1,12
 599 622 599 622 599 524 c 128,-1,13
 599 426 599 426 523 355 c 128,-1,14
 447 284 447 284 329 284 c 0,15,16
 251 284 251 284 206 295 c 1,17,-1
 211 48 l 2,18,19
 211 22 211 22 197 6 c 128,-1,20
 183 -10 183 -10 160.5 -10 c 128,-1,21
 138 -10 138 -10 123.5 6 c 128,-1,22
 109 22 109 22 109 48 c 2,0,-1
309 679 m 0,23,24
 244 679 244 679 207 666 c 1,25,26
 204 620 204 620 204 523.5 c 128,-1,27
 204 427 204 427 206 384 c 1,28,29
 263 369 263 369 331.5 369 c 128,-1,30
 400 369 400 369 451.5 413.5 c 128,-1,31
 503 458 503 458 503 523.5 c 128,-1,32
 503 589 503 589 451.5 634 c 128,-1,33
 400 679 400 679 309 679 c 0,23,24
EndSplineSet
EndChar

StartChar: Q
Encoding: 81 81 52
Width: 794
Flags: W
LayerCount: 2
Fore
SplineSet
631 376 m 0,0,1
 631 498 631 498 564.5 588.5 c 128,-1,2
 498 679 498 679 397 679 c 128,-1,3
 296 679 296 679 229.5 588.5 c 128,-1,4
 163 498 163 498 163 377.5 c 128,-1,5
 163 257 163 257 230 164.5 c 128,-1,6
 297 72 297 72 397 72 c 0,7,8
 430 72 430 72 459 81 c 1,9,10
 443 106 443 106 425 132 c 0,11,12
 397 172 397 172 397 192 c 128,-1,13
 397 212 397 212 408 223 c 128,-1,14
 419 234 419 234 438.5 234 c 128,-1,15
 458 234 458 234 474 208 c 0,16,17
 492 178 492 178 523 116 c 1,18,19
 573 158 573 158 602 228 c 128,-1,20
 631 298 631 298 631 376 c 0,0,1
727 376 m 0,21,22
 727 269 727 269 685 179.5 c 128,-1,23
 643 90 643 90 571 38 c 1,24,25
 589 12 589 12 597 0 c 0,26,27
 619 -31 619 -31 619 -51 c 128,-1,28
 619 -71 619 -71 608 -82.5 c 128,-1,29
 597 -94 597 -94 577.5 -94 c 128,-1,30
 558 -94 558 -94 541 -67 c 1,31,-1
 502 3 l 1,32,33
 448 -15 448 -15 396 -15 c 0,34,35
 256 -15 256 -15 161.5 99 c 128,-1,36
 67 213 67 213 67 375.5 c 128,-1,37
 67 538 67 538 162 651.5 c 128,-1,38
 257 765 257 765 398 765 c 128,-1,39
 539 765 539 765 633 652 c 128,-1,40
 727 539 727 539 727 376 c 0,21,22
EndSplineSet
EndChar

StartChar: R
Encoding: 82 82 53
Width: 676
Flags: W
LayerCount: 2
Fore
SplineSet
614 76 m 1,0,-1
 630 78 l 1,1,2
 639 78 639 78 639 54 c 128,-1,3
 639 30 639 30 618 10 c 128,-1,4
 597 -10 597 -10 571 -10 c 0,5,6
 526 -10 526 -10 485 48 c 1,7,8
 432 120 432 120 350 301 c 1,9,10
 309 295 309 295 258 295 c 1,11,-1
 206 299 l 1,12,13
 206 229 206 229 209 160 c 128,-1,14
 212 91 212 91 212 61 c 0,15,16
 212 -10 212 -10 161 -10 c 128,-1,17
 110 -10 110 -10 110 61 c 0,18,19
 110 101 110 101 113.5 199.5 c 128,-1,20
 117 298 117 298 117 397 c 128,-1,21
 117 496 117 496 111 632 c 1,22,23
 88 632 88 632 77.5 644 c 128,-1,24
 67 656 67 656 67 672 c 0,25,26
 67 715 67 715 150 740 c 128,-1,27
 233 765 233 765 298 765 c 0,28,29
 439 765 439 765 512 699.5 c 128,-1,30
 585 634 585 634 585 539 c 0,31,32
 585 478 585 478 544 419.5 c 128,-1,33
 503 361 503 361 437 330 c 1,34,35
 483 224 483 224 520.5 164 c 128,-1,36
 558 104 558 104 577 90 c 128,-1,37
 596 76 596 76 614 76 c 1,0,-1
489 533 m 0,38,39
 489 599 489 599 441.5 639 c 128,-1,40
 394 679 394 679 304 679 c 0,41,42
 243 679 243 679 207 666 c 1,43,44
 204 576 204 576 204 492 c 128,-1,45
 204 408 204 408 205 395 c 1,46,47
 253 404 253 404 293.5 404 c 128,-1,48
 334 404 334 404 380 395 c 1,49,50
 421 404 421 404 455 444 c 128,-1,51
 489 484 489 484 489 533 c 0,38,39
EndSplineSet
EndChar

StartChar: S
Encoding: 83 83 54
Width: 596
Flags: W
LayerCount: 2
Fore
SplineSet
542 204 m 0,0,1
 542 111 542 111 471.5 48 c 128,-1,2
 401 -15 401 -15 289 -15 c 0,3,4
 202 -15 202 -15 127 27 c 128,-1,5
 52 69 52 69 52 109 c 0,6,7
 52 127 52 127 64 139 c 128,-1,8
 76 151 76 151 94.5 151 c 128,-1,9
 113 151 113 151 132 138.5 c 128,-1,10
 151 126 151 126 167 111.5 c 128,-1,11
 183 97 183 97 215.5 84.5 c 128,-1,12
 248 72 248 72 289 72 c 0,13,14
 357 72 357 72 401.5 107 c 128,-1,15
 446 142 446 142 446 204 c 0,16,17
 446 245 446 245 408 282 c 128,-1,18
 370 319 370 319 316 349 c 128,-1,19
 262 379 262 379 208 410.5 c 128,-1,20
 154 442 154 442 116 487.5 c 128,-1,21
 78 533 78 533 78 586 c 0,22,23
 78 659 78 659 142 712 c 128,-1,24
 206 765 206 765 293 765 c 128,-1,25
 380 765 380 765 441 735.5 c 128,-1,26
 502 706 502 706 502 668 c 0,27,28
 502 649 502 649 490 638 c 128,-1,29
 478 627 478 627 458 627 c 128,-1,30
 438 627 438 627 419 640 c 128,-1,31
 400 653 400 653 372 666 c 128,-1,32
 344 679 344 679 297 679 c 128,-1,33
 250 679 250 679 212 653 c 128,-1,34
 174 627 174 627 174 589 c 128,-1,35
 174 551 174 551 212 518.5 c 128,-1,36
 250 486 250 486 304 456 c 128,-1,37
 358 426 358 426 412 393 c 128,-1,38
 466 360 466 360 504 311 c 128,-1,39
 542 262 542 262 542 204 c 0,0,1
EndSplineSet
EndChar

StartChar: T
Encoding: 84 84 55
Width: 563
Flags: W
LayerCount: 2
Fore
SplineSet
97 756 m 2,0,-1
 286 750 l 1,1,-1
 469 756 l 2,2,3
 496 756 496 756 512.5 743.5 c 128,-1,4
 529 731 529 731 529 709 c 128,-1,5
 529 687 529 687 512.5 674.5 c 128,-1,6
 496 662 496 662 469 662 c 1,7,-1
 335 668 l 1,8,9
 331 571 331 571 331 372 c 1,10,-1
 337 48 l 2,11,12
 337 22 337 22 323 6 c 128,-1,13
 309 -10 309 -10 286.5 -10 c 128,-1,14
 264 -10 264 -10 249.5 6 c 128,-1,15
 235 22 235 22 235 48 c 2,16,-1
 241 372 l 1,17,18
 241 546 241 546 236 668 c 1,19,-1
 97 662 l 1,20,21
 70 662 70 662 53.5 674.5 c 128,-1,22
 37 687 37 687 37 709 c 128,-1,23
 37 731 37 731 53.5 743.5 c 128,-1,24
 70 756 70 756 97 756 c 2,0,-1
EndSplineSet
EndChar

StartChar: U
Encoding: 85 85 56
Width: 733
Flags: W
LayerCount: 2
Fore
SplineSet
366 -15 m 128,-1,1
 242 -15 242 -15 176 62 c 128,-1,2
 110 139 110 139 108 249 c 0,3,4
 107 301 107 301 107 378 c 128,-1,5
 107 455 107 455 105.5 525.5 c 128,-1,6
 104 596 104 596 102.5 638.5 c 128,-1,7
 101 681 101 681 101 689 c 0,8,9
 101 760 101 760 152 760 c 128,-1,10
 203 760 203 760 203 689 c 0,11,12
 203 681 203 681 202 626 c 0,13,14
 197 459 197 459 197 365.5 c 128,-1,15
 197 272 197 272 204 230 c 128,-1,16
 211 188 211 188 228 150 c 0,17,18
 264 72 264 72 366 72 c 0,19,20
 512 72 512 72 532 249 c 0,21,22
 536 284 536 284 536 343.5 c 128,-1,23
 536 403 536 403 534.5 486.5 c 128,-1,24
 533 570 533 570 531.5 625.5 c 128,-1,25
 530 681 530 681 530 689 c 0,26,27
 530 760 530 760 581 760 c 128,-1,28
 632 760 632 760 632 689 c 0,29,30
 632 681 632 681 630 638 c 0,31,32
 626 511 626 511 626 406 c 128,-1,33
 626 301 626 301 625 249 c 0,34,35
 623 138 623 138 556.5 61.5 c 128,-1,0
 490 -15 490 -15 366 -15 c 128,-1,1
EndSplineSet
EndChar

StartChar: V
Encoding: 86 86 57
Width: 663
Flags: W
LayerCount: 2
Fore
SplineSet
392 40 m 0,0,1
 375 -10 375 -10 331.5 -10 c 128,-1,2
 288 -10 288 -10 271 40 c 0,3,4
 125 450 125 450 115.5 479.5 c 128,-1,5
 106 509 106 509 82.5 573 c 128,-1,6
 59 637 59 637 47 669.5 c 128,-1,7
 35 702 35 702 35 716 c 128,-1,8
 35 730 35 730 47.5 745 c 128,-1,9
 60 760 60 760 82 760 c 0,10,11
 120 760 120 760 135 715 c 0,12,13
 325 133 325 133 332 133 c 0,14,15
 343 133 343 133 533 715 c 0,16,17
 548 760 548 760 581 760 c 0,18,19
 603 760 603 760 615.5 745 c 128,-1,20
 628 730 628 730 628 716 c 128,-1,21
 628 702 628 702 616 670 c 0,22,23
 559 515 559 515 548.5 482.5 c 128,-1,24
 538 450 538 450 392 40 c 0,0,1
EndSplineSet
EndChar

StartChar: W
Encoding: 87 87 58
Width: 949
Flags: W
LayerCount: 2
Fore
SplineSet
709 38 m 1,0,1
 692 -10 692 -10 648 -10 c 128,-1,2
 604 -10 604 -10 588 35 c 0,3,4
 575 71 575 71 525.5 237.5 c 128,-1,5
 476 404 476 404 474 404 c 128,-1,6
 472 404 472 404 450.5 331 c 128,-1,7
 429 258 429 258 402 164 c 128,-1,8
 375 70 375 70 365 38 c 0,9,10
 350 -10 350 -10 306 -10 c 128,-1,11
 262 -10 262 -10 245 35 c 0,12,13
 240 48 240 48 222 106.5 c 128,-1,14
 204 165 204 165 178.5 246 c 128,-1,15
 153 327 153 327 141 364.5 c 128,-1,16
 129 402 129 402 112 453.5 c 128,-1,17
 95 505 95 505 84 538.5 c 128,-1,18
 73 572 73 572 61 611 c 0,19,20
 37 689 37 689 37 711 c 128,-1,21
 37 733 37 733 50 746.5 c 128,-1,22
 63 760 63 760 81 760 c 0,23,24
 121 760 121 760 135 715 c 0,25,26
 197 518 197 518 253 318.5 c 128,-1,27
 309 119 309 119 310 119 c 0,28,29
 314 119 314 119 359.5 276 c 128,-1,30
 405 433 405 433 419 495 c 0,31,32
 424 517 424 517 439.5 533.5 c 128,-1,33
 455 550 455 550 477 550 c 0,34,35
 522 550 522 550 536 499 c 0,36,37
 647 119 647 119 655 119 c 1,38,-1
 690 247 l 2,39,40
 725 375 725 375 766 527 c 128,-1,41
 807 679 807 679 817 715 c 0,42,43
 829 760 829 760 862 760 c 0,44,45
 885 760 885 760 897 745.5 c 128,-1,46
 909 731 909 731 909 709 c 128,-1,47
 909 687 909 687 862 533 c 128,-1,48
 815 379 815 379 784 280 c 0,49,50
 727 93 727 93 709 38 c 1,0,1
EndSplineSet
EndChar

StartChar: X
Encoding: 88 88 59
Width: 665
Flags: W
LayerCount: 2
Fore
SplineSet
323 311 m 1,0,1
 302 278 302 278 255 201.5 c 128,-1,2
 208 125 208 125 197.5 109.5 c 128,-1,3
 187 94 187 94 179 80.5 c 128,-1,4
 171 67 171 67 166.5 61 c 128,-1,5
 162 55 162 55 155 44 c 128,-1,6
 148 33 148 33 144 28 c 2,7,-1
 134 16 l 1,8,9
 118 -5 118 -5 109 -7.5 c 128,-1,10
 100 -10 100 -10 87 -10 c 128,-1,11
 74 -10 74 -10 62 2 c 128,-1,12
 50 14 50 14 50 28 c 128,-1,13
 50 42 50 42 56.5 56.5 c 128,-1,14
 63 71 63 71 81.5 99.5 c 128,-1,15
 100 128 100 128 122 160 c 0,16,17
 213 294 213 294 273 387 c 1,18,19
 183 547 183 547 125 636 c 0,20,21
 101 672 101 672 69 672 c 0,22,23
 51 672 51 672 47 678 c 128,-1,24
 43 684 43 684 43 695 c 0,25,26
 43 726 43 726 61.5 744.5 c 128,-1,27
 80 763 80 763 105 763 c 128,-1,28
 130 763 130 763 149.5 750 c 128,-1,29
 169 737 169 737 196 698 c 0,30,31
 206 682 206 682 331 465 c 1,32,33
 356 505 356 505 424 617.5 c 128,-1,34
 492 730 492 730 506.5 745 c 128,-1,35
 521 760 521 760 539 760 c 128,-1,36
 557 760 557 760 568.5 747.5 c 128,-1,37
 580 735 580 735 580 716 c 0,38,39
 580 695 580 695 420 450 c 0,40,41
 400 418 400 418 381 388 c 1,42,43
 519 168 519 168 556.5 123 c 128,-1,44
 594 78 594 78 621 78 c 0,45,46
 636 78 636 78 639.5 72.5 c 128,-1,47
 643 67 643 67 643 57 c 0,48,49
 643 26 643 26 624.5 6.5 c 128,-1,50
 606 -13 606 -13 580 -13 c 0,51,52
 540 -13 540 -13 490 53 c 0,53,54
 463 89 463 89 323 311 c 1,0,1
EndSplineSet
EndChar

StartChar: Y
Encoding: 89 89 60
Width: 597
Flags: W
LayerCount: 2
Fore
SplineSet
342 303 m 1,0,1
 342 223 342 223 344 142 c 2,2,-1
 347 61 l 1,3,4
 347 -10 347 -10 296 -10 c 128,-1,5
 245 -10 245 -10 245 61 c 1,6,-1
 248 144 l 2,7,8
 250 227 250 227 250 304 c 1,9,10
 51 646 51 646 38 673 c 128,-1,11
 25 700 25 700 25 717 c 128,-1,12
 25 734 25 734 37 747 c 128,-1,13
 49 760 49 760 71.5 760 c 128,-1,14
 94 760 94 760 110 738.5 c 128,-1,15
 126 717 126 717 184.5 603 c 128,-1,16
 243 489 243 489 301 401 c 1,17,18
 325 437 325 437 385.5 549 c 128,-1,19
 446 661 446 661 455.5 677.5 c 128,-1,20
 465 694 465 694 469 701.5 c 128,-1,21
 473 709 473 709 480.5 721 c 128,-1,22
 488 733 488 733 492.5 738.5 c 128,-1,23
 497 744 497 744 503 750 c 0,24,25
 513 760 513 760 531 760 c 128,-1,26
 549 760 549 760 560.5 748 c 128,-1,27
 572 736 572 736 572 719 c 128,-1,28
 572 702 572 702 557.5 674.5 c 128,-1,29
 543 647 543 647 494.5 564 c 128,-1,30
 446 481 446 481 432 457.5 c 128,-1,31
 418 434 418 434 392.5 389.5 c 128,-1,32
 367 345 367 345 342 303 c 1,0,1
EndSplineSet
EndChar

StartChar: Z
Encoding: 90 90 61
Width: 608
Flags: W
LayerCount: 2
Fore
SplineSet
330 0 m 1,0,-1
 101 -5 l 1,1,2
 44 -5 44 -5 44 38 c 0,3,4
 44 58 44 58 68.5 99 c 128,-1,5
 93 140 93 140 156 235.5 c 128,-1,6
 219 331 219 331 257.5 395 c 128,-1,7
 296 459 296 459 332 516 c 0,8,9
 406 637 406 637 420 664 c 1,10,11
 375 668 375 668 311 668 c 128,-1,12
 247 668 247 668 185 664.5 c 128,-1,13
 123 661 123 661 105.5 661 c 128,-1,14
 88 661 88 661 71.5 673.5 c 128,-1,15
 55 686 55 686 55 708 c 128,-1,16
 55 730 55 730 71.5 742.5 c 128,-1,17
 88 755 88 755 115 755 c 2,18,-1
 290 750 l 1,19,-1
 493 755 l 1,20,21
 550 755 550 755 550 714 c 0,22,23
 550 693 550 693 529 657 c 128,-1,24
 508 621 508 621 451 534.5 c 128,-1,25
 394 448 394 448 360 390.5 c 128,-1,26
 326 333 326 333 272 246.5 c 128,-1,27
 218 160 218 160 175 87 c 1,28,29
 232 82 232 82 302.5 82 c 128,-1,30
 373 82 373 82 435 85.5 c 128,-1,31
 497 89 497 89 514.5 89 c 128,-1,32
 532 89 532 89 548.5 76.5 c 128,-1,33
 565 64 565 64 565 42 c 128,-1,34
 565 20 565 20 548.5 7.5 c 128,-1,35
 532 -5 532 -5 505 -5 c 2,36,-1
 330 0 l 1,0,-1
EndSplineSet
EndChar

StartChar: bracketleft
Encoding: 91 91 62
Width: 428
Flags: W
LayerCount: 2
Fore
SplineSet
188 0 m 1,0,-1
 332 3 l 2,1,2
 359 3 359 3 375.5 -9 c 128,-1,3
 392 -21 392 -21 392 -41.5 c 128,-1,4
 392 -62 392 -62 375.5 -74 c 128,-1,5
 359 -86 359 -86 332 -86 c 2,6,-1
 238 -83 l 1,7,-1
 141 -87 l 2,8,9
 117 -87 117 -87 102 -74.5 c 128,-1,10
 87 -62 87 -62 87 -46 c 128,-1,11
 87 -30 87 -30 90 104.5 c 128,-1,12
 93 239 93 239 93 375 c 128,-1,13
 93 511 93 511 89.5 640.5 c 128,-1,14
 86 770 86 770 86 790 c 128,-1,15
 86 810 86 810 101 824.5 c 128,-1,16
 116 839 116 839 141 839 c 1,17,-1
 238 835 l 1,18,-1
 332 838 l 2,19,20
 358 838 358 838 375 825.5 c 128,-1,21
 392 813 392 813 392 793 c 128,-1,22
 392 773 392 773 375 760.5 c 128,-1,23
 358 748 358 748 332 748 c 0,24,25
 327 748 327 748 309 749 c 0,26,27
 273 751 273 751 188 751 c 1,28,29
 188 748 188 748 185 618.5 c 128,-1,30
 182 489 182 489 182 376.5 c 128,-1,31
 182 264 182 264 185 136 c 128,-1,32
 188 8 188 8 188 0 c 1,0,-1
EndSplineSet
EndChar

StartChar: backslash
Encoding: 92 92 63
Width: 423
Flags: W
LayerCount: 2
Fore
SplineSet
78.5 820 m 128,-1,1
 90 835 90 835 110 835 c 128,-1,2
 130 835 130 835 143.5 822 c 128,-1,3
 157 809 157 809 161 787 c 0,4,5
 239 439 239 439 286 256 c 0,6,7
 357 -20 357 -20 357 -38 c 128,-1,8
 357 -56 357 -56 344.5 -70 c 128,-1,9
 332 -84 332 -84 310 -84 c 0,10,11
 270 -84 270 -84 258 -20 c 0,12,13
 220 171 220 171 158 416 c 0,14,15
 67 772 67 772 67 788.5 c 128,-1,0
 67 805 67 805 78.5 820 c 128,-1,1
EndSplineSet
EndChar

StartChar: bracketright
Encoding: 93 93 64
Width: 428
Flags: W
LayerCount: 2
Fore
SplineSet
240 752 m 1,0,-1
 96 749 l 2,1,2
 69 749 69 749 52.5 761 c 128,-1,3
 36 773 36 773 36 793.5 c 128,-1,4
 36 814 36 814 52.5 826 c 128,-1,5
 69 838 69 838 96 838 c 2,6,-1
 190 835 l 1,7,-1
 287 839 l 2,8,9
 311 839 311 839 326 826.5 c 128,-1,10
 341 814 341 814 341 798 c 128,-1,11
 341 782 341 782 338 647.5 c 128,-1,12
 335 513 335 513 335 377 c 128,-1,13
 335 241 335 241 338.5 111.5 c 128,-1,14
 342 -18 342 -18 342 -38 c 128,-1,15
 342 -58 342 -58 327 -72.5 c 128,-1,16
 312 -87 312 -87 287 -87 c 1,17,-1
 190 -83 l 1,18,-1
 96 -86 l 2,19,20
 70 -86 70 -86 53 -73.5 c 128,-1,21
 36 -61 36 -61 36 -41 c 128,-1,22
 36 -21 36 -21 53 -8.5 c 128,-1,23
 70 4 70 4 96 4 c 2,24,-1
 240 1 l 1,25,26
 240 4 240 4 243 133.5 c 128,-1,27
 246 263 246 263 246 375.5 c 128,-1,28
 246 488 246 488 243 616 c 128,-1,29
 240 744 240 744 240 752 c 1,0,-1
EndSplineSet
EndChar

StartChar: asciicircum
Encoding: 94 94 65
Width: 581
Flags: W
LayerCount: 2
Fore
SplineSet
74 458 m 128,-1,1
 96 496 96 496 157 594.5 c 128,-1,2
 218 693 218 693 238.5 726.5 c 128,-1,3
 259 760 259 760 291.5 760 c 128,-1,4
 324 760 324 760 345 725 c 0,5,6
 510 459 510 459 520.5 437 c 128,-1,7
 531 415 531 415 531 401.5 c 128,-1,8
 531 388 531 388 519 376 c 128,-1,9
 507 364 507 364 492 364 c 0,10,11
 462 364 462 364 449 391 c 1,12,13
 412 459 412 459 354 559.5 c 128,-1,14
 296 660 296 660 291.5 660 c 128,-1,15
 287 660 287 660 229.5 560.5 c 128,-1,16
 172 461 172 461 134 391 c 0,17,18
 120 364 120 364 98 364 c 128,-1,19
 76 364 76 364 64 376 c 128,-1,20
 52 388 52 388 52 404 c 128,-1,0
 52 420 52 420 74 458 c 128,-1,1
EndSplineSet
EndChar

StartChar: underscore
Encoding: 95 95 66
Width: 616
Flags: W
LayerCount: 2
Fore
SplineSet
308 -86 m 1,0,-1
 109 -89 l 2,1,2
 87 -89 87 -89 73.5 -77 c 128,-1,3
 60 -65 60 -65 60 -47 c 128,-1,4
 60 -29 60 -29 73.5 -17 c 128,-1,5
 87 -5 87 -5 109 -5 c 2,6,-1
 308 -8 l 1,7,-1
 507 -5 l 2,8,9
 529 -5 529 -5 542.5 -17 c 128,-1,10
 556 -29 556 -29 556 -47 c 128,-1,11
 556 -65 556 -65 542.5 -77 c 128,-1,12
 529 -89 529 -89 507 -89 c 2,13,-1
 308 -86 l 1,0,-1
EndSplineSet
EndChar

StartChar: grave
Encoding: 96 96 67
Width: 320
Flags: W
LayerCount: 2
Fore
SplineSet
80 696 m 0,0,1
 80 713 80 713 91.5 726.5 c 128,-1,2
 103 740 103 740 120.5 740 c 128,-1,3
 138 740 138 740 150.5 730.5 c 128,-1,4
 163 721 163 721 168.5 711.5 c 128,-1,5
 174 702 174 702 183 682 c 128,-1,6
 192 662 192 662 216 632.5 c 128,-1,7
 240 603 240 603 240 591 c 128,-1,8
 240 579 240 579 231.5 571 c 128,-1,9
 223 563 223 563 207 563 c 0,10,11
 175 563 175 563 127.5 607.5 c 128,-1,12
 80 652 80 652 80 696 c 0,0,1
EndSplineSet
EndChar

StartChar: a
Encoding: 97 97 68
Width: 800
Flags: W
LayerCount: 2
Fore
SplineSet
564 355 m 1,0,-1
 558 600 l 1,1,2
 473 678 473 678 376 678 c 0,3,4
 292 678 292 678 227.5 588 c 128,-1,5
 163 498 163 498 163 370.5 c 128,-1,6
 163 243 163 243 205 157.5 c 128,-1,7
 247 72 247 72 325 72 c 128,-1,8
 403 72 403 72 466 151.5 c 128,-1,9
 529 231 529 231 564 355 c 1,0,-1
643 367 m 1,10,11
 643 255 643 255 657.5 177.5 c 128,-1,12
 672 100 672 100 693 90 c 0,13,14
 701 86 701 86 712 84.5 c 128,-1,15
 723 83 723 83 728 80 c 128,-1,16
 733 77 733 77 733 69 c 0,17,18
 733 33 733 33 713 10 c 128,-1,19
 693 -13 693 -13 660 -13 c 0,20,21
 616 -13 616 -13 594 37 c 128,-1,22
 572 87 572 87 572 165 c 1,23,24
 538 89 538 89 471.5 37 c 128,-1,25
 405 -15 405 -15 320 -15 c 0,26,27
 257 -15 257 -15 207 19.5 c 128,-1,28
 157 54 157 54 128 110 c 0,29,30
 67 225 67 225 67 363 c 0,31,32
 67 468 67 468 104.5 559.5 c 128,-1,33
 142 651 142 651 214 708 c 128,-1,34
 286 765 286 765 383 765 c 128,-1,35
 480 765 480 765 556 696 c 1,36,37
 556 765 556 765 607 765 c 0,38,39
 670 765 670 765 670 664 c 0,40,41
 670 589 670 589 643 367 c 1,10,11
EndSplineSet
EndChar

StartChar: b
Encoding: 98 98 69
Width: 695
Flags: W
LayerCount: 2
Fore
SplineSet
311 679 m 0,0,1
 264 679 264 679 216 667 c 1,2,3
 213 615 213 615 213 443 c 1,4,5
 233 448 233 448 280.5 448 c 128,-1,6
 328 448 328 448 365 440 c 1,7,8
 402 442 402 442 447 478 c 128,-1,9
 492 514 492 514 492 573 c 0,10,11
 492 614 492 614 448 646.5 c 128,-1,12
 404 679 404 679 311 679 c 0,0,1
311 72 m 0,13,14
 416 72 416 72 478 109.5 c 128,-1,15
 540 147 540 147 540 218 c 0,16,17
 540 274 540 274 489 311.5 c 128,-1,18
 438 349 438 349 379 359 c 1,19,20
 318 345 318 345 278 345 c 128,-1,21
 238 345 238 345 213 349 c 1,22,23
 213 159 213 159 216 78 c 1,24,25
 241 72 241 72 311 72 c 0,13,14
637 212 m 0,26,27
 637 103 637 103 549 44 c 128,-1,28
 461 -15 461 -15 314 -15 c 0,29,30
 206 -15 206 -15 136 8 c 128,-1,31
 66 31 66 31 66 68.5 c 128,-1,32
 66 106 66 106 119 106 c 1,33,34
 122 209 122 209 122 381 c 128,-1,35
 122 553 122 553 118 626 c 1,36,37
 96 626 96 626 85.5 640 c 128,-1,38
 75 654 75 654 75 672 c 0,39,40
 75 703 75 703 123 726 c 0,41,42
 207 765 207 765 311 765 c 0,43,44
 382 765 382 765 436.5 746.5 c 128,-1,45
 491 728 491 728 522 698 c 0,46,47
 583 639 583 639 583 574 c 0,48,49
 583 468 583 468 486 409 c 1,50,51
 552 385 552 385 594.5 330.5 c 128,-1,52
 637 276 637 276 637 212 c 0,26,27
EndSplineSet
EndChar

StartChar: c
Encoding: 99 99 70
Width: 698
Flags: W
LayerCount: 2
Fore
SplineSet
650 106 m 0,0,1
 650 70 650 70 575.5 27.5 c 128,-1,2
 501 -15 501 -15 400 -15 c 0,3,4
 257 -15 257 -15 162 99 c 128,-1,5
 67 213 67 213 67 376 c 128,-1,6
 67 539 67 539 162.5 652 c 128,-1,7
 258 765 258 765 402 765 c 0,8,9
 490 765 490 765 559.5 732 c 128,-1,10
 629 699 629 699 629 658 c 0,11,12
 629 638 629 638 617 626 c 128,-1,13
 605 614 605 614 584.5 614 c 128,-1,14
 564 614 564 614 530 637 c 1,15,16
 466 678 466 678 402 678 c 0,17,18
 298 678 298 678 230.5 588.5 c 128,-1,19
 163 499 163 499 163 376.5 c 128,-1,20
 163 254 163 254 230.5 163 c 128,-1,21
 298 72 298 72 396 72 c 128,-1,22
 494 72 494 72 575 121 c 1,23,24
 608 139 608 139 619.5 139 c 128,-1,25
 631 139 631 139 640.5 129.5 c 128,-1,26
 650 120 650 120 650 106 c 0,0,1
EndSplineSet
EndChar

StartChar: d
Encoding: 100 100 71
Width: 749
Flags: W
LayerCount: 2
Fore
SplineSet
568 265 m 128,-1,1
 586 319 586 319 586 387 c 128,-1,2
 586 455 586 455 555 522 c 128,-1,3
 524 589 524 589 457 633.5 c 128,-1,4
 390 678 390 678 298 678 c 0,5,6
 266 678 266 678 217 671 c 1,7,8
 214 609 214 609 214 390.5 c 128,-1,9
 214 172 214 172 219 75 c 1,10,11
 243 72 243 72 309 72 c 128,-1,12
 375 72 375 72 429 98 c 128,-1,13
 483 124 483 124 516.5 167.5 c 128,-1,0
 550 211 550 211 568 265 c 128,-1,1
123 376 m 1,14,-1
 118 646 l 1,15,16
 71 651 71 651 71 690 c 0,17,18
 71 709 71 709 94 724 c 128,-1,19
 117 739 117 739 152 748 c 0,20,21
 221 764 221 764 306 764 c 128,-1,22
 391 764 391 764 465.5 731 c 128,-1,23
 540 698 540 698 586 642 c 0,24,25
 682 527 682 527 682 372 c 0,26,27
 682 221 682 221 590 108 c 0,28,29
 545 52 545 52 473 18.5 c 128,-1,30
 401 -15 401 -15 303 -15 c 128,-1,31
 205 -15 205 -15 136 8 c 128,-1,32
 67 31 67 31 67 68 c 128,-1,33
 67 105 67 105 120 105 c 1,34,-1
 123 376 l 1,14,-1
EndSplineSet
EndChar

StartChar: e
Encoding: 101 101 72
Width: 735
Flags: W
LayerCount: 2
Fore
SplineSet
615.5 704 m 128,-1,1
 687 643 687 643 687 557 c 128,-1,2
 687 471 687 471 642 416 c 0,3,4
 560 315 560 315 385 315 c 0,5,6
 314 315 314 315 206 335 c 1,7,8
 215 227 215 227 277.5 149.5 c 128,-1,9
 340 72 340 72 424 72 c 0,10,11
 472 72 472 72 513 85 c 128,-1,12
 554 98 554 98 575.5 113.5 c 128,-1,13
 597 129 597 129 617 142 c 128,-1,14
 637 155 637 155 652 155 c 128,-1,15
 667 155 667 155 677 145 c 128,-1,16
 687 135 687 135 687 116 c 128,-1,17
 687 97 687 97 652 66 c 128,-1,18
 617 35 617 35 555.5 10 c 128,-1,19
 494 -15 494 -15 425.5 -15 c 128,-1,20
 357 -15 357 -15 296 16 c 128,-1,21
 235 47 235 47 196 99 c 0,22,23
 115 207 115 207 109 352 c 1,24,25
 37 374 37 374 37 423 c 0,26,27
 37 443 37 443 48.5 454.5 c 128,-1,28
 60 466 60 466 75 466 c 128,-1,29
 90 466 90 466 117 454 c 1,30,31
 148 588 148 588 233.5 676.5 c 128,-1,32
 319 765 319 765 443 765 c 0,33,0
 544 765 544 765 615.5 704 c 128,-1,1
591 553 m 0,34,35
 591 600 591 600 552.5 639 c 128,-1,36
 514 678 514 678 447 678 c 128,-1,37
 380 678 380 678 328 638 c 0,38,39
 235 565 235 565 208 421 c 1,40,41
 284 400 284 400 379.5 400 c 128,-1,42
 475 400 475 400 533 440 c 128,-1,43
 591 480 591 480 591 553 c 0,34,35
EndSplineSet
EndChar

StartChar: f
Encoding: 102 102 73
Width: 606
Flags: W
LayerCount: 2
Fore
SplineSet
279 440 m 1,0,-1
 449 445 l 2,1,2
 476 445 476 445 492 432.5 c 128,-1,3
 508 420 508 420 508 399 c 0,4,5
 508 355 508 355 449 355 c 1,6,-1
 279 359 l 1,7,8
 235 359 235 359 212 358 c 1,9,10
 212 227 212 227 215 148 c 128,-1,11
 218 69 218 69 218 61 c 0,12,13
 218 -10 218 -10 167 -10 c 128,-1,14
 116 -10 116 -10 116 61 c 0,15,16
 116 69 116 69 118 108 c 0,17,18
 122 225 122 225 122 355 c 1,19,20
 55 355 55 355 55 399 c 0,21,22
 55 422 55 422 74 433.5 c 128,-1,23
 93 445 93 445 122 445 c 1,24,25
 120 632 120 632 115 670 c 1,26,27
 103 689 103 689 103 710 c 0,28,29
 103 755 103 755 165 755 c 1,30,-1
 350 750 l 1,31,-1
 510 756 l 1,32,33
 537 756 537 756 553.5 743.5 c 128,-1,34
 570 731 570 731 570 709 c 128,-1,35
 570 687 570 687 553.5 674.5 c 128,-1,36
 537 662 537 662 510 662 c 1,37,-1
 350 668 l 1,38,39
 272 668 272 668 212 663 c 1,40,-1
 212 441 l 1,41,42
 231 440 231 440 279 440 c 1,0,-1
EndSplineSet
EndChar

StartChar: g
Encoding: 103 103 74
Width: 762
Flags: W
LayerCount: 2
Fore
SplineSet
521 398 m 1,0,-1
 647 404 l 1,1,2
 674 404 674 404 690.5 391 c 128,-1,3
 707 378 707 378 707 353 c 0,4,5
 707 183 707 183 621.5 84 c 128,-1,6
 536 -15 536 -15 396.5 -15 c 128,-1,7
 257 -15 257 -15 162 99 c 128,-1,8
 67 213 67 213 67 376 c 128,-1,9
 67 539 67 539 165 652 c 128,-1,10
 263 765 263 765 413 765 c 0,11,12
 506 765 506 765 582.5 728 c 128,-1,13
 659 691 659 691 659 648 c 0,14,15
 659 629 659 629 647.5 618 c 128,-1,16
 636 607 636 607 613.5 607 c 128,-1,17
 591 607 591 607 553 634 c 0,18,19
 492 678 492 678 413 678 c 0,20,21
 305 678 305 678 234 589 c 128,-1,22
 163 500 163 500 163 377.5 c 128,-1,23
 163 255 163 255 231 163.5 c 128,-1,24
 299 72 299 72 402 72 c 0,25,26
 487 72 487 72 544 135 c 128,-1,27
 601 198 601 198 605 314 c 1,28,29
 572 317 572 317 521 317 c 1,30,-1
 386 312 l 2,31,32
 359 312 359 312 344 324 c 128,-1,33
 329 336 329 336 329 356.5 c 128,-1,34
 329 377 329 377 344 390 c 128,-1,35
 359 403 359 403 386 403 c 2,36,-1
 521 398 l 1,0,-1
EndSplineSet
EndChar

StartChar: h
Encoding: 104 104 75
Width: 758
Flags: W
LayerCount: 2
Fore
SplineSet
548 353 m 1,0,-1
 376 355 l 1,1,2
 260 355 260 355 208 354 c 1,3,4
 208 275 208 275 211 170.5 c 128,-1,5
 214 66 214 66 214 61 c 0,6,7
 214 -10 214 -10 163 -10 c 128,-1,8
 112 -10 112 -10 112 61 c 0,9,10
 112 66 112 66 115 169 c 128,-1,11
 118 272 118 272 118 351 c 1,12,13
 54 351 54 351 54 396 c 0,14,15
 54 417 54 417 70.5 429.5 c 128,-1,16
 87 442 87 442 118 442 c 1,17,18
 118 521 118 521 115 602.5 c 128,-1,19
 112 684 112 684 112 689 c 0,20,21
 112 760 112 760 163 760 c 128,-1,22
 214 760 214 760 214 689 c 0,23,24
 214 684 214 684 211 601 c 128,-1,25
 208 518 208 518 208 439 c 1,26,27
 306 437 306 437 403 437 c 128,-1,28
 500 437 500 437 548 439 c 1,29,30
 548 518 548 518 545.5 601 c 128,-1,31
 543 684 543 684 543 689 c 0,32,33
 543 760 543 760 594 760 c 128,-1,34
 645 760 645 760 645 689 c 0,35,36
 645 684 645 684 642 603 c 128,-1,37
 639 522 639 522 639 443 c 1,38,39
 669 443 669 443 686.5 430 c 128,-1,40
 704 417 704 417 704 396 c 128,-1,41
 704 375 704 375 686.5 362.5 c 128,-1,42
 669 350 669 350 639 350 c 1,43,44
 639 271 639 271 642 168.5 c 128,-1,45
 645 66 645 66 645 61 c 0,46,47
 645 -10 645 -10 594 -10 c 128,-1,48
 543 -10 543 -10 543 61 c 1,49,-1
 548 353 l 1,0,-1
EndSplineSet
EndChar

StartChar: i
Encoding: 105 105 76
Width: 476
Flags: W
LayerCount: 2
Fore
SplineSet
369 661 m 1,0,-1
 287 665 l 1,1,2
 283 568 283 568 283 386.5 c 128,-1,3
 283 205 283 205 288 83 c 1,4,-1
 369 87 l 1,5,6
 396 87 396 87 412.5 74.5 c 128,-1,7
 429 62 429 62 429 40.5 c 128,-1,8
 429 19 429 19 412.5 6.5 c 128,-1,9
 396 -6 396 -6 369 -6 c 1,10,-1
 238 0 l 1,11,-1
 107 -6 l 1,12,13
 80 -6 80 -6 63.5 6.5 c 128,-1,14
 47 19 47 19 47 40.5 c 128,-1,15
 47 62 47 62 63.5 74.5 c 128,-1,16
 80 87 80 87 107 87 c 1,17,-1
 188 82 l 1,18,19
 193 204 193 204 193 386 c 128,-1,20
 193 568 193 568 189 665 c 1,21,-1
 107 661 l 1,22,23
 80 661 80 661 63.5 674 c 128,-1,24
 47 687 47 687 47 709 c 128,-1,25
 47 731 47 731 63.5 743.5 c 128,-1,26
 80 756 80 756 107 756 c 1,27,-1
 238 750 l 1,28,-1
 369 756 l 1,29,30
 396 756 396 756 412.5 743.5 c 128,-1,31
 429 731 429 731 429 709 c 128,-1,32
 429 687 429 687 412.5 674 c 128,-1,33
 396 661 396 661 369 661 c 1,0,-1
EndSplineSet
EndChar

StartChar: j
Encoding: 106 106 77
Width: 563
Flags: W
LayerCount: 2
Fore
SplineSet
313 750 m 1,0,-1
 452 756 l 1,1,2
 479 756 479 756 495.5 743.5 c 128,-1,3
 512 731 512 731 512 709.5 c 128,-1,4
 512 688 512 688 493 675 c 128,-1,5
 474 662 474 662 444 662 c 1,6,7
 443 600 443 600 443 257 c 0,8,9
 443 184 443 184 423.5 129 c 128,-1,10
 404 74 404 74 371 44 c 0,11,12
 306 -15 306 -15 225 -15 c 128,-1,13
 144 -15 144 -15 92.5 19.5 c 128,-1,14
 41 54 41 54 41 87 c 0,15,16
 41 106 41 106 52.5 117.5 c 128,-1,17
 64 129 64 129 81 129 c 128,-1,18
 98 129 98 129 114.5 115 c 128,-1,19
 131 101 131 101 157 86.5 c 128,-1,20
 183 72 183 72 222 72 c 0,21,22
 275 72 275 72 314 121.5 c 128,-1,23
 353 171 353 171 353 278 c 2,24,-1
 350 667 l 1,25,26
 291 667 291 667 243 664 c 128,-1,27
 195 661 195 661 176 661 c 128,-1,28
 157 661 157 661 140.5 673.5 c 128,-1,29
 124 686 124 686 124 708 c 128,-1,30
 124 730 124 730 140.5 742.5 c 128,-1,31
 157 755 157 755 184 755 c 1,32,-1
 313 750 l 1,0,-1
EndSplineSet
EndChar

StartChar: k
Encoding: 107 107 78
Width: 658
Flags: W
LayerCount: 2
Fore
SplineSet
203 337 m 1,0,-1
 208 47 l 2,1,2
 208 23 208 23 193 6.5 c 128,-1,3
 178 -10 178 -10 157.5 -10 c 128,-1,4
 137 -10 137 -10 122.5 6.5 c 128,-1,5
 108 23 108 23 108 47 c 2,6,-1
 112 372 l 1,7,-1
 108 702 l 2,8,9
 108 726 108 726 122.5 742.5 c 128,-1,10
 137 759 137 759 157.5 759 c 128,-1,11
 178 759 178 759 193 742.5 c 128,-1,12
 208 726 208 726 208 702 c 2,13,-1
 206 612 l 2,14,15
 203 522 203 522 203 434 c 1,16,17
 227 442 227 442 272 442 c 1,18,-1
 320 436 l 1,19,20
 368 476 368 476 409.5 556 c 128,-1,21
 451 636 451 636 468 711 c 1,22,23
 478 760 478 760 516 760 c 0,24,25
 534 760 534 760 546 748 c 128,-1,26
 558 736 558 736 558 717 c 0,27,28
 558 651 558 651 506.5 549 c 128,-1,29
 455 447 455 447 395 381 c 1,30,31
 429 314 429 314 476.5 233 c 128,-1,32
 524 152 524 152 554 113.5 c 128,-1,33
 584 75 584 75 616 75 c 1,34,-1
 627 76 l 2,35,36
 634 76 634 76 634 54 c 128,-1,37
 634 32 634 32 616 11 c 128,-1,38
 598 -10 598 -10 570.5 -10 c 128,-1,39
 543 -10 543 -10 516 14 c 0,40,41
 463 63 463 63 310 341 c 1,42,43
 298 341 298 341 279 337.5 c 128,-1,44
 260 334 260 334 238 334 c 128,-1,45
 216 334 216 334 203 337 c 1,0,-1
EndSplineSet
EndChar

StartChar: l
Encoding: 108 108 79
Width: 584
Flags: W
LayerCount: 2
Fore
SplineSet
110 54 m 2,0,-1
 114 380 l 1,1,2
 114 511 114 511 111 596 c 128,-1,3
 108 681 108 681 108 689 c 0,4,5
 108 760 108 760 159 760 c 128,-1,6
 210 760 210 760 210 689 c 0,7,8
 210 681 210 681 208 638 c 0,9,10
 204 511 204 511 204 405.5 c 128,-1,11
 204 300 204 300 205 240.5 c 128,-1,12
 206 181 206 181 208 139.5 c 128,-1,13
 210 98 210 98 210 87 c 1,14,15
 258 82 258 82 314 82 c 128,-1,16
 370 82 370 82 423 85.5 c 128,-1,17
 476 89 476 89 492.5 89 c 128,-1,18
 509 89 509 89 525.5 76.5 c 128,-1,19
 542 64 542 64 542 42 c 128,-1,20
 542 20 542 20 525.5 7.5 c 128,-1,21
 509 -5 509 -5 482 -5 c 2,22,-1
 333 0 l 1,23,-1
 171 -5 l 2,24,25
 141 -5 141 -5 125.5 7.5 c 128,-1,26
 110 20 110 20 110 54 c 2,0,-1
EndSplineSet
EndChar

StartChar: m
Encoding: 109 109 80
Width: 1208
Flags: W
LayerCount: 2
Fore
SplineSet
1078 460 m 1,0,-1
 1071 218 l 1,1,2
 1071 180 1071 180 1072 161 c 128,-1,3
 1073 142 1073 142 1080 121 c 128,-1,4
 1087 100 1087 100 1101 94 c 0,5,6
 1109 90 1109 90 1120 88.5 c 128,-1,7
 1131 87 1131 87 1136 84 c 128,-1,8
 1141 81 1141 81 1141 73 c 0,9,10
 1141 38 1141 38 1119 14.5 c 128,-1,11
 1097 -9 1097 -9 1067 -9 c 0,12,13
 1016 -9 1016 -9 996.5 31 c 128,-1,14
 977 71 977 71 977 150 c 1,15,-1
 982 429 l 1,16,17
 982 538 982 538 945 604.5 c 128,-1,18
 908 671 908 671 842 671 c 128,-1,19
 776 671 776 671 713.5 583 c 128,-1,20
 651 495 651 495 626 383 c 1,21,-1
 630 60 l 2,22,23
 630 26 630 26 619 8.5 c 128,-1,24
 608 -9 608 -9 579 -9 c 0,25,26
 517 -9 517 -9 517 91 c 128,-1,27
 517 191 517 191 544 383 c 1,28,29
 544 671 544 671 401 671 c 0,30,31
 337 671 337 671 274.5 583 c 128,-1,32
 212 495 212 495 187 383 c 1,33,-1
 191 60 l 2,34,35
 191 -9 191 -9 140 -9 c 0,36,37
 78 -9 78 -9 78 91 c 128,-1,38
 78 191 78 191 105 383 c 1,39,40
 105 449 105 449 93.5 560.5 c 128,-1,41
 82 672 82 672 82 697.5 c 128,-1,42
 82 723 82 723 96 741.5 c 128,-1,43
 110 760 110 760 134.5 760 c 128,-1,44
 159 760 159 760 173 741.5 c 128,-1,45
 187 723 187 723 187 700 c 128,-1,46
 187 677 187 677 186.5 644.5 c 128,-1,47
 186 612 186 612 186 589 c 1,48,49
 278 760 278 760 420 760 c 0,50,51
 502 760 502 760 553.5 713.5 c 128,-1,52
 605 667 605 667 625 589 c 1,53,54
 720 760 720 760 860 760 c 0,55,56
 964 760 964 760 1021 672.5 c 128,-1,57
 1078 585 1078 585 1078 460 c 1,0,-1
EndSplineSet
EndChar

StartChar: n
Encoding: 110 110 81
Width: 795
Flags: W
LayerCount: 2
Fore
SplineSet
665 497 m 1,0,-1
 658 215 l 2,1,2
 658 177 658 177 659 158 c 128,-1,3
 660 139 660 139 667 118 c 128,-1,4
 674 97 674 97 688 91 c 0,5,6
 696 87 696 87 707 85.5 c 128,-1,7
 718 84 718 84 723 81 c 128,-1,8
 728 78 728 78 728 70 c 0,9,10
 728 35 728 35 706 11.5 c 128,-1,11
 684 -12 684 -12 654 -12 c 0,12,13
 602 -12 602 -12 582.5 28 c 128,-1,14
 563 68 563 68 563 147 c 1,15,-1
 569 431 l 1,16,17
 569 539 569 539 529 605 c 128,-1,18
 489 671 489 671 417 671 c 128,-1,19
 345 671 345 671 278.5 583.5 c 128,-1,20
 212 496 212 496 186 385 c 1,21,-1
 190 57 l 2,22,23
 190 -12 190 -12 139 -12 c 0,24,25
 77 -12 77 -12 77 92.5 c 128,-1,26
 77 197 77 197 104 385 c 1,27,28
 104 450 104 450 92.5 561.5 c 128,-1,29
 81 673 81 673 81 698 c 128,-1,30
 81 723 81 723 95 741.5 c 128,-1,31
 109 760 109 760 133.5 760 c 128,-1,32
 158 760 158 760 172 741.5 c 128,-1,33
 186 723 186 723 186 700 c 128,-1,34
 186 677 186 677 185.5 644.5 c 128,-1,35
 185 612 185 612 185 589 c 1,36,37
 283 760 283 760 433 760 c 0,38,39
 544 760 544 760 604.5 683.5 c 128,-1,40
 665 607 665 607 665 497 c 1,0,-1
EndSplineSet
EndChar

StartChar: o
Encoding: 111 111 82
Width: 814
Flags: W
LayerCount: 2
Fore
SplineSet
747 376 m 128,-1,1
 747 213 747 213 649.5 99 c 128,-1,2
 552 -15 552 -15 406.5 -15 c 128,-1,3
 261 -15 261 -15 164 99 c 128,-1,4
 67 213 67 213 67 376 c 128,-1,5
 67 539 67 539 165 652 c 128,-1,6
 263 765 263 765 408.5 765 c 128,-1,7
 554 765 554 765 650.5 652 c 128,-1,0
 747 539 747 539 747 376 c 128,-1,1
581.5 164 m 128,-1,9
 651 256 651 256 651 377 c 128,-1,10
 651 498 651 498 582 588.5 c 128,-1,11
 513 679 513 679 407.5 679 c 128,-1,12
 302 679 302 679 232.5 588.5 c 128,-1,13
 163 498 163 498 163 377.5 c 128,-1,14
 163 257 163 257 233 164.5 c 128,-1,15
 303 72 303 72 407.5 72 c 128,-1,8
 512 72 512 72 581.5 164 c 128,-1,9
EndSplineSet
EndChar

StartChar: p
Encoding: 112 112 83
Width: 641
Flags: W
LayerCount: 2
Fore
SplineSet
109 48 m 2,0,-1
 117 382 l 1,1,2
 117 633 117 633 111 633 c 0,3,4
 89 633 89 633 78 644.5 c 128,-1,5
 67 656 67 656 67 675.5 c 128,-1,6
 67 695 67 695 94.5 714 c 128,-1,7
 122 733 122 733 162 744 c 0,8,9
 244 765 244 765 303 765 c 0,10,11
 447 765 447 765 523 693.5 c 128,-1,12
 599 622 599 622 599 524 c 128,-1,13
 599 426 599 426 523 355 c 128,-1,14
 447 284 447 284 329 284 c 0,15,16
 251 284 251 284 206 295 c 1,17,-1
 211 48 l 2,18,19
 211 22 211 22 197 6 c 128,-1,20
 183 -10 183 -10 160.5 -10 c 128,-1,21
 138 -10 138 -10 123.5 6 c 128,-1,22
 109 22 109 22 109 48 c 2,0,-1
309 679 m 0,23,24
 244 679 244 679 207 666 c 1,25,26
 204 620 204 620 204 523.5 c 128,-1,27
 204 427 204 427 206 384 c 1,28,29
 263 369 263 369 331.5 369 c 128,-1,30
 400 369 400 369 451.5 413.5 c 128,-1,31
 503 458 503 458 503 523.5 c 128,-1,32
 503 589 503 589 451.5 634 c 128,-1,33
 400 679 400 679 309 679 c 0,23,24
EndSplineSet
EndChar

StartChar: q
Encoding: 113 113 84
Width: 794
Flags: W
LayerCount: 2
Fore
SplineSet
631 376 m 0,0,1
 631 498 631 498 564.5 588.5 c 128,-1,2
 498 679 498 679 397 679 c 128,-1,3
 296 679 296 679 229.5 588.5 c 128,-1,4
 163 498 163 498 163 377.5 c 128,-1,5
 163 257 163 257 230 164.5 c 128,-1,6
 297 72 297 72 397 72 c 0,7,8
 430 72 430 72 459 81 c 1,9,10
 443 106 443 106 425 132 c 0,11,12
 397 172 397 172 397 192 c 128,-1,13
 397 212 397 212 408 223 c 128,-1,14
 419 234 419 234 438.5 234 c 128,-1,15
 458 234 458 234 474 208 c 0,16,17
 492 178 492 178 523 116 c 1,18,19
 573 158 573 158 602 228 c 128,-1,20
 631 298 631 298 631 376 c 0,0,1
727 376 m 0,21,22
 727 269 727 269 685 179.5 c 128,-1,23
 643 90 643 90 571 38 c 1,24,25
 589 12 589 12 597 0 c 0,26,27
 619 -31 619 -31 619 -51 c 128,-1,28
 619 -71 619 -71 608 -82.5 c 128,-1,29
 597 -94 597 -94 577.5 -94 c 128,-1,30
 558 -94 558 -94 541 -67 c 1,31,-1
 502 3 l 1,32,33
 448 -15 448 -15 396 -15 c 0,34,35
 256 -15 256 -15 161.5 99 c 128,-1,36
 67 213 67 213 67 375.5 c 128,-1,37
 67 538 67 538 162 651.5 c 128,-1,38
 257 765 257 765 398 765 c 128,-1,39
 539 765 539 765 633 652 c 128,-1,40
 727 539 727 539 727 376 c 0,21,22
EndSplineSet
EndChar

StartChar: r
Encoding: 114 114 85
Width: 553
Flags: W
LayerCount: 2
Fore
SplineSet
187 355 m 1,0,-1
 190 57 l 2,1,2
 190 -12 190 -12 139 -12 c 0,3,4
 77 -12 77 -12 77 92.5 c 128,-1,5
 77 197 77 197 104 385 c 1,6,7
 104 450 104 450 92.5 561.5 c 128,-1,8
 81 673 81 673 81 698 c 128,-1,9
 81 723 81 723 95 741.5 c 128,-1,10
 109 760 109 760 133.5 760 c 128,-1,11
 158 760 158 760 172 741.5 c 128,-1,12
 186 723 186 723 186 700 c 128,-1,13
 186 677 186 677 185.5 644.5 c 128,-1,14
 185 612 185 612 185 590 c 1,15,16
 214 659 214 659 274 711.5 c 128,-1,17
 334 764 334 764 396.5 764 c 128,-1,18
 459 764 459 764 492 739.5 c 128,-1,19
 525 715 525 715 525 686.5 c 128,-1,20
 525 658 525 658 509.5 641.5 c 128,-1,21
 494 625 494 625 471 625 c 128,-1,22
 448 625 448 625 420.5 650 c 128,-1,23
 393 675 393 675 376 675 c 0,24,25
 330 675 330 675 267 568.5 c 128,-1,26
 204 462 204 462 187 355 c 1,0,-1
EndSplineSet
EndChar

StartChar: s
Encoding: 115 115 86
Width: 596
Flags: W
LayerCount: 2
Fore
SplineSet
542 204 m 0,0,1
 542 111 542 111 471.5 48 c 128,-1,2
 401 -15 401 -15 289 -15 c 0,3,4
 202 -15 202 -15 127 27 c 128,-1,5
 52 69 52 69 52 109 c 0,6,7
 52 127 52 127 64 139 c 128,-1,8
 76 151 76 151 94.5 151 c 128,-1,9
 113 151 113 151 132 138.5 c 128,-1,10
 151 126 151 126 167 111.5 c 128,-1,11
 183 97 183 97 215.5 84.5 c 128,-1,12
 248 72 248 72 289 72 c 0,13,14
 357 72 357 72 401.5 107 c 128,-1,15
 446 142 446 142 446 204 c 0,16,17
 446 245 446 245 408 282 c 128,-1,18
 370 319 370 319 316 349 c 128,-1,19
 262 379 262 379 208 410.5 c 128,-1,20
 154 442 154 442 116 487.5 c 128,-1,21
 78 533 78 533 78 586 c 0,22,23
 78 659 78 659 142 712 c 128,-1,24
 206 765 206 765 293 765 c 128,-1,25
 380 765 380 765 441 735.5 c 128,-1,26
 502 706 502 706 502 668 c 0,27,28
 502 649 502 649 490 638 c 128,-1,29
 478 627 478 627 458 627 c 128,-1,30
 438 627 438 627 419 640 c 128,-1,31
 400 653 400 653 372 666 c 128,-1,32
 344 679 344 679 297 679 c 128,-1,33
 250 679 250 679 212 653 c 128,-1,34
 174 627 174 627 174 589 c 128,-1,35
 174 551 174 551 212 518.5 c 128,-1,36
 250 486 250 486 304 456 c 128,-1,37
 358 426 358 426 412 393 c 128,-1,38
 466 360 466 360 504 311 c 128,-1,39
 542 262 542 262 542 204 c 0,0,1
EndSplineSet
EndChar

StartChar: t
Encoding: 116 116 87
Width: 563
Flags: W
LayerCount: 2
Fore
SplineSet
97 756 m 2,0,-1
 286 750 l 1,1,-1
 469 756 l 2,2,3
 496 756 496 756 512.5 743.5 c 128,-1,4
 529 731 529 731 529 709 c 128,-1,5
 529 687 529 687 512.5 674.5 c 128,-1,6
 496 662 496 662 469 662 c 1,7,-1
 335 668 l 1,8,9
 331 571 331 571 331 372 c 1,10,-1
 337 48 l 2,11,12
 337 22 337 22 323 6 c 128,-1,13
 309 -10 309 -10 286.5 -10 c 128,-1,14
 264 -10 264 -10 249.5 6 c 128,-1,15
 235 22 235 22 235 48 c 2,16,-1
 241 372 l 1,17,18
 241 546 241 546 236 668 c 1,19,-1
 97 662 l 1,20,21
 70 662 70 662 53.5 674.5 c 128,-1,22
 37 687 37 687 37 709 c 128,-1,23
 37 731 37 731 53.5 743.5 c 128,-1,24
 70 756 70 756 97 756 c 2,0,-1
EndSplineSet
EndChar

StartChar: u
Encoding: 117 117 88
Width: 809
Flags: W
LayerCount: 2
Fore
SplineSet
197 646 m 1,0,-1
 186 314 l 1,1,2
 186 207 186 207 228 139.5 c 128,-1,3
 270 72 270 72 341.5 72 c 128,-1,4
 413 72 413 72 478.5 161 c 128,-1,5
 544 250 544 250 569 360 c 1,6,-1
 565 688 l 2,7,8
 565 757 565 757 616 757 c 0,9,10
 678 757 678 757 678 655 c 128,-1,11
 678 553 678 553 651 360 c 1,12,13
 651 250 651 250 665.5 173.5 c 128,-1,14
 680 97 680 97 701 88 c 0,15,16
 709 84 709 84 720.5 82.5 c 128,-1,17
 732 81 732 81 737 78 c 128,-1,18
 742 75 742 75 742 67 c 0,19,20
 742 30 742 30 720 7.5 c 128,-1,21
 698 -15 698 -15 664 -15 c 0,22,23
 579 -15 579 -15 579 158 c 1,24,25
 479 -15 479 -15 327 -15 c 0,26,27
 214 -15 214 -15 152.5 76 c 128,-1,28
 91 167 91 167 91 297 c 1,29,-1
 99 536 l 1,30,31
 99 590 99 590 88 636 c 128,-1,32
 77 682 77 682 77 702.5 c 128,-1,33
 77 723 77 723 93 740 c 128,-1,34
 109 757 109 757 135 757 c 0,35,36
 197 757 197 757 197 646 c 1,0,-1
EndSplineSet
EndChar

StartChar: v
Encoding: 118 118 89
Width: 663
Flags: W
LayerCount: 2
Fore
SplineSet
392 40 m 0,0,1
 375 -10 375 -10 331.5 -10 c 128,-1,2
 288 -10 288 -10 271 40 c 0,3,4
 125 450 125 450 115.5 479.5 c 128,-1,5
 106 509 106 509 82.5 573 c 128,-1,6
 59 637 59 637 47 669.5 c 128,-1,7
 35 702 35 702 35 716 c 128,-1,8
 35 730 35 730 47.5 745 c 128,-1,9
 60 760 60 760 82 760 c 0,10,11
 120 760 120 760 135 715 c 0,12,13
 325 133 325 133 332 133 c 0,14,15
 343 133 343 133 533 715 c 0,16,17
 548 760 548 760 581 760 c 0,18,19
 603 760 603 760 615.5 745 c 128,-1,20
 628 730 628 730 628 716 c 128,-1,21
 628 702 628 702 616 670 c 0,22,23
 559 515 559 515 548.5 482.5 c 128,-1,24
 538 450 538 450 392 40 c 0,0,1
EndSplineSet
EndChar

StartChar: w
Encoding: 119 119 90
Width: 949
Flags: W
LayerCount: 2
Fore
SplineSet
709 38 m 1,0,1
 692 -10 692 -10 648 -10 c 128,-1,2
 604 -10 604 -10 588 35 c 0,3,4
 575 71 575 71 525.5 237.5 c 128,-1,5
 476 404 476 404 474 404 c 128,-1,6
 472 404 472 404 450.5 331 c 128,-1,7
 429 258 429 258 402 164 c 128,-1,8
 375 70 375 70 365 38 c 0,9,10
 350 -10 350 -10 306 -10 c 128,-1,11
 262 -10 262 -10 245 35 c 0,12,13
 240 48 240 48 222 106.5 c 128,-1,14
 204 165 204 165 178.5 246 c 128,-1,15
 153 327 153 327 141 364.5 c 128,-1,16
 129 402 129 402 112 453.5 c 128,-1,17
 95 505 95 505 84 538.5 c 128,-1,18
 73 572 73 572 61 611 c 0,19,20
 37 689 37 689 37 711 c 128,-1,21
 37 733 37 733 50 746.5 c 128,-1,22
 63 760 63 760 81 760 c 0,23,24
 121 760 121 760 135 715 c 0,25,26
 197 518 197 518 253 318.5 c 128,-1,27
 309 119 309 119 310 119 c 0,28,29
 314 119 314 119 359.5 276 c 128,-1,30
 405 433 405 433 419 495 c 0,31,32
 424 517 424 517 439.5 533.5 c 128,-1,33
 455 550 455 550 477 550 c 0,34,35
 522 550 522 550 536 499 c 0,36,37
 647 119 647 119 655 119 c 1,38,-1
 690 247 l 2,39,40
 725 375 725 375 766 527 c 128,-1,41
 807 679 807 679 817 715 c 0,42,43
 829 760 829 760 862 760 c 0,44,45
 885 760 885 760 897 745.5 c 128,-1,46
 909 731 909 731 909 709 c 128,-1,47
 909 687 909 687 862 533 c 128,-1,48
 815 379 815 379 784 280 c 0,49,50
 727 93 727 93 709 38 c 1,0,1
EndSplineSet
EndChar

StartChar: x
Encoding: 120 120 91
Width: 665
Flags: W
LayerCount: 2
Fore
SplineSet
323 311 m 1,0,1
 302 278 302 278 255 201.5 c 128,-1,2
 208 125 208 125 197.5 109.5 c 128,-1,3
 187 94 187 94 179 80.5 c 128,-1,4
 171 67 171 67 166.5 61 c 128,-1,5
 162 55 162 55 155 44 c 128,-1,6
 148 33 148 33 144 28 c 2,7,-1
 134 16 l 1,8,9
 118 -5 118 -5 109 -7.5 c 128,-1,10
 100 -10 100 -10 87 -10 c 128,-1,11
 74 -10 74 -10 62 2 c 128,-1,12
 50 14 50 14 50 28 c 128,-1,13
 50 42 50 42 56.5 56.5 c 128,-1,14
 63 71 63 71 81.5 99.5 c 128,-1,15
 100 128 100 128 122 160 c 0,16,17
 213 294 213 294 273 387 c 1,18,19
 183 547 183 547 125 636 c 0,20,21
 101 672 101 672 69 672 c 0,22,23
 51 672 51 672 47 678 c 128,-1,24
 43 684 43 684 43 695 c 0,25,26
 43 726 43 726 61.5 744.5 c 128,-1,27
 80 763 80 763 105 763 c 128,-1,28
 130 763 130 763 149.5 750 c 128,-1,29
 169 737 169 737 196 698 c 0,30,31
 206 682 206 682 331 465 c 1,32,33
 356 505 356 505 424 617.5 c 128,-1,34
 492 730 492 730 506.5 745 c 128,-1,35
 521 760 521 760 539 760 c 128,-1,36
 557 760 557 760 568.5 747.5 c 128,-1,37
 580 735 580 735 580 716 c 0,38,39
 580 695 580 695 420 450 c 0,40,41
 400 418 400 418 381 388 c 1,42,43
 519 168 519 168 556.5 123 c 128,-1,44
 594 78 594 78 621 78 c 0,45,46
 636 78 636 78 639.5 72.5 c 128,-1,47
 643 67 643 67 643 57 c 0,48,49
 643 26 643 26 624.5 6.5 c 128,-1,50
 606 -13 606 -13 580 -13 c 0,51,52
 540 -13 540 -13 490 53 c 0,53,54
 463 89 463 89 323 311 c 1,0,1
EndSplineSet
EndChar

StartChar: y
Encoding: 121 121 92
Width: 597
Flags: W
LayerCount: 2
Fore
SplineSet
342 303 m 1,0,1
 342 223 342 223 344 142 c 2,2,-1
 347 61 l 1,3,4
 347 -10 347 -10 296 -10 c 128,-1,5
 245 -10 245 -10 245 61 c 1,6,-1
 248 144 l 2,7,8
 250 227 250 227 250 304 c 1,9,10
 51 646 51 646 38 673 c 128,-1,11
 25 700 25 700 25 717 c 128,-1,12
 25 734 25 734 37 747 c 128,-1,13
 49 760 49 760 71.5 760 c 128,-1,14
 94 760 94 760 110 738.5 c 128,-1,15
 126 717 126 717 184.5 603 c 128,-1,16
 243 489 243 489 301 401 c 1,17,18
 325 437 325 437 385.5 549 c 128,-1,19
 446 661 446 661 455.5 677.5 c 128,-1,20
 465 694 465 694 469 701.5 c 128,-1,21
 473 709 473 709 480.5 721 c 128,-1,22
 488 733 488 733 492.5 738.5 c 128,-1,23
 497 744 497 744 503 750 c 0,24,25
 513 760 513 760 531 760 c 128,-1,26
 549 760 549 760 560.5 748 c 128,-1,27
 572 736 572 736 572 719 c 128,-1,28
 572 702 572 702 557.5 674.5 c 128,-1,29
 543 647 543 647 494.5 564 c 128,-1,30
 446 481 446 481 432 457.5 c 128,-1,31
 418 434 418 434 392.5 389.5 c 128,-1,32
 367 345 367 345 342 303 c 1,0,1
EndSplineSet
EndChar

StartChar: z
Encoding: 122 122 93
Width: 608
Flags: W
LayerCount: 2
Fore
SplineSet
330 0 m 1,0,-1
 101 -5 l 1,1,2
 44 -5 44 -5 44 38 c 0,3,4
 44 58 44 58 68.5 99 c 128,-1,5
 93 140 93 140 156 235.5 c 128,-1,6
 219 331 219 331 257.5 395 c 128,-1,7
 296 459 296 459 332 516 c 0,8,9
 406 637 406 637 420 664 c 1,10,11
 375 668 375 668 311 668 c 128,-1,12
 247 668 247 668 185 664.5 c 128,-1,13
 123 661 123 661 105.5 661 c 128,-1,14
 88 661 88 661 71.5 673.5 c 128,-1,15
 55 686 55 686 55 708 c 128,-1,16
 55 730 55 730 71.5 742.5 c 128,-1,17
 88 755 88 755 115 755 c 2,18,-1
 290 750 l 1,19,-1
 493 755 l 1,20,21
 550 755 550 755 550 714 c 0,22,23
 550 693 550 693 529 657 c 128,-1,24
 508 621 508 621 451 534.5 c 128,-1,25
 394 448 394 448 360 390.5 c 128,-1,26
 326 333 326 333 272 246.5 c 128,-1,27
 218 160 218 160 175 87 c 1,28,29
 232 82 232 82 302.5 82 c 128,-1,30
 373 82 373 82 435 85.5 c 128,-1,31
 497 89 497 89 514.5 89 c 128,-1,32
 532 89 532 89 548.5 76.5 c 128,-1,33
 565 64 565 64 565 42 c 128,-1,34
 565 20 565 20 548.5 7.5 c 128,-1,35
 532 -5 532 -5 505 -5 c 2,36,-1
 330 0 l 1,0,-1
EndSplineSet
EndChar

StartChar: braceleft
Encoding: 123 123 94
Width: 359
Flags: W
LayerCount: 2
Fore
SplineSet
194 376 m 1,0,1
 210 357 210 357 218 344 c 0,2,3
 239 305 239 305 239 210 c 0,4,5
 239 168 239 168 232 116.5 c 128,-1,6
 225 65 225 65 225 46.5 c 128,-1,7
 225 28 225 28 239.5 17.5 c 128,-1,8
 254 7 254 7 271 5 c 128,-1,9
 288 3 288 3 302.5 -7.5 c 128,-1,10
 317 -18 317 -18 317 -38 c 128,-1,11
 317 -58 317 -58 305 -70.5 c 128,-1,12
 293 -83 293 -83 272 -83 c 0,13,14
 214 -83 214 -83 170.5 -51 c 128,-1,15
 127 -19 127 -19 127 39 c 0,16,17
 127 66 127 66 134.5 122.5 c 128,-1,18
 142 179 142 179 142 210 c 0,19,20
 142 303 142 303 120 322 c 1,21,22
 102 315 102 315 81 315 c 128,-1,23
 60 315 60 315 42 329.5 c 128,-1,24
 24 344 24 344 24 374 c 128,-1,25
 24 404 24 404 42.5 418.5 c 128,-1,26
 61 433 61 433 82.5 433 c 128,-1,27
 104 433 104 433 121 426 c 1,28,29
 143 445 143 445 143 538 c 0,30,31
 143 569 143 569 135.5 627.5 c 128,-1,32
 128 686 128 686 128 713 c 0,33,34
 128 771 128 771 171.5 803 c 128,-1,35
 215 835 215 835 273 835 c 0,36,37
 294 835 294 835 306 822.5 c 128,-1,38
 318 810 318 810 318 790 c 128,-1,39
 318 770 318 770 303.5 759.5 c 128,-1,40
 289 749 289 749 272 747 c 128,-1,41
 255 745 255 745 240.5 734.5 c 128,-1,42
 226 724 226 724 226 705.5 c 128,-1,43
 226 687 226 687 233 633.5 c 128,-1,44
 240 580 240 580 240 533.5 c 128,-1,45
 240 487 240 487 232.5 453.5 c 128,-1,46
 225 420 225 420 218 408 c 128,-1,47
 211 396 211 396 194 376 c 1,0,1
EndSplineSet
EndChar

StartChar: bar
Encoding: 124 124 95
Width: 258
Flags: W
LayerCount: 2
Fore
SplineSet
168 324 m 1,0,-1
 173 -28 l 2,1,2
 173 -84 173 -84 129 -84 c 128,-1,3
 85 -84 85 -84 85 -28 c 2,4,-1
 90 324 l 1,5,-1
 86 704 l 2,6,7
 86 760 86 760 129 760 c 128,-1,8
 172 760 172 760 172 704 c 2,9,-1
 168 324 l 1,0,-1
EndSplineSet
EndChar

StartChar: braceright
Encoding: 125 125 96
Width: 359
Flags: W
LayerCount: 2
Fore
SplineSet
175 376 m 1,0,1
 158 396 158 396 151 408 c 128,-1,2
 144 420 144 420 136.5 453.5 c 128,-1,3
 129 487 129 487 129 533.5 c 128,-1,4
 129 580 129 580 136 633.5 c 128,-1,5
 143 687 143 687 143 705.5 c 128,-1,6
 143 724 143 724 128.5 734.5 c 128,-1,7
 114 745 114 745 97 747 c 128,-1,8
 80 749 80 749 65.5 759.5 c 128,-1,9
 51 770 51 770 51 790 c 128,-1,10
 51 810 51 810 63 822.5 c 128,-1,11
 75 835 75 835 96 835 c 0,12,13
 150 835 150 835 190.5 803 c 128,-1,14
 231 771 231 771 231 713 c 0,15,16
 231 686 231 686 223.5 627.5 c 128,-1,17
 216 569 216 569 216 538 c 0,18,19
 216 445 216 445 238 426 c 1,20,21
 255 433 255 433 276.5 433 c 128,-1,22
 298 433 298 433 316.5 418.5 c 128,-1,23
 335 404 335 404 335 374 c 128,-1,24
 335 344 335 344 317 329.5 c 128,-1,25
 299 315 299 315 277.5 315 c 128,-1,26
 256 315 256 315 239 322 c 1,27,28
 217 303 217 303 217 210 c 0,29,30
 217 179 217 179 224.5 122.5 c 128,-1,31
 232 66 232 66 232 39 c 0,32,33
 232 -19 232 -19 191.5 -51 c 128,-1,34
 151 -83 151 -83 97 -83 c 0,35,36
 76 -83 76 -83 64 -70.5 c 128,-1,37
 52 -58 52 -58 52 -38 c 128,-1,38
 52 -18 52 -18 66.5 -7.5 c 128,-1,39
 81 3 81 3 98 5 c 128,-1,40
 115 7 115 7 129.5 17.5 c 128,-1,41
 144 28 144 28 144 46.5 c 128,-1,42
 144 65 144 65 137 116.5 c 128,-1,43
 130 168 130 168 130 214.5 c 128,-1,44
 130 261 130 261 137 295.5 c 128,-1,45
 144 330 144 330 151.5 343.5 c 128,-1,46
 159 357 159 357 175 376 c 1,0,1
EndSplineSet
EndChar

StartChar: asciitilde
Encoding: 126 126 97
Width: 612
Flags: W
LayerCount: 2
Fore
SplineSet
544 404 m 0,0,1
 544 375 544 375 502 343.5 c 128,-1,2
 460 312 460 312 416.5 312 c 128,-1,3
 373 312 373 312 317 340 c 128,-1,4
 261 368 261 368 235 368 c 128,-1,5
 209 368 209 368 175 338.5 c 128,-1,6
 141 309 141 309 117 309 c 128,-1,7
 93 309 93 309 81 320 c 128,-1,8
 69 331 69 331 69 349 c 0,9,10
 69 382 69 382 117 413 c 128,-1,11
 165 444 165 444 220.5 444 c 128,-1,12
 276 444 276 444 333 415.5 c 128,-1,13
 390 387 390 387 415 387 c 128,-1,14
 440 387 440 387 466.5 411.5 c 128,-1,15
 493 436 493 436 509.5 436 c 128,-1,16
 526 436 526 436 535 426.5 c 128,-1,17
 544 417 544 417 544 404 c 0,0,1
EndSplineSet
EndChar

StartChar: exclamdown
Encoding: 161 161 99
Width: 257
Flags: W
LayerCount: 2
Fore
SplineSet
172 208 m 1,0,-1
 180 -20 l 1,1,2
 180 -50 180 -50 166.5 -67.5 c 128,-1,3
 153 -85 153 -85 129 -85 c 128,-1,4
 105 -85 105 -85 91.5 -67.5 c 128,-1,5
 78 -50 78 -50 78 -20 c 2,6,-1
 85 208 l 1,7,-1
 84 409 l 2,8,9
 84 435 84 435 96 450 c 128,-1,10
 108 465 108 465 129 465 c 128,-1,11
 150 465 150 465 162 450 c 128,-1,12
 174 435 174 435 174 409 c 2,13,-1
 172 208 l 1,0,-1
169.5 671.5 m 128,-1,15
 183 653 183 653 183 628 c 128,-1,16
 183 603 183 603 166.5 583 c 128,-1,17
 150 563 150 563 125 563 c 128,-1,18
 100 563 100 563 87 580 c 128,-1,19
 74 597 74 597 74 622.5 c 128,-1,20
 74 648 74 648 91 669 c 128,-1,21
 108 690 108 690 132 690 c 128,-1,14
 156 690 156 690 169.5 671.5 c 128,-1,15
EndSplineSet
EndChar

StartChar: cent
Encoding: 162 162 100
Width: 718
Flags: W
LayerCount: 2
Fore
SplineSet
367 74 m 1,0,1
 370 266 370 266 370 321.5 c 128,-1,2
 370 377 370 377 366 633 c 1,3,4
 276 615 276 615 219 534.5 c 128,-1,5
 162 454 162 454 162 354.5 c 128,-1,6
 162 255 162 255 219.5 173.5 c 128,-1,7
 277 92 277 92 367 74 c 1,0,1
660 112 m 0,8,9
 660 82 660 82 599.5 40.5 c 128,-1,10
 539 -1 539 -1 457 -11 c 1,11,12
 457 -82 457 -82 411 -82 c 128,-1,13
 365 -82 365 -82 365 -7 c 1,14,15
 233 12 233 12 150 113.5 c 128,-1,16
 67 215 67 215 67 352.5 c 128,-1,17
 67 490 67 490 149 590 c 128,-1,18
 231 690 231 690 364 713 c 1,19,20
 364 787 364 787 410 787 c 128,-1,21
 456 787 456 787 456 716 c 1,22,23
 537 711 537 711 592.5 681.5 c 128,-1,24
 648 652 648 652 648 615 c 0,25,26
 648 597 648 597 636 586 c 128,-1,27
 624 575 624 575 603.5 575 c 128,-1,28
 583 575 583 575 539.5 601.5 c 128,-1,29
 496 628 496 628 454 635 c 1,30,31
 450 507 450 507 450 353.5 c 128,-1,32
 450 200 450 200 454 72 c 1,33,34
 524 81 524 81 588 130 c 0,35,36
 608 145 608 145 623 145 c 0,37,38
 660 145 660 145 660 112 c 0,8,9
EndSplineSet
EndChar

StartChar: sterling
Encoding: 163 163 101
Width: 573
Flags: W
LayerCount: 2
Fore
SplineSet
390 310 m 2,0,-1
 247 313 l 1,1,2
 253 225 253 225 237 179.5 c 128,-1,3
 221 134 221 134 195 86 c 1,4,5
 230 82 230 82 282 82 c 128,-1,6
 334 82 334 82 389 85.5 c 128,-1,7
 444 89 444 89 461 89 c 128,-1,8
 478 89 478 89 494.5 76.5 c 128,-1,9
 511 64 511 64 511 42 c 128,-1,10
 511 20 511 20 494.5 7.5 c 128,-1,11
 478 -5 478 -5 451 -5 c 2,12,-1
 296 0 l 1,13,-1
 142 -5 l 2,14,15
 114 -5 114 -5 97.5 10 c 128,-1,16
 81 25 81 25 81 53 c 128,-1,17
 81 81 81 81 99.5 112 c 128,-1,18
 118 143 118 143 137 182 c 128,-1,19
 156 221 156 221 156.5 257.5 c 128,-1,20
 157 294 157 294 156 311 c 1,21,22
 148 310 148 310 125 310 c 0,23,24
 70 310 70 310 70 350.5 c 128,-1,25
 70 391 70 391 123 391 c 0,26,27
 126 391 126 391 133 390.5 c 128,-1,28
 140 390 140 390 144 390 c 1,29,30
 141 406 141 406 134 437 c 0,31,32
 117 505 117 505 117 544 c 0,33,34
 117 616 117 616 169.5 664.5 c 128,-1,35
 222 713 222 713 314 713 c 0,36,37
 373 713 373 713 429 683 c 128,-1,38
 485 653 485 653 485 621 c 0,39,40
 485 605 485 605 474 591 c 128,-1,41
 463 577 463 577 444 577 c 128,-1,42
 425 577 425 577 387 601.5 c 128,-1,43
 349 626 349 626 306.5 626 c 128,-1,44
 264 626 264 626 238.5 603 c 128,-1,45
 213 580 213 580 213 544 c 128,-1,46
 213 508 213 508 236 388 c 1,47,-1
 390 391 l 2,48,49
 412 391 412 391 426.5 380 c 128,-1,50
 441 369 441 369 441 351 c 128,-1,51
 441 333 441 333 426.5 321.5 c 128,-1,52
 412 310 412 310 390 310 c 2,0,-1
EndSplineSet
EndChar

StartChar: currency
Encoding: 164 164 102
Width: 691
Flags: W
LayerCount: 2
Fore
SplineSet
440.5 475 m 128,-1,1
 400 518 400 518 345 518 c 128,-1,2
 290 518 290 518 249.5 475 c 128,-1,3
 209 432 209 432 209 372 c 128,-1,4
 209 312 209 312 249 269 c 128,-1,5
 289 226 289 226 345 226 c 128,-1,6
 401 226 401 226 441 269 c 128,-1,7
 481 312 481 312 481 372 c 128,-1,0
 481 432 481 432 440.5 475 c 128,-1,1
482 189 m 1,8,9
 426 147 426 147 345 147 c 128,-1,10
 264 147 264 147 208 189 c 1,11,12
 200 180 200 180 188.5 168 c 128,-1,13
 177 156 177 156 172.5 151 c 128,-1,14
 168 146 168 146 160.5 138.5 c 128,-1,15
 153 131 153 131 149.5 128.5 c 128,-1,16
 146 126 146 126 140 124 c 1,17,18
 131 119 131 119 115.5 119 c 128,-1,19
 100 119 100 119 86 132 c 128,-1,20
 72 145 72 145 72 162 c 128,-1,21
 72 179 72 179 84 193.5 c 128,-1,22
 96 208 96 208 151 256 c 1,23,24
 123 309 123 309 123 371 c 128,-1,25
 123 433 123 433 152 488 c 1,26,27
 97 536 97 536 85 550.5 c 128,-1,28
 73 565 73 565 73 582 c 128,-1,29
 73 599 73 599 87 612 c 128,-1,30
 101 625 101 625 113.5 625 c 128,-1,31
 126 625 126 625 131 624 c 128,-1,32
 136 623 136 623 141.5 620.5 c 128,-1,33
 147 618 147 618 150.5 615.5 c 128,-1,34
 154 613 154 613 161.5 605.5 c 128,-1,35
 169 598 169 598 173.5 593 c 128,-1,36
 178 588 178 588 189.5 576 c 128,-1,37
 201 564 201 564 209 555 c 1,38,39
 263 596 263 596 345 596 c 128,-1,40
 427 596 427 596 481 555 c 1,41,42
 534 611 534 611 545 618 c 128,-1,43
 556 625 556 625 572.5 625 c 128,-1,44
 589 625 589 625 603 612 c 128,-1,45
 617 599 617 599 617 582 c 128,-1,46
 617 565 617 565 605 550.5 c 128,-1,47
 593 536 593 536 538 488 c 1,48,49
 567 433 567 433 567 369.5 c 128,-1,50
 567 306 567 306 539 256 c 1,51,52
 594 208 594 208 606 193.5 c 128,-1,53
 618 179 618 179 618 162 c 128,-1,54
 618 145 618 145 604.5 132 c 128,-1,55
 591 119 591 119 580 119 c 128,-1,56
 569 119 569 119 565 119.5 c 128,-1,57
 561 120 561 120 556.5 121.5 c 128,-1,58
 552 123 552 123 549 124.5 c 128,-1,59
 546 126 546 126 541 130 c 128,-1,60
 536 134 536 134 533 137 c 128,-1,61
 530 140 530 140 523 146.5 c 128,-1,62
 516 153 516 153 511.5 157.5 c 128,-1,63
 507 162 507 162 498 172 c 128,-1,64
 489 182 489 182 482 189 c 1,8,9
EndSplineSet
EndChar

StartChar: yen
Encoding: 165 165 103
Width: 636
Flags: W
LayerCount: 2
Fore
SplineSet
368 151 m 1,0,-1
 370 48 l 2,1,2
 370 22 370 22 356 6 c 128,-1,3
 342 -10 342 -10 319.5 -10 c 128,-1,4
 297 -10 297 -10 282.5 6 c 128,-1,5
 268 22 268 22 268 41.5 c 128,-1,6
 268 61 268 61 272 151 c 1,7,8
 192 149 192 149 134 149 c 0,9,10
 112 149 112 149 98.5 160 c 128,-1,11
 85 171 85 171 85 189 c 128,-1,12
 85 207 85 207 98.5 218 c 128,-1,13
 112 229 112 229 133 229 c 128,-1,14
 154 229 154 229 274 226 c 1,15,-1
 274 294 l 1,16,17
 192 292 192 292 134 292 c 0,18,19
 112 292 112 292 98.5 303 c 128,-1,20
 85 314 85 314 85 332 c 128,-1,21
 85 350 85 350 98.5 361 c 128,-1,22
 112 372 112 372 132.5 372 c 128,-1,23
 153 372 153 372 184.5 371.5 c 128,-1,24
 216 371 216 371 229 371 c 1,25,26
 170 471 170 471 151.5 501 c 128,-1,27
 133 531 133 531 119.5 553.5 c 128,-1,28
 106 576 106 576 98 589 c 128,-1,29
 90 602 90 602 83 614.5 c 128,-1,30
 76 627 76 627 72.5 633.5 c 128,-1,31
 69 640 69 640 66 647 c 0,32,33
 63 657 63 657 63 671 c 128,-1,34
 63 685 63 685 77.5 699 c 128,-1,35
 92 713 92 713 114 713 c 0,36,37
 126 713 126 713 132.5 708.5 c 128,-1,38
 139 704 139 704 143 701 c 128,-1,39
 147 698 147 698 152 691 c 128,-1,40
 157 684 157 684 160 679.5 c 128,-1,41
 163 675 163 675 169 665 c 128,-1,42
 175 655 175 655 178.5 649 c 128,-1,43
 182 643 182 643 189 629.5 c 128,-1,44
 196 616 196 616 244.5 528.5 c 128,-1,45
 293 441 293 441 325 394 c 1,46,47
 346 426 346 426 388.5 504.5 c 128,-1,48
 431 583 431 583 439.5 597.5 c 128,-1,49
 448 612 448 612 455 624.5 c 128,-1,50
 462 637 462 637 465.5 644 c 128,-1,51
 469 651 469 651 475 661 c 128,-1,52
 481 671 481 671 485 676.5 c 128,-1,53
 489 682 489 682 494 689 c 128,-1,54
 499 696 499 696 503 699.5 c 128,-1,55
 507 703 507 703 512 706 c 0,56,57
 521 713 521 713 537.5 713 c 128,-1,58
 554 713 554 713 567 700 c 128,-1,59
 580 687 580 687 580 671.5 c 128,-1,60
 580 656 580 656 568 632 c 0,61,62
 555 608 555 608 412 371 c 1,63,-1
 512 372 l 2,64,65
 534 372 534 372 547.5 361 c 128,-1,66
 561 350 561 350 561 332 c 128,-1,67
 561 314 561 314 547.5 303 c 128,-1,68
 534 292 534 292 512 292 c 0,69,70
 450 292 450 292 366 294 c 1,71,-1
 366 226 l 1,72,73
 492 229 492 229 513 229 c 128,-1,74
 534 229 534 229 547.5 218 c 128,-1,75
 561 207 561 207 561 189 c 128,-1,76
 561 171 561 171 547.5 160 c 128,-1,77
 534 149 534 149 512 149 c 0,78,79
 452 149 452 149 368 151 c 1,0,-1
EndSplineSet
EndChar

StartChar: brokenbar
Encoding: 166 166 104
Width: 269
Flags: W
LayerCount: 2
Fore
SplineSet
173 147 m 1,0,-1
 178 43 l 1,1,2
 178 19 178 19 166 4.5 c 128,-1,3
 154 -10 154 -10 133 -10 c 0,4,5
 91 -10 91 -10 91 43 c 1,6,-1
 95 147 l 1,7,-1
 92 251 l 1,8,9
 92 304 92 304 133 304 c 0,10,11
 154 304 154 304 165.5 289.5 c 128,-1,12
 177 275 177 275 177 251 c 2,13,-1
 173 147 l 1,0,-1
173 603 m 1,14,-1
 178 499 l 1,15,16
 178 475 178 475 166 460.5 c 128,-1,17
 154 446 154 446 133 446 c 0,18,19
 91 446 91 446 91 499 c 1,20,-1
 95 603 l 1,21,-1
 92 707 l 1,22,23
 92 760 92 760 133 760 c 0,24,25
 154 760 154 760 165.5 745.5 c 128,-1,26
 177 731 177 731 177 707 c 2,27,-1
 173 603 l 1,14,-1
EndSplineSet
EndChar

StartChar: section
Encoding: 167 167 105
Width: 576
Flags: W
LayerCount: 2
Fore
SplineSet
400 276 m 128,-1,1
 424 299 424 299 424 329.5 c 128,-1,2
 424 360 424 360 371 394.5 c 128,-1,3
 318 429 318 429 272 429 c 128,-1,4
 226 429 226 429 196 414 c 128,-1,5
 166 399 166 399 166 374.5 c 128,-1,6
 166 350 166 350 201.5 323.5 c 128,-1,7
 237 297 237 297 335 243 c 1,8,0
 376 253 376 253 400 276 c 128,-1,1
483 407.5 m 128,-1,10
 515 371 515 371 515 329 c 128,-1,11
 515 287 515 287 489 250.5 c 128,-1,12
 463 214 463 214 421 191 c 1,13,14
 480 149 480 149 480 83 c 128,-1,15
 480 17 480 17 421 -34 c 128,-1,16
 362 -85 362 -85 267 -85 c 0,17,18
 197 -85 197 -85 130.5 -48 c 128,-1,19
 64 -11 64 -11 64 26 c 0,20,21
 64 43 64 43 75 53 c 128,-1,22
 86 63 86 63 103 63 c 128,-1,23
 120 63 120 63 140 48 c 0,24,25
 203 2 203 2 261 2 c 128,-1,26
 319 2 319 2 352 25 c 128,-1,27
 385 48 385 48 385 81 c 128,-1,28
 385 114 385 114 353 139.5 c 128,-1,29
 321 165 321 165 275.5 187 c 128,-1,30
 230 209 230 209 184.5 233.5 c 128,-1,31
 139 258 139 258 107 293.5 c 128,-1,32
 75 329 75 329 75 373 c 128,-1,33
 75 417 75 417 109 451 c 128,-1,34
 143 485 143 485 199 499 c 1,35,36
 110 561 110 561 110 620.5 c 128,-1,37
 110 680 110 680 165.5 722.5 c 128,-1,38
 221 765 221 765 296.5 765 c 128,-1,39
 372 765 372 765 424 738 c 128,-1,40
 476 711 476 711 476 675 c 0,41,42
 476 660 476 660 465.5 650 c 128,-1,43
 455 640 455 640 439.5 640 c 128,-1,44
 424 640 424 640 387 659 c 128,-1,45
 350 678 350 678 307 678 c 128,-1,46
 264 678 264 678 234.5 662 c 128,-1,47
 205 646 205 646 205 619 c 128,-1,48
 205 592 205 592 237 565.5 c 128,-1,49
 269 539 269 539 314.5 516.5 c 128,-1,50
 360 494 360 494 405.5 469 c 128,-1,9
 451 444 451 444 483 407.5 c 128,-1,10
EndSplineSet
EndChar

StartChar: dieresis
Encoding: 168 168 106
Width: 466
Flags: W
LayerCount: 2
Fore
SplineSet
177.5 690 m 128,-1,1
 191 673 191 673 191 646.5 c 128,-1,2
 191 620 191 620 174 599 c 128,-1,3
 157 578 157 578 132.5 578 c 128,-1,4
 108 578 108 578 94 596 c 128,-1,5
 80 614 80 614 80 640 c 128,-1,6
 80 666 80 666 96.5 686.5 c 128,-1,7
 113 707 113 707 138.5 707 c 128,-1,0
 164 707 164 707 177.5 690 c 128,-1,1
372.5 690 m 128,-1,9
 386 673 386 673 386 646.5 c 128,-1,10
 386 620 386 620 369 599 c 128,-1,11
 352 578 352 578 327.5 578 c 128,-1,12
 303 578 303 578 289 596 c 128,-1,13
 275 614 275 614 275 640 c 128,-1,14
 275 666 275 666 291.5 686.5 c 128,-1,15
 308 707 308 707 333.5 707 c 128,-1,8
 359 707 359 707 372.5 690 c 128,-1,9
EndSplineSet
EndChar

StartChar: copyright
Encoding: 169 169 107
Width: 777
Flags: W
LayerCount: 2
Fore
SplineSet
554.5 275.5 m 128,-1,1
 624 347 624 347 624 449.5 c 128,-1,2
 624 552 624 552 554.5 623 c 128,-1,3
 485 694 485 694 387.5 694 c 128,-1,4
 290 694 290 694 221 623 c 128,-1,5
 152 552 152 552 152 449.5 c 128,-1,6
 152 347 152 347 221 275.5 c 128,-1,7
 290 204 290 204 387.5 204 c 128,-1,0
 485 204 485 204 554.5 275.5 c 128,-1,1
702 449 m 128,-1,9
 702 318 702 318 610 225.5 c 128,-1,10
 518 133 518 133 388 133 c 128,-1,11
 258 133 258 133 166 225.5 c 128,-1,12
 74 318 74 318 74 449 c 128,-1,13
 74 580 74 580 166 672.5 c 128,-1,14
 258 765 258 765 388 765 c 128,-1,15
 518 765 518 765 610 672.5 c 128,-1,8
 702 580 702 580 702 449 c 128,-1,9
393 644 m 0,16,17
 438 644 438 644 475 625.5 c 128,-1,18
 512 607 512 607 512 583 c 0,19,20
 512 548 512 548 476 548 c 0,21,22
 462 548 462 548 445 560 c 1,23,24
 419 575 419 575 398 575 c 0,25,26
 346 575 346 575 317.5 537 c 128,-1,27
 289 499 289 499 289 447.5 c 128,-1,28
 289 396 289 396 320.5 359 c 128,-1,29
 352 322 352 322 398 322 c 0,30,31
 428 322 428 322 452 334.5 c 128,-1,32
 476 347 476 347 489 347 c 0,33,34
 520 347 520 347 520 316 c 0,35,36
 520 299 520 299 483 276 c 128,-1,37
 446 253 446 253 393 253 c 0,38,39
 316 253 316 253 263 311 c 128,-1,40
 210 369 210 369 210 449.5 c 128,-1,41
 210 530 210 530 261.5 587 c 128,-1,42
 313 644 313 644 393 644 c 0,16,17
EndSplineSet
EndChar

StartChar: ordfeminine
Encoding: 170 170 108
Width: 440
Flags: W
LayerCount: 2
Fore
SplineSet
269 600 m 1,0,-1
 267 666 l 1,1,2
 238 692 238 692 207 692 c 128,-1,3
 176 692 176 692 154.5 663.5 c 128,-1,4
 133 635 133 635 133 595 c 128,-1,5
 133 555 133 555 146 529.5 c 128,-1,6
 159 504 159 504 183 504 c 128,-1,7
 207 504 207 504 232.5 533 c 128,-1,8
 258 562 258 562 269 600 c 1,0,-1
339 593 m 1,9,10
 339 519 339 519 358 506 c 0,11,12
 361 504 361 504 368 503 c 0,13,14
 382 501 382 501 382 490 c 0,15,16
 382 466 382 466 367 451.5 c 128,-1,17
 352 437 352 437 331 437 c 0,18,19
 289 437 289 437 277 492 c 1,20,21
 241 437 241 437 181 437 c 128,-1,22
 121 437 121 437 89 485 c 128,-1,23
 57 533 57 533 57 596.5 c 128,-1,24
 57 660 57 660 99 710.5 c 128,-1,25
 141 761 141 761 204 761 c 0,26,27
 242 761 242 761 271 739 c 1,28,29
 283 761 283 761 309 761 c 0,30,31
 351 761 351 761 351 698 c 0,32,33
 351 681 351 681 339 593 c 1,9,10
EndSplineSet
EndChar

StartChar: guillemotleft
Encoding: 171 171 109
Width: 595
Flags: W
LayerCount: 2
Fore
SplineSet
385 376 m 128,-1,1
 385 368 385 368 442 327 c 0,2,3
 450 321 450 321 468 309.5 c 128,-1,4
 486 298 486 298 496 291 c 0,5,6
 523 271 523 271 523 253 c 128,-1,7
 523 235 523 235 511 223.5 c 128,-1,8
 499 212 499 212 481.5 212 c 128,-1,9
 464 212 464 212 450.5 220 c 128,-1,10
 437 228 437 228 419 245 c 128,-1,11
 401 262 401 262 363.5 292.5 c 128,-1,12
 326 323 326 323 310 341 c 128,-1,13
 294 359 294 359 294 376 c 128,-1,14
 294 393 294 393 310 411 c 128,-1,15
 326 429 326 429 363.5 459.5 c 128,-1,16
 401 490 401 490 415.5 503.5 c 128,-1,17
 430 517 430 517 438 524 c 0,18,19
 458 540 458 540 478.5 540 c 128,-1,20
 499 540 499 540 511 528.5 c 128,-1,21
 523 517 523 517 523 501.5 c 128,-1,22
 523 486 523 486 512.5 475 c 128,-1,23
 502 464 502 464 474 446 c 128,-1,24
 446 428 446 428 442 425 c 0,25,0
 385 384 385 384 385 376 c 128,-1,1
145 376 m 128,-1,27
 145 368 145 368 202 327 c 0,28,29
 210 321 210 321 228 309.5 c 128,-1,30
 246 298 246 298 256 291 c 0,31,32
 283 271 283 271 283 253 c 128,-1,33
 283 235 283 235 271 223.5 c 128,-1,34
 259 212 259 212 241.5 212 c 128,-1,35
 224 212 224 212 210.5 220 c 128,-1,36
 197 228 197 228 179 245 c 128,-1,37
 161 262 161 262 123.5 292.5 c 128,-1,38
 86 323 86 323 70 341 c 128,-1,39
 54 359 54 359 54 376 c 128,-1,40
 54 393 54 393 70 411 c 128,-1,41
 86 429 86 429 123.5 459.5 c 128,-1,42
 161 490 161 490 175.5 503.5 c 128,-1,43
 190 517 190 517 198 524 c 0,44,45
 218 540 218 540 238.5 540 c 128,-1,46
 259 540 259 540 271 528.5 c 128,-1,47
 283 517 283 517 283 501.5 c 128,-1,48
 283 486 283 486 272.5 475 c 128,-1,49
 262 464 262 464 234 446 c 128,-1,50
 206 428 206 428 202 425 c 0,51,26
 145 384 145 384 145 376 c 128,-1,27
EndSplineSet
EndChar

StartChar: logicalnot
Encoding: 172 172 110
Width: 694
Flags: W
LayerCount: 2
Fore
SplineSet
604 305 m 1,0,-1
 606 237 l 2,1,2
 606 215 606 215 594 202 c 128,-1,3
 582 189 582 189 562.5 189 c 128,-1,4
 543 189 543 189 531 202 c 128,-1,5
 519 215 519 215 519 237 c 2,6,-1
 522 334 l 1,7,8
 434 336 434 336 344 336 c 1,9,-1
 138 333 l 2,10,11
 116 333 116 333 102 345 c 128,-1,12
 88 357 88 357 88 375 c 128,-1,13
 88 393 88 393 102 405 c 128,-1,14
 116 417 116 417 138 417 c 2,15,-1
 344 414 l 1,16,-1
 555 417 l 2,17,18
 573 417 573 417 589.5 405.5 c 128,-1,19
 606 394 606 394 606 365 c 2,20,-1
 604 305 l 1,0,-1
EndSplineSet
EndChar

StartChar: uni00AD
Encoding: 173 173 111
Width: 428
Flags: W
LayerCount: 2
Fore
SplineSet
312 219 m 2,0,-1
 213 222 l 1,1,-1
 114 219 l 2,2,3
 92 219 92 219 78.5 231 c 128,-1,4
 65 243 65 243 65 261 c 128,-1,5
 65 279 65 279 78.5 291 c 128,-1,6
 92 303 92 303 114 303 c 2,7,-1
 213 300 l 1,8,-1
 312 303 l 2,9,10
 334 303 334 303 347.5 291 c 128,-1,11
 361 279 361 279 361 261 c 128,-1,12
 361 243 361 243 347.5 231 c 128,-1,13
 334 219 334 219 312 219 c 2,0,-1
EndSplineSet
EndChar

StartChar: registered
Encoding: 174 174 112
Width: 776
Flags: W
LayerCount: 2
Fore
SplineSet
554.5 275.5 m 128,-1,1
 624 347 624 347 624 449.5 c 128,-1,2
 624 552 624 552 554.5 623 c 128,-1,3
 485 694 485 694 387.5 694 c 128,-1,4
 290 694 290 694 221 623 c 128,-1,5
 152 552 152 552 152 449.5 c 128,-1,6
 152 347 152 347 221 275.5 c 128,-1,7
 290 204 290 204 387.5 204 c 128,-1,0
 485 204 485 204 554.5 275.5 c 128,-1,1
702 449 m 128,-1,9
 702 318 702 318 610 225.5 c 128,-1,10
 518 133 518 133 388 133 c 128,-1,11
 258 133 258 133 166 225.5 c 128,-1,12
 74 318 74 318 74 449 c 128,-1,13
 74 580 74 580 166 672.5 c 128,-1,14
 258 765 258 765 388 765 c 128,-1,15
 518 765 518 765 610 672.5 c 128,-1,8
 702 580 702 580 702 449 c 128,-1,9
442.5 488 m 128,-1,17
 456 504 456 504 456 525.5 c 128,-1,18
 456 547 456 547 438.5 563 c 128,-1,19
 421 579 421 579 387.5 579 c 128,-1,20
 354 579 354 579 329 572 c 1,21,22
 329 558 329 558 327.5 527 c 128,-1,23
 326 496 326 496 326 477 c 1,24,25
 342 481 342 481 361.5 481 c 128,-1,26
 381 481 381 481 414 470 c 1,27,16
 429 472 429 472 442.5 488 c 128,-1,17
256 461 m 1,28,-1
 251 594 l 1,29,30
 251 647 251 647 380 647 c 0,31,32
 455 647 455 647 493.5 610 c 128,-1,33
 532 573 532 573 532 526 c 0,34,35
 532 454 532 454 456 416 c 1,36,37
 463 404 463 404 472.5 388 c 128,-1,38
 482 372 482 372 487 363.5 c 128,-1,39
 492 355 492 355 498 346 c 0,40,41
 510 330 510 330 528.5 330 c 128,-1,42
 547 330 547 330 547 316 c 0,43,44
 547 295 547 295 532 279.5 c 128,-1,45
 517 264 517 264 499.5 264 c 128,-1,46
 482 264 482 264 471 269.5 c 128,-1,47
 460 275 460 275 449 289 c 0,48,49
 432 311 432 311 412 349.5 c 128,-1,50
 392 388 392 388 386 398 c 1,51,52
 362 395 362 395 348 395 c 128,-1,53
 334 395 334 395 329 396 c 1,54,-1
 331 308 l 2,55,56
 331 289 331 289 320 276 c 128,-1,57
 309 263 309 263 291 263 c 0,58,59
 252 263 252 263 252 308 c 1,60,-1
 256 461 l 1,28,-1
EndSplineSet
EndChar

StartChar: macron
Encoding: 175 175 113
Width: 486
Flags: W
LayerCount: 2
Fore
SplineSet
243 630 m 1,0,-1
 109 627 l 2,1,2
 88 627 88 627 74 639 c 128,-1,3
 60 651 60 651 60 669 c 128,-1,4
 60 687 60 687 73.5 699 c 128,-1,5
 87 711 87 711 109 711 c 2,6,-1
 243 708 l 1,7,-1
 377 711 l 2,8,9
 398 711 398 711 412 699 c 128,-1,10
 426 687 426 687 426 669 c 128,-1,11
 426 651 426 651 412.5 639 c 128,-1,12
 399 627 399 627 377 627 c 2,13,-1
 243 630 l 1,0,-1
EndSplineSet
EndChar

StartChar: degree
Encoding: 176 176 114
Width: 392
Flags: W
LayerCount: 2
Fore
SplineSet
255 613 m 128,-1,1
 255 648 255 648 239.5 671 c 128,-1,2
 224 694 224 694 196 694 c 128,-1,3
 168 694 168 694 152 671 c 128,-1,4
 136 648 136 648 136 613.5 c 128,-1,5
 136 579 136 579 152 556 c 128,-1,6
 168 533 168 533 196 533 c 128,-1,7
 224 533 224 533 239.5 555.5 c 128,-1,0
 255 578 255 578 255 613 c 128,-1,1
295 719.5 m 128,-1,9
 333 676 333 676 333 613.5 c 128,-1,10
 333 551 333 551 295 507.5 c 128,-1,11
 257 464 257 464 196 464 c 128,-1,12
 135 464 135 464 97 507 c 128,-1,13
 59 550 59 550 59 613 c 128,-1,14
 59 676 59 676 97 719.5 c 128,-1,15
 135 763 135 763 196 763 c 128,-1,8
 257 763 257 763 295 719.5 c 128,-1,9
EndSplineSet
EndChar

StartChar: plusminus
Encoding: 177 177 115
Width: 635
Flags: W
LayerCount: 2
Fore
SplineSet
316 91 m 1,0,-1
 126 88 l 2,1,2
 104 88 104 88 90.5 100 c 128,-1,3
 77 112 77 112 77 130 c 128,-1,4
 77 148 77 148 90.5 160 c 128,-1,5
 104 172 104 172 126 172 c 2,6,-1
 316 169 l 1,7,-1
 506 172 l 2,8,9
 528 172 528 172 541.5 160 c 128,-1,10
 555 148 555 148 555 130 c 128,-1,11
 555 112 555 112 541.5 100 c 128,-1,12
 528 88 528 88 506 88 c 2,13,-1
 316 91 l 1,0,-1
127 502 m 2,14,-1
 279 499 l 1,15,16
 279 557 279 557 277 586 c 128,-1,17
 275 615 275 615 275 617 c 0,18,19
 275 640 275 640 286.5 653 c 128,-1,20
 298 666 298 666 317 666 c 128,-1,21
 336 666 336 666 348 652.5 c 128,-1,22
 360 639 360 639 360 616 c 0,23,24
 360 614 360 614 359 600 c 0,25,26
 356 556 356 556 356 498 c 1,27,-1
 508 501 l 2,28,29
 530 501 530 501 544 489 c 128,-1,30
 558 477 558 477 558 459 c 128,-1,31
 558 441 558 441 544 429 c 128,-1,32
 530 417 530 417 508 417 c 2,33,-1
 356 420 l 1,34,-1
 360 289 l 2,35,36
 360 266 360 266 348.5 252 c 128,-1,37
 337 238 337 238 317.5 238 c 128,-1,38
 298 238 298 238 286.5 252.5 c 128,-1,39
 275 267 275 267 275 290 c 2,40,-1
 279 421 l 1,41,-1
 127 418 l 2,42,43
 105 418 105 418 91 430 c 128,-1,44
 77 442 77 442 77 460 c 128,-1,45
 77 478 77 478 91 490 c 128,-1,46
 105 502 105 502 127 502 c 2,14,-1
EndSplineSet
EndChar

StartChar: twosuperior
Encoding: 178 178 116
Width: 425
Flags: W
LayerCount: 2
Fore
SplineSet
208 336 m 1,0,-1
 108 332 l 2,1,2
 89 332 89 332 74 343 c 128,-1,3
 59 354 59 354 59 373 c 128,-1,4
 59 392 59 392 74.5 412.5 c 128,-1,5
 90 433 90 433 124.5 469.5 c 128,-1,6
 159 506 159 506 171.5 521.5 c 128,-1,7
 184 537 184 537 197 552 c 128,-1,8
 210 567 210 567 218.5 578 c 128,-1,9
 227 589 227 589 238 604 c 0,10,11
 260 634 260 634 260 651.5 c 128,-1,12
 260 669 260 669 245.5 681 c 128,-1,13
 231 693 231 693 209.5 693 c 128,-1,14
 188 693 188 693 158.5 671 c 128,-1,15
 129 649 129 649 110 649 c 128,-1,16
 91 649 91 649 81.5 659 c 128,-1,17
 72 669 72 669 72 689 c 128,-1,18
 72 709 72 709 111.5 737 c 128,-1,19
 151 765 151 765 211 765 c 128,-1,20
 271 765 271 765 306.5 733 c 128,-1,21
 342 701 342 701 342 660 c 0,22,23
 342 623 342 623 314 580 c 1,24,25
 293 550 293 550 279 532.5 c 128,-1,26
 265 515 265 515 252.5 498 c 128,-1,27
 240 481 240 481 174 405 c 1,28,29
 241 405 241 405 276 407 c 128,-1,30
 311 409 311 409 317 409 c 0,31,32
 367 409 367 409 367 370.5 c 128,-1,33
 367 332 367 332 317 332 c 1,34,-1
 208 336 l 1,0,-1
EndSplineSet
EndChar

StartChar: threesuperior
Encoding: 179 179 117
Width: 421
Flags: W
LayerCount: 2
Fore
SplineSet
202 750 m 1,0,-1
 283 753 l 1,1,2
 314 753 314 753 329.5 740 c 128,-1,3
 345 727 345 727 345 710.5 c 128,-1,4
 345 694 345 694 335.5 683 c 128,-1,5
 326 672 326 672 300 648.5 c 128,-1,6
 274 625 274 625 252 598 c 1,7,8
 306 584 306 584 335.5 547.5 c 128,-1,9
 365 511 365 511 365 459 c 128,-1,10
 365 407 365 407 320.5 363 c 128,-1,11
 276 319 276 319 202 319 c 0,12,13
 147 319 147 319 102.5 350.5 c 128,-1,14
 58 382 58 382 58 407 c 0,15,16
 58 442 58 442 91 442 c 0,17,18
 109 442 109 442 139.5 417.5 c 128,-1,19
 170 393 170 393 206 393 c 128,-1,20
 242 393 242 393 263.5 412.5 c 128,-1,21
 285 432 285 432 285 464 c 128,-1,22
 285 496 285 496 262 517.5 c 128,-1,23
 239 539 239 539 204 543 c 1,24,25
 167 511 167 511 136 511 c 0,26,27
 91 511 91 511 91 552 c 0,28,29
 91 567 91 567 108 582 c 128,-1,30
 125 597 125 597 158 604 c 1,31,32
 219 660 219 660 237 679 c 1,33,34
 225 680 225 680 192 680 c 1,35,-1
 114 677 l 2,36,37
 93 677 93 677 79.5 686.5 c 128,-1,38
 66 696 66 696 66 713.5 c 128,-1,39
 66 731 66 731 79 742 c 128,-1,40
 92 753 92 753 114 753 c 2,41,-1
 202 750 l 1,0,-1
EndSplineSet
EndChar

StartChar: acute
Encoding: 180 180 118
Width: 320
Flags: W
LayerCount: 2
Fore
SplineSet
240 696 m 0,0,1
 240 652 240 652 192.5 607.5 c 128,-1,2
 145 563 145 563 113 563 c 0,3,4
 97 563 97 563 88.5 571 c 128,-1,5
 80 579 80 579 80 591 c 128,-1,6
 80 603 80 603 104 632.5 c 128,-1,7
 128 662 128 662 137 682 c 128,-1,8
 146 702 146 702 151.5 711.5 c 128,-1,9
 157 721 157 721 169.5 730.5 c 128,-1,10
 182 740 182 740 199.5 740 c 128,-1,11
 217 740 217 740 228.5 726.5 c 128,-1,12
 240 713 240 713 240 696 c 0,0,1
EndSplineSet
EndChar

StartChar: mu
Encoding: 181 181 119
AltUni2: 0003bc.ffffffff.0
Width: 861
Flags: W
LayerCount: 2
Fore
SplineSet
118 -12 m 2,0,-1
 123 382 l 1,1,2
 123 513 123 513 120 598 c 128,-1,3
 117 683 117 683 117 691 c 0,4,5
 117 762 117 762 168 762 c 128,-1,6
 219 762 219 762 219 691 c 0,7,8
 219 685 219 685 218 638 c 0,9,10
 213 499 213 499 213 307 c 0,11,12
 213 211 213 211 266.5 141.5 c 128,-1,13
 320 72 320 72 383.5 72 c 128,-1,14
 447 72 447 72 505.5 159 c 128,-1,15
 564 246 564 246 590 360 c 1,16,-1
 586 688 l 2,17,18
 586 757 586 757 637 757 c 0,19,20
 699 757 699 757 699 655 c 128,-1,21
 699 553 699 553 672 360 c 1,22,23
 672 250 672 250 686.5 173.5 c 128,-1,24
 701 97 701 97 722 88 c 0,25,26
 730 84 730 84 741.5 82.5 c 128,-1,27
 753 81 753 81 758 78 c 128,-1,28
 763 75 763 75 763 67 c 0,29,30
 763 30 763 30 741 7.5 c 128,-1,31
 719 -15 719 -15 685 -15 c 0,32,33
 600 -15 600 -15 600 158 c 1,34,35
 583 128 583 128 574.5 114 c 128,-1,36
 566 100 566 100 542 70.5 c 128,-1,37
 518 41 518 41 496 26 c 0,38,39
 436 -15 436 -15 359 -15 c 128,-1,40
 282 -15 282 -15 218 51 c 1,41,42
 220 -9 220 -9 220 -12 c 0,43,44
 220 -83 220 -83 169 -83 c 128,-1,45
 118 -83 118 -83 118 -12 c 2,0,-1
EndSplineSet
EndChar

StartChar: paragraph
Encoding: 182 182 120
Width: 652
Flags: W
LayerCount: 2
Fore
SplineSet
540 696 m 2,0,-1
 535 266 l 1,1,2
 535 175 535 175 538 75.5 c 128,-1,3
 541 -24 541 -24 541 -27 c 0,4,5
 541 -53 541 -53 528.5 -68.5 c 128,-1,6
 516 -84 516 -84 494 -84 c 128,-1,7
 472 -84 472 -84 459 -68.5 c 128,-1,8
 446 -53 446 -53 446 -36 c 128,-1,9
 446 -19 446 -19 448 25 c 0,10,11
 452 157 452 157 452 266 c 1,12,-1
 447 676 l 1,13,-1
 352 676 l 1,14,-1
 347 266 l 1,15,16
 347 175 347 175 350 75.5 c 128,-1,17
 353 -24 353 -24 353 -27 c 0,18,19
 353 -84 353 -84 305.5 -84 c 128,-1,20
 258 -84 258 -84 258 -27 c 0,21,22
 258 -20 258 -20 260 26 c 0,23,24
 264 164 264 164 264 319 c 1,25,26
 170 324 170 324 112 382.5 c 128,-1,27
 54 441 54 441 54 526 c 0,28,29
 54 632 54 632 120 691.5 c 128,-1,30
 186 751 186 751 302 753 c 1,31,-1
 400 750 l 1,32,-1
 484 753 l 2,33,34
 510 753 510 753 525 737.5 c 128,-1,35
 540 722 540 722 540 696 c 2,0,-1
EndSplineSet
EndChar

StartChar: periodcentered
Encoding: 183 183 121
Width: 259
Flags: W
LayerCount: 2
Fore
SplineSet
171.5 427 m 128,-1,1
 185 410 185 410 185 384 c 128,-1,2
 185 358 185 358 168 336.5 c 128,-1,3
 151 315 151 315 126.5 315 c 128,-1,4
 102 315 102 315 88 333 c 128,-1,5
 74 351 74 351 74 377 c 128,-1,6
 74 403 74 403 90.5 423.5 c 128,-1,7
 107 444 107 444 132.5 444 c 128,-1,0
 158 444 158 444 171.5 427 c 128,-1,1
EndSplineSet
EndChar

StartChar: cedilla
Encoding: 184 184 122
Width: 331
Flags: W
LayerCount: 2
Fore
SplineSet
276 -133 m 0,0,1
 276 -175 276 -175 238.5 -202.5 c 128,-1,2
 201 -230 201 -230 149 -230 c 128,-1,3
 97 -230 97 -230 65.5 -205.5 c 128,-1,4
 34 -181 34 -181 34 -155 c 0,5,6
 34 -146 34 -146 41.5 -138 c 128,-1,7
 49 -130 49 -130 60.5 -130 c 128,-1,8
 72 -130 72 -130 97.5 -142 c 128,-1,9
 123 -154 123 -154 142 -154 c 128,-1,10
 161 -154 161 -154 173 -147 c 128,-1,11
 185 -140 185 -140 185 -130.5 c 128,-1,12
 185 -121 185 -121 170.5 -110.5 c 128,-1,13
 156 -100 156 -100 138.5 -90 c 128,-1,14
 121 -80 121 -80 106.5 -62.5 c 128,-1,15
 92 -45 92 -45 92 -24 c 2,16,-1
 92 19 l 1,17,-1
 173 19 l 1,18,-1
 173 -9 l 2,19,20
 173 -24 173 -24 189 -39 c 128,-1,21
 205 -54 205 -54 224.5 -64.5 c 128,-1,22
 244 -75 244 -75 260 -93 c 128,-1,23
 276 -111 276 -111 276 -133 c 0,0,1
EndSplineSet
EndChar

StartChar: onesuperior
Encoding: 185 185 123
Width: 340
Flags: W
LayerCount: 2
Fore
SplineSet
259 544 m 1,0,-1
 262 377 l 2,1,2
 262 356 262 356 251 343.5 c 128,-1,3
 240 331 240 331 221 331 c 128,-1,4
 202 331 202 331 191 343.5 c 128,-1,5
 180 356 180 356 180 377 c 2,6,-1
 183 544 l 1,7,-1
 183 636 l 1,8,9
 172 625 172 625 159 611.5 c 128,-1,10
 146 598 146 598 138 590 c 2,11,-1
 122 574 l 2,12,13
 113 565 113 565 107.5 561 c 128,-1,14
 102 557 102 557 96 552 c 0,15,16
 86 545 86 545 72.5 545 c 128,-1,17
 59 545 59 545 47.5 554.5 c 128,-1,18
 36 564 36 564 36 577 c 128,-1,19
 36 590 36 590 37.5 596 c 128,-1,20
 39 602 39 602 45.5 610 c 128,-1,21
 52 618 52 618 59 625 c 2,22,-1
 83 649 l 2,23,24
 100 666 100 666 132 700.5 c 128,-1,25
 164 735 164 735 179.5 747.5 c 128,-1,26
 195 760 195 760 218 760 c 0,27,28
 262 760 262 760 262 703 c 1,29,-1
 259 544 l 1,0,-1
EndSplineSet
EndChar

StartChar: ordmasculine
Encoding: 186 186 124
Width: 415
Flags: W
LayerCount: 2
Fore
SplineSet
261 531.5 m 128,-1,1
 280 557 280 557 280 599.5 c 128,-1,2
 280 642 280 642 260.5 669 c 128,-1,3
 241 696 241 696 207.5 696 c 128,-1,4
 174 696 174 696 154.5 669 c 128,-1,5
 135 642 135 642 135 599.5 c 128,-1,6
 135 557 135 557 154 531.5 c 128,-1,7
 173 506 173 506 207.5 506 c 128,-1,0
 242 506 242 506 261 531.5 c 128,-1,1
315 718 m 128,-1,9
 357 671 357 671 357 599.5 c 128,-1,10
 357 528 357 528 315.5 482.5 c 128,-1,11
 274 437 274 437 207 437 c 128,-1,12
 140 437 140 437 99 482.5 c 128,-1,13
 58 528 58 528 58 599 c 128,-1,14
 58 670 58 670 99.5 717.5 c 128,-1,15
 141 765 141 765 207 765 c 128,-1,8
 273 765 273 765 315 718 c 128,-1,9
EndSplineSet
EndChar

StartChar: guillemotright
Encoding: 187 187 125
Width: 594
Flags: W
LayerCount: 2
Fore
SplineSet
301 376 m 128,-1,1
 301 359 301 359 285 341 c 128,-1,2
 269 323 269 323 231.5 292.5 c 128,-1,3
 194 262 194 262 179.5 248.5 c 128,-1,4
 165 235 165 235 157 228 c 0,5,6
 137 212 137 212 116.5 212 c 128,-1,7
 96 212 96 212 84 223.5 c 128,-1,8
 72 235 72 235 72 250.5 c 128,-1,9
 72 266 72 266 82.5 277 c 128,-1,10
 93 288 93 288 121 306 c 128,-1,11
 149 324 149 324 153 327 c 0,12,13
 210 368 210 368 210 376 c 128,-1,14
 210 384 210 384 153 425 c 0,15,16
 145 431 145 431 127 442.5 c 128,-1,17
 109 454 109 454 100 461 c 0,18,19
 72 481 72 481 72 499 c 128,-1,20
 72 517 72 517 84 528.5 c 128,-1,21
 96 540 96 540 113.5 540 c 128,-1,22
 131 540 131 540 144.5 532 c 128,-1,23
 158 524 158 524 176 507 c 128,-1,24
 194 490 194 490 231.5 459.5 c 128,-1,25
 269 429 269 429 285 411 c 128,-1,0
 301 393 301 393 301 376 c 128,-1,1
541 376 m 128,-1,27
 541 359 541 359 525 341 c 128,-1,28
 509 323 509 323 471.5 292.5 c 128,-1,29
 434 262 434 262 419.5 248.5 c 128,-1,30
 405 235 405 235 397 228 c 0,31,32
 377 212 377 212 356.5 212 c 128,-1,33
 336 212 336 212 324 223.5 c 128,-1,34
 312 235 312 235 312 250.5 c 128,-1,35
 312 266 312 266 322.5 277 c 128,-1,36
 333 288 333 288 361 306 c 128,-1,37
 389 324 389 324 393 327 c 0,38,39
 450 368 450 368 450 376 c 128,-1,40
 450 384 450 384 393 425 c 0,41,42
 385 431 385 431 367 442.5 c 128,-1,43
 349 454 349 454 340 461 c 0,44,45
 312 481 312 481 312 499 c 128,-1,46
 312 517 312 517 324 528.5 c 128,-1,47
 336 540 336 540 353.5 540 c 128,-1,48
 371 540 371 540 384.5 532 c 128,-1,49
 398 524 398 524 416 507 c 128,-1,50
 434 490 434 490 471.5 459.5 c 128,-1,51
 509 429 509 429 525 411 c 128,-1,26
 541 393 541 393 541 376 c 128,-1,27
EndSplineSet
EndChar

StartChar: onequarter
Encoding: 188 188 126
Width: 917
Flags: W
LayerCount: 2
Fore
SplineSet
540 531 m 128,-1,1
 505 442 505 442 480.5 374.5 c 128,-1,2
 456 307 456 307 369 47 c 0,3,4
 358 15 358 15 345.5 2.5 c 128,-1,5
 333 -10 333 -10 316 -10 c 128,-1,6
 299 -10 299 -10 286 1 c 128,-1,7
 273 12 273 12 273 30.5 c 128,-1,8
 273 49 273 49 287.5 89 c 128,-1,9
 302 129 302 129 336.5 216.5 c 128,-1,10
 371 304 371 304 397 375.5 c 128,-1,11
 423 447 423 447 462.5 566.5 c 128,-1,12
 502 686 502 686 510 710 c 0,13,14
 526 760 526 760 564 760 c 0,15,16
 578 760 578 760 591 749 c 128,-1,17
 604 738 604 738 604 719.5 c 128,-1,18
 604 701 604 701 589.5 660.5 c 128,-1,0
 575 620 575 620 540 531 c 128,-1,1
617 192 m 1,19,-1
 725 192 l 1,20,21
 726 226 726 226 726 332 c 1,22,23
 684 282 684 282 617 192 c 1,19,-1
799 125 m 1,24,-1
 802 40 l 1,25,26
 802 -10 802 -10 762.5 -10 c 128,-1,27
 723 -10 723 -10 723 40 c 1,28,-1
 726 128 l 1,29,-1
 561 126 l 2,30,31
 539 126 539 126 529 137.5 c 128,-1,32
 519 149 519 149 519 163.5 c 128,-1,33
 519 178 519 178 535.5 202.5 c 128,-1,34
 552 227 552 227 592 278 c 128,-1,35
 632 329 632 329 639 338 c 128,-1,36
 646 347 646 347 658 362.5 c 128,-1,37
 670 378 670 378 681 392 c 0,38,39
 713 434 713 434 747 434 c 0,40,41
 770 434 770 434 786 415.5 c 128,-1,42
 802 397 802 397 802 371 c 0,43,44
 802 370 802 370 800.5 312 c 128,-1,45
 799 254 799 254 799 193 c 1,46,47
 803 194 803 194 813 194 c 0,48,49
 861 194 861 194 861 160 c 0,50,51
 861 124 861 124 809 124 c 1,52,-1
 799 125 l 1,24,-1
271 544 m 1,53,-1
 274 377 l 2,54,55
 274 356 274 356 262.5 343.5 c 128,-1,56
 251 331 251 331 232.5 331 c 128,-1,57
 214 331 214 331 202.5 343.5 c 128,-1,58
 191 356 191 356 191 377 c 2,59,-1
 194 544 l 1,60,-1
 194 636 l 1,61,62
 177 619 177 619 158.5 598 c 128,-1,63
 140 577 140 577 131 567 c 0,64,65
 108 542 108 542 91 542 c 128,-1,66
 74 542 74 542 62.5 552.5 c 128,-1,67
 51 563 51 563 51 576.5 c 128,-1,68
 51 590 51 590 56 598.5 c 128,-1,69
 61 607 61 607 68 614 c 0,70,71
 109 652 109 652 136 683.5 c 128,-1,72
 163 715 163 715 169.5 722 c 128,-1,73
 176 729 176 729 185 738.5 c 128,-1,74
 194 748 194 748 200 752 c 0,75,76
 213 760 213 760 229 760 c 0,77,78
 274 760 274 760 274 703 c 1,79,-1
 271 544 l 1,53,-1
EndSplineSet
EndChar

StartChar: onehalf
Encoding: 189 189 127
Width: 920
Flags: W
LayerCount: 2
Fore
SplineSet
540 531 m 128,-1,1
 505 442 505 442 480.5 374.5 c 128,-1,2
 456 307 456 307 369 47 c 0,3,4
 358 15 358 15 345.5 2.5 c 128,-1,5
 333 -10 333 -10 316 -10 c 128,-1,6
 299 -10 299 -10 286 1 c 128,-1,7
 273 12 273 12 273 30.5 c 128,-1,8
 273 49 273 49 287.5 89 c 128,-1,9
 302 129 302 129 336.5 216.5 c 128,-1,10
 371 304 371 304 397 375.5 c 128,-1,11
 423 447 423 447 462.5 566.5 c 128,-1,12
 502 686 502 686 510 710 c 0,13,14
 526 760 526 760 564 760 c 0,15,16
 578 760 578 760 591 749 c 128,-1,17
 604 738 604 738 604 719.5 c 128,-1,18
 604 701 604 701 589.5 660.5 c 128,-1,0
 575 620 575 620 540 531 c 128,-1,1
271 544 m 1,19,-1
 274 377 l 2,20,21
 274 356 274 356 262.5 343.5 c 128,-1,22
 251 331 251 331 232.5 331 c 128,-1,23
 214 331 214 331 202.5 343.5 c 128,-1,24
 191 356 191 356 191 377 c 2,25,-1
 194 544 l 1,26,-1
 194 636 l 1,27,28
 177 619 177 619 158.5 598 c 128,-1,29
 140 577 140 577 131 567 c 0,30,31
 108 542 108 542 91 542 c 128,-1,32
 74 542 74 542 62.5 552.5 c 128,-1,33
 51 563 51 563 51 576.5 c 128,-1,34
 51 590 51 590 56 598.5 c 128,-1,35
 61 607 61 607 68 614 c 0,36,37
 109 652 109 652 136 683.5 c 128,-1,38
 163 715 163 715 169.5 722 c 128,-1,39
 176 729 176 729 185 738.5 c 128,-1,40
 194 748 194 748 200 752 c 0,41,42
 213 760 213 760 229 760 c 0,43,44
 274 760 274 760 274 703 c 1,45,-1
 271 544 l 1,19,-1
671 70 m 1,46,-1
 808 75 l 1,47,48
 859 75 859 75 859 36 c 128,-1,49
 859 -3 859 -3 808 -3 c 1,50,-1
 705 1 l 1,51,-1
 614 -3 l 2,52,53
 595 -3 595 -3 580.5 8.5 c 128,-1,54
 566 20 566 20 566 39 c 128,-1,55
 566 58 566 58 575.5 73 c 128,-1,56
 585 88 585 88 619 127.5 c 128,-1,57
 653 167 653 167 665.5 183.5 c 128,-1,58
 678 200 678 200 692 217 c 128,-1,59
 706 234 706 234 713 243.5 c 128,-1,60
 720 253 720 253 730 268 c 0,61,62
 751 299 751 299 751 316.5 c 128,-1,63
 751 334 751 334 738 346 c 128,-1,64
 725 358 725 358 700 358 c 128,-1,65
 675 358 675 358 652.5 336 c 128,-1,66
 630 314 630 314 614 314 c 128,-1,67
 598 314 598 314 588 324 c 128,-1,68
 578 334 578 334 578 354 c 128,-1,69
 578 374 578 374 615 402 c 128,-1,70
 652 430 652 430 709 430 c 128,-1,71
 766 430 766 430 800 398 c 128,-1,72
 834 366 834 366 834 328.5 c 128,-1,73
 834 291 834 291 807 247.5 c 128,-1,74
 780 204 780 204 733 147.5 c 128,-1,75
 686 91 686 91 671 70 c 1,46,-1
EndSplineSet
EndChar

StartChar: threequarters
Encoding: 190 190 128
Width: 968
Flags: W
LayerCount: 2
Fore
SplineSet
593 531 m 128,-1,1
 558 442 558 442 533.5 374.5 c 128,-1,2
 509 307 509 307 422 47 c 0,3,4
 411 15 411 15 398.5 2.5 c 128,-1,5
 386 -10 386 -10 369 -10 c 128,-1,6
 352 -10 352 -10 339 1 c 128,-1,7
 326 12 326 12 326 30.5 c 128,-1,8
 326 49 326 49 340.5 89 c 128,-1,9
 355 129 355 129 389.5 216.5 c 128,-1,10
 424 304 424 304 450 375.5 c 128,-1,11
 476 447 476 447 515.5 566.5 c 128,-1,12
 555 686 555 686 563 710 c 0,13,14
 579 760 579 760 617 760 c 0,15,16
 631 760 631 760 644 749 c 128,-1,17
 657 738 657 738 657 719.5 c 128,-1,18
 657 701 657 701 642.5 660.5 c 128,-1,0
 628 620 628 620 593 531 c 128,-1,1
670 192 m 1,19,-1
 778 192 l 1,20,21
 779 226 779 226 779 332 c 1,22,23
 737 282 737 282 670 192 c 1,19,-1
852 125 m 1,24,-1
 855 40 l 1,25,26
 855 -10 855 -10 815.5 -10 c 128,-1,27
 776 -10 776 -10 776 40 c 1,28,-1
 779 128 l 1,29,-1
 614 126 l 2,30,31
 592 126 592 126 582 137.5 c 128,-1,32
 572 149 572 149 572 163.5 c 128,-1,33
 572 178 572 178 588.5 202.5 c 128,-1,34
 605 227 605 227 645 278 c 128,-1,35
 685 329 685 329 692 338 c 128,-1,36
 699 347 699 347 711 362.5 c 128,-1,37
 723 378 723 378 734 392 c 0,38,39
 766 434 766 434 800 434 c 0,40,41
 823 434 823 434 839 415.5 c 128,-1,42
 855 397 855 397 855 371 c 0,43,44
 855 370 855 370 853.5 312 c 128,-1,45
 852 254 852 254 852 193 c 1,46,47
 856 194 856 194 866 194 c 0,48,49
 914 194 914 194 914 160 c 0,50,51
 914 124 914 124 862 124 c 1,52,-1
 852 125 l 1,24,-1
203 750 m 1,53,-1
 278 752 l 1,54,55
 341 752 341 752 341 709 c 0,56,57
 341 683 341 683 284 630 c 0,58,59
 259 606 259 606 252 598 c 1,60,61
 304 584 304 584 332.5 547.5 c 128,-1,62
 361 511 361 511 361 459 c 128,-1,63
 361 407 361 407 315 363 c 128,-1,64
 269 319 269 319 193 319 c 0,65,66
 144 319 144 319 104 350.5 c 128,-1,67
 64 382 64 382 64 407 c 0,68,69
 64 442 64 442 97 442 c 0,70,71
 112 442 112 442 139 417.5 c 128,-1,72
 166 393 166 393 200.5 393 c 128,-1,73
 235 393 235 393 257.5 412.5 c 128,-1,74
 280 432 280 432 280 464 c 128,-1,75
 280 496 280 496 258.5 517.5 c 128,-1,76
 237 539 237 539 205 543 c 1,77,78
 184 511 184 511 146 511 c 0,79,80
 127 511 127 511 114.5 521.5 c 128,-1,81
 102 532 102 532 102 549.5 c 128,-1,82
 102 567 102 567 117.5 582 c 128,-1,83
 133 597 133 597 164 604 c 1,84,85
 217 656 217 656 238 679 c 1,86,-1
 119 678 l 2,87,88
 72 678 72 678 72 713 c 0,89,90
 72 731 72 731 84.5 741.5 c 128,-1,91
 97 752 97 752 119 752 c 2,92,-1
 203 750 l 1,53,-1
EndSplineSet
EndChar

StartChar: questiondown
Encoding: 191 191 129
Width: 503
Flags: W
LayerCount: 2
Fore
SplineSet
249 586 m 128,-1,1
 236 603 236 603 236 628.5 c 128,-1,2
 236 654 236 654 253 675 c 128,-1,3
 270 696 270 696 294 696 c 128,-1,4
 318 696 318 696 331.5 677.5 c 128,-1,5
 345 659 345 659 345 634 c 128,-1,6
 345 609 345 609 328.5 589 c 128,-1,7
 312 569 312 569 287 569 c 128,-1,0
 262 569 262 569 249 586 c 128,-1,1
57 101 m 0,8,9
 57 139 57 139 73.5 175 c 128,-1,10
 90 211 90 211 105.5 229.5 c 128,-1,11
 121 248 121 248 153 281 c 1,12,13
 183 306 183 306 198.5 320.5 c 128,-1,14
 214 335 214 335 228.5 359 c 128,-1,15
 243 383 243 383 243 407 c 0,16,17
 243 473 243 473 288 473 c 0,18,19
 308 473 308 473 321 455.5 c 128,-1,20
 334 438 334 438 334 409 c 128,-1,21
 334 380 334 380 326 356 c 128,-1,22
 318 332 318 332 298 308 c 0,23,24
 273 278 273 278 225 235 c 1,25,26
 201 208 201 208 189 193 c 128,-1,27
 177 178 177 178 165 152 c 128,-1,28
 153 126 153 126 153 101 c 0,29,30
 153 58 153 58 185.5 30.5 c 128,-1,31
 218 3 218 3 259 3 c 0,32,33
 320 3 320 3 364 47 c 1,34,35
 388 75 388 75 407.5 75 c 128,-1,36
 427 75 427 75 438 62.5 c 128,-1,37
 449 50 449 50 449 33 c 0,38,39
 449 -5 449 -5 391.5 -45 c 128,-1,40
 334 -85 334 -85 264 -85 c 0,41,42
 172 -85 172 -85 114.5 -31.5 c 128,-1,43
 57 22 57 22 57 101 c 0,8,9
EndSplineSet
EndChar

StartChar: Aacute
Encoding: 193 193 131
Width: 682
Flags: W
LayerCount: 2
Fore
SplineSet
461 946 m 0,0,1
 461 902 461 902 413.5 857.5 c 128,-1,2
 366 813 366 813 334 813 c 0,3,4
 318 813 318 813 309.5 821 c 128,-1,5
 301 829 301 829 301 841 c 128,-1,6
 301 853 301 853 325 882.5 c 128,-1,7
 349 912 349 912 358 932 c 128,-1,8
 367 952 367 952 372.5 961.5 c 128,-1,9
 378 971 378 971 390.5 980.5 c 128,-1,10
 403 990 403 990 420.5 990 c 128,-1,11
 438 990 438 990 449.5 976.5 c 128,-1,12
 461 963 461 963 461 946 c 0,0,1
227 328 m 1,13,14
 291 326 291 326 350.5 326 c 128,-1,15
 410 326 410 326 446 328 c 1,16,17
 340 633 340 633 339 633 c 0,18,19
 333 633 333 633 254 404 c 1,20,-1
 227 328 l 1,13,14
471 241 m 1,21,-1
 342 244 l 1,22,23
 246 244 246 244 202 242 c 1,24,25
 191 209 191 209 170.5 138.5 c 128,-1,26
 150 68 150 68 137 29 c 128,-1,27
 124 -10 124 -10 91 -10 c 0,28,29
 72 -10 72 -10 60.5 2 c 128,-1,30
 49 14 49 14 49 28.5 c 128,-1,31
 49 43 49 43 50.5 52 c 128,-1,32
 52 61 52 61 57.5 79 c 128,-1,33
 63 97 63 97 68 113 c 0,34,35
 98 199 98 199 111 239 c 1,36,37
 82 239 82 239 65.5 251.5 c 128,-1,38
 49 264 49 264 49 285 c 0,39,40
 49 332 49 332 123 332 c 2,41,-1
 141 332 l 1,42,43
 198 492 198 492 254 644 c 1,44,-1
 260 661 l 2,45,46
 279 716 279 716 292 730 c 0,47,48
 318 760 318 760 335.5 760 c 128,-1,49
 353 760 353 760 362 757 c 128,-1,50
 371 754 371 754 379 746 c 128,-1,51
 387 738 387 738 392.5 729 c 128,-1,52
 398 720 398 720 405.5 701 c 128,-1,53
 413 682 413 682 418 666 c 0,54,55
 467 519 467 519 539 332 c 1,56,-1
 575 333 l 2,57,58
 601 333 601 333 617.5 319 c 128,-1,59
 634 305 634 305 634 284 c 0,60,61
 634 240 634 240 568 237 c 1,62,63
 578 205 578 205 596 156 c 0,64,65
 634 50 634 50 634 33.5 c 128,-1,66
 634 17 634 17 622.5 3.5 c 128,-1,67
 611 -10 611 -10 591 -10 c 0,68,69
 555 -10 555 -10 539 29 c 1,70,71
 522 78 522 78 471 241 c 1,21,-1
EndSplineSet
EndChar

StartChar: Atilde
Encoding: 195 195 133
Width: 682
Flags: W
LayerCount: 2
Fore
SplineSet
539 915 m 0,0,1
 539 879 539 879 508 852 c 128,-1,2
 477 825 477 825 438 825 c 128,-1,3
 399 825 399 825 345 856 c 1,4,5
 301 878 301 878 279 878 c 128,-1,6
 257 878 257 878 232.5 848.5 c 128,-1,7
 208 819 208 819 187.5 819 c 128,-1,8
 167 819 167 819 154.5 831.5 c 128,-1,9
 142 844 142 844 142 862 c 0,10,11
 142 898 142 898 179 926.5 c 128,-1,12
 216 955 216 955 265 955 c 128,-1,13
 314 955 314 955 367 927.5 c 128,-1,14
 420 900 420 900 437.5 900 c 128,-1,15
 455 900 455 900 475.5 925 c 128,-1,16
 496 950 496 950 509.5 950 c 128,-1,17
 523 950 523 950 531 939.5 c 128,-1,18
 539 929 539 929 539 915 c 0,0,1
227 328 m 1,19,20
 291 326 291 326 350.5 326 c 128,-1,21
 410 326 410 326 446 328 c 1,22,23
 340 633 340 633 339 633 c 0,24,25
 333 633 333 633 254 404 c 1,26,-1
 227 328 l 1,19,20
471 241 m 1,27,-1
 342 244 l 1,28,29
 246 244 246 244 202 242 c 1,30,31
 191 209 191 209 170.5 138.5 c 128,-1,32
 150 68 150 68 137 29 c 128,-1,33
 124 -10 124 -10 91 -10 c 0,34,35
 72 -10 72 -10 60.5 2 c 128,-1,36
 49 14 49 14 49 28.5 c 128,-1,37
 49 43 49 43 50.5 52 c 128,-1,38
 52 61 52 61 57.5 79 c 128,-1,39
 63 97 63 97 68 113 c 0,40,41
 98 199 98 199 111 239 c 1,42,43
 82 239 82 239 65.5 251.5 c 128,-1,44
 49 264 49 264 49 285 c 0,45,46
 49 332 49 332 123 332 c 2,47,-1
 141 332 l 1,48,49
 198 492 198 492 254 644 c 1,50,-1
 260 661 l 2,51,52
 279 716 279 716 292 730 c 0,53,54
 318 760 318 760 335.5 760 c 128,-1,55
 353 760 353 760 362 757 c 128,-1,56
 371 754 371 754 379 746 c 128,-1,57
 387 738 387 738 392.5 729 c 128,-1,58
 398 720 398 720 405.5 701 c 128,-1,59
 413 682 413 682 418 666 c 0,60,61
 467 519 467 519 539 332 c 1,62,-1
 575 333 l 2,63,64
 601 333 601 333 617.5 319 c 128,-1,65
 634 305 634 305 634 284 c 0,66,67
 634 240 634 240 568 237 c 1,68,69
 578 205 578 205 596 156 c 0,70,71
 634 50 634 50 634 33.5 c 128,-1,72
 634 17 634 17 622.5 3.5 c 128,-1,73
 611 -10 611 -10 591 -10 c 0,74,75
 555 -10 555 -10 539 29 c 1,76,77
 522 78 522 78 471 241 c 1,27,-1
EndSplineSet
EndChar

StartChar: Aring
Encoding: 197 197 135
Width: 682
Flags: W
LayerCount: 2
Fore
SplineSet
379 914 m 128,-1,1
 379 929 379 929 367 942 c 128,-1,2
 355 955 355 955 340.5 955 c 128,-1,3
 326 955 326 955 314.5 942.5 c 128,-1,4
 303 930 303 930 303 914.5 c 128,-1,5
 303 899 303 899 314 887 c 128,-1,6
 325 875 325 875 340.5 875 c 128,-1,7
 356 875 356 875 367.5 887 c 128,-1,0
 379 899 379 899 379 914 c 128,-1,1
414.5 986 m 128,-1,9
 444 956 444 956 444 913.5 c 128,-1,10
 444 871 444 871 415.5 843 c 128,-1,11
 387 815 387 815 341 815 c 128,-1,12
 295 815 295 815 266.5 843 c 128,-1,13
 238 871 238 871 238 914 c 128,-1,14
 238 957 238 957 267.5 986.5 c 128,-1,15
 297 1016 297 1016 341 1016 c 128,-1,8
 385 1016 385 1016 414.5 986 c 128,-1,9
227 328 m 1,16,17
 291 326 291 326 350.5 326 c 128,-1,18
 410 326 410 326 446 328 c 1,19,20
 340 633 340 633 339 633 c 0,21,22
 333 633 333 633 254 404 c 1,23,-1
 227 328 l 1,16,17
471 241 m 1,24,-1
 342 244 l 1,25,26
 246 244 246 244 202 242 c 1,27,28
 191 209 191 209 170.5 138.5 c 128,-1,29
 150 68 150 68 137 29 c 128,-1,30
 124 -10 124 -10 91 -10 c 0,31,32
 72 -10 72 -10 60.5 2 c 128,-1,33
 49 14 49 14 49 28.5 c 128,-1,34
 49 43 49 43 50.5 52 c 128,-1,35
 52 61 52 61 57.5 79 c 128,-1,36
 63 97 63 97 68 113 c 0,37,38
 98 199 98 199 111 239 c 1,39,40
 82 239 82 239 65.5 251.5 c 128,-1,41
 49 264 49 264 49 285 c 0,42,43
 49 332 49 332 123 332 c 2,44,-1
 141 332 l 1,45,46
 198 492 198 492 254 644 c 1,47,-1
 260 661 l 2,48,49
 279 716 279 716 292 730 c 0,50,51
 318 760 318 760 335.5 760 c 128,-1,52
 353 760 353 760 362 757 c 128,-1,53
 371 754 371 754 379 746 c 128,-1,54
 387 738 387 738 392.5 729 c 128,-1,55
 398 720 398 720 405.5 701 c 128,-1,56
 413 682 413 682 418 666 c 0,57,58
 467 519 467 519 539 332 c 1,59,-1
 575 333 l 2,60,61
 601 333 601 333 617.5 319 c 128,-1,62
 634 305 634 305 634 284 c 0,63,64
 634 240 634 240 568 237 c 1,65,66
 578 205 578 205 596 156 c 0,67,68
 634 50 634 50 634 33.5 c 128,-1,69
 634 17 634 17 622.5 3.5 c 128,-1,70
 611 -10 611 -10 591 -10 c 0,71,72
 555 -10 555 -10 539 29 c 1,73,74
 522 78 522 78 471 241 c 1,24,-1
EndSplineSet
EndChar

StartChar: AE
Encoding: 198 198 136
Width: 881
Flags: W
LayerCount: 2
Fore
SplineSet
671 0 m 1,0,-1
 498 -5 l 1,1,2
 440 -5 440 -5 431 44 c 0,3,4
 415 131 415 131 398 242 c 1,5,6
 372 243 372 243 298 243 c 128,-1,7
 224 243 224 243 202 242 c 1,8,9
 191 209 191 209 170.5 138.5 c 128,-1,10
 150 68 150 68 137 29 c 128,-1,11
 124 -10 124 -10 91 -10 c 0,12,13
 72 -10 72 -10 60.5 2 c 128,-1,14
 49 14 49 14 49 28.5 c 128,-1,15
 49 43 49 43 50.5 52 c 128,-1,16
 52 61 52 61 57.5 79 c 128,-1,17
 63 97 63 97 68 113 c 0,18,19
 98 199 98 199 111 239 c 1,20,21
 82 239 82 239 65.5 251.5 c 128,-1,22
 49 264 49 264 49 285 c 0,23,24
 49 332 49 332 123 332 c 2,25,-1
 141 332 l 1,26,27
 198 492 198 492 226.5 569 c 128,-1,28
 255 646 255 646 260 660.5 c 128,-1,29
 265 675 265 675 268.5 684.5 c 128,-1,30
 272 694 272 694 279.5 708.5 c 128,-1,31
 287 723 287 723 294 732 c 0,32,33
 314 755 314 755 336 755 c 2,34,-1
 543 750 l 1,35,-1
 672 756 l 1,36,37
 699 756 699 756 715.5 743.5 c 128,-1,38
 732 731 732 731 732 709 c 128,-1,39
 732 687 732 687 715.5 674.5 c 128,-1,40
 699 662 699 662 672 662 c 1,41,-1
 543 668 l 1,42,43
 471 668 471 668 414 663 c 1,44,45
 415 662 415 662 454 446 c 1,46,47
 488 444 488 444 528 444 c 1,48,-1
 677 449 l 2,49,50
 704 449 704 449 720 436.5 c 128,-1,51
 736 424 736 424 736 403 c 0,52,53
 736 359 736 359 677 359 c 1,54,-1
 528 363 l 1,55,56
 490 363 490 363 470 362 c 1,57,58
 513 124 513 124 522 89 c 1,59,60
 601 82 601 82 671 82 c 1,61,-1
 800 88 l 1,62,63
 827 88 827 88 843.5 75.5 c 128,-1,64
 860 63 860 63 860 41 c 128,-1,65
 860 19 860 19 843.5 6.5 c 128,-1,66
 827 -6 827 -6 800 -6 c 1,67,-1
 671 0 l 1,0,-1
333 623 m 1,68,69
 327 623 327 623 252 402 c 2,70,-1
 227 328 l 1,71,72
 275 325 275 325 305 325 c 128,-1,73
 335 325 335 325 355.5 325.5 c 128,-1,74
 376 326 376 326 387 326 c 1,75,76
 348 563 348 563 333 623 c 1,68,69
EndSplineSet
EndChar

StartChar: Ccedilla
Encoding: 199 199 137
Width: 698
Flags: W
LayerCount: 2
Fore
SplineSet
510 -133 m 0,0,1
 510 -175 510 -175 472.5 -202.5 c 128,-1,2
 435 -230 435 -230 383 -230 c 128,-1,3
 331 -230 331 -230 299.5 -205.5 c 128,-1,4
 268 -181 268 -181 268 -155 c 0,5,6
 268 -146 268 -146 275.5 -138 c 128,-1,7
 283 -130 283 -130 294.5 -130 c 128,-1,8
 306 -130 306 -130 331.5 -142 c 128,-1,9
 357 -154 357 -154 376 -154 c 128,-1,10
 395 -154 395 -154 407 -147 c 128,-1,11
 419 -140 419 -140 419 -131 c 128,-1,12
 419 -122 419 -122 404.5 -111.5 c 128,-1,13
 390 -101 390 -101 373 -90.5 c 128,-1,14
 356 -80 356 -80 341 -57.5 c 128,-1,15
 326 -35 326 -35 326 -6 c 1,16,17
 210 22 210 22 138.5 128.5 c 128,-1,18
 67 235 67 235 67 376 c 0,19,20
 67 539 67 539 162.5 652 c 128,-1,21
 258 765 258 765 402 765 c 0,22,23
 490 765 490 765 559.5 732 c 128,-1,24
 629 699 629 699 629 658 c 0,25,26
 629 638 629 638 617 626 c 128,-1,27
 605 614 605 614 585.5 614 c 128,-1,28
 566 614 566 614 530 637 c 1,29,30
 472 678 472 678 402 678 c 0,31,32
 298 678 298 678 230.5 588.5 c 128,-1,33
 163 499 163 499 163 376.5 c 128,-1,34
 163 254 163 254 230.5 163 c 128,-1,35
 298 72 298 72 396 72 c 128,-1,36
 494 72 494 72 575 121 c 1,37,38
 608 139 608 139 619.5 139 c 128,-1,39
 631 139 631 139 640.5 129.5 c 128,-1,40
 650 120 650 120 650 106 c 0,41,42
 650 71 650 71 578 29 c 128,-1,43
 506 -13 506 -13 407 -15 c 1,44,45
 410 -32 410 -32 436 -49 c 128,-1,46
 462 -66 462 -66 486 -86 c 128,-1,47
 510 -106 510 -106 510 -133 c 0,0,1
EndSplineSet
EndChar

StartChar: Eacute
Encoding: 201 201 139
Width: 629
Flags: W
LayerCount: 2
Fore
SplineSet
434 946 m 0,0,1
 434 902 434 902 386.5 857.5 c 128,-1,2
 339 813 339 813 307 813 c 0,3,4
 291 813 291 813 282.5 821 c 128,-1,5
 274 829 274 829 274 841 c 128,-1,6
 274 853 274 853 298 882.5 c 128,-1,7
 322 912 322 912 331 932 c 128,-1,8
 340 952 340 952 345.5 961.5 c 128,-1,9
 351 971 351 971 363.5 980.5 c 128,-1,10
 376 990 376 990 393.5 990 c 128,-1,11
 411 990 411 990 422.5 976.5 c 128,-1,12
 434 963 434 963 434 946 c 0,0,1
509 662 m 1,13,-1
 350 668 l 1,14,15
 273 668 273 668 213 663 c 1,16,-1
 213 441 l 1,17,18
 232 440 232 440 279 440 c 1,19,-1
 458 445 l 2,20,21
 485 445 485 445 501 432.5 c 128,-1,22
 517 420 517 420 517 399 c 0,23,24
 517 355 517 355 458 355 c 1,25,-1
 279 359 l 2,26,27
 236 359 236 359 213 358 c 1,28,-1
 213 279 l 2,29,30
 213 133 213 133 217 87 c 1,31,32
 277 82 277 82 353 82 c 1,33,-1
 512 88 l 1,34,35
 539 88 539 88 555.5 75.5 c 128,-1,36
 572 63 572 63 572 41 c 128,-1,37
 572 19 572 19 555.5 6.5 c 128,-1,38
 539 -6 539 -6 512 -6 c 1,39,-1
 353 0 l 1,40,-1
 172 -5 l 1,41,42
 118 -5 118 -5 118 41 c 0,43,44
 118 76 118 76 120.5 155.5 c 128,-1,45
 123 235 123 235 123 355 c 1,46,47
 56 355 56 355 56 399 c 0,48,49
 56 422 56 422 75 433.5 c 128,-1,50
 94 445 94 445 123 445 c 1,51,52
 121 632 121 632 116 670 c 1,53,54
 104 689 104 689 104 710 c 0,55,56
 104 755 104 755 166 755 c 1,57,-1
 350 750 l 1,58,-1
 509 756 l 1,59,60
 536 756 536 756 552.5 743.5 c 128,-1,61
 569 731 569 731 569 709 c 128,-1,62
 569 687 569 687 552.5 674.5 c 128,-1,63
 536 662 536 662 509 662 c 1,13,-1
EndSplineSet
EndChar

StartChar: Ecircumflex
Encoding: 202 202 140
Width: 629
Flags: W
LayerCount: 2
Fore
SplineSet
410 842 m 0,0,1
 341 923 341 923 326 923 c 256,2,3
 311 923 311 923 247 846 c 0,4,5
 242 840 242 840 240 838 c 2,6,-1
 232 830 l 2,7,8
 219 817 219 817 201.5 817 c 128,-1,9
 184 817 184 817 173 827.5 c 128,-1,10
 162 838 162 838 162 856.5 c 128,-1,11
 162 875 162 875 188 896.5 c 128,-1,12
 214 918 214 918 240.5 948 c 128,-1,13
 267 978 267 978 286 994 c 128,-1,14
 305 1010 305 1010 326.5 1010 c 128,-1,15
 348 1010 348 1010 367.5 994 c 128,-1,16
 387 978 387 978 413 948 c 128,-1,17
 439 918 439 918 465.5 896 c 128,-1,18
 492 874 492 874 492 856 c 128,-1,19
 492 838 492 838 481 827.5 c 128,-1,20
 470 817 470 817 457 817 c 128,-1,21
 444 817 444 817 436 822 c 0,22,23
 422 829 422 829 410 842 c 0,0,1
509 662 m 1,24,-1
 350 668 l 1,25,26
 273 668 273 668 213 663 c 1,27,-1
 213 441 l 1,28,29
 232 440 232 440 279 440 c 1,30,-1
 458 445 l 2,31,32
 485 445 485 445 501 432.5 c 128,-1,33
 517 420 517 420 517 399 c 0,34,35
 517 355 517 355 458 355 c 1,36,-1
 279 359 l 2,37,38
 236 359 236 359 213 358 c 1,39,-1
 213 279 l 2,40,41
 213 133 213 133 217 87 c 1,42,43
 277 82 277 82 353 82 c 1,44,-1
 512 88 l 1,45,46
 539 88 539 88 555.5 75.5 c 128,-1,47
 572 63 572 63 572 41 c 128,-1,48
 572 19 572 19 555.5 6.5 c 128,-1,49
 539 -6 539 -6 512 -6 c 1,50,-1
 353 0 l 1,51,-1
 172 -5 l 1,52,53
 118 -5 118 -5 118 41 c 0,54,55
 118 76 118 76 120.5 155.5 c 128,-1,56
 123 235 123 235 123 355 c 1,57,58
 56 355 56 355 56 399 c 0,59,60
 56 422 56 422 75 433.5 c 128,-1,61
 94 445 94 445 123 445 c 1,62,63
 121 632 121 632 116 670 c 1,64,65
 104 689 104 689 104 710 c 0,66,67
 104 755 104 755 166 755 c 1,68,-1
 350 750 l 1,69,-1
 509 756 l 1,70,71
 536 756 536 756 552.5 743.5 c 128,-1,72
 569 731 569 731 569 709 c 128,-1,73
 569 687 569 687 552.5 674.5 c 128,-1,74
 536 662 536 662 509 662 c 1,24,-1
EndSplineSet
EndChar

StartChar: Iacute
Encoding: 205 205 143
Width: 492
Flags: W
LayerCount: 2
Fore
SplineSet
355 946 m 0,0,1
 355 902 355 902 307.5 857.5 c 128,-1,2
 260 813 260 813 228 813 c 0,3,4
 212 813 212 813 203.5 821 c 128,-1,5
 195 829 195 829 195 841 c 128,-1,6
 195 853 195 853 219 882.5 c 128,-1,7
 243 912 243 912 252 932 c 128,-1,8
 261 952 261 952 266.5 961.5 c 128,-1,9
 272 971 272 971 284.5 980.5 c 128,-1,10
 297 990 297 990 314.5 990 c 128,-1,11
 332 990 332 990 343.5 976.5 c 128,-1,12
 355 963 355 963 355 946 c 0,0,1
385 661 m 1,13,-1
 295 665 l 1,14,15
 291 568 291 568 291 386.5 c 128,-1,16
 291 205 291 205 296 83 c 1,17,-1
 385 88 l 1,18,19
 412 88 412 88 428.5 75.5 c 128,-1,20
 445 63 445 63 445 41 c 128,-1,21
 445 19 445 19 428.5 6.5 c 128,-1,22
 412 -6 412 -6 385 -6 c 1,23,-1
 246 0 l 1,24,-1
 107 -7 l 1,25,26
 80 -7 80 -7 63.5 5.5 c 128,-1,27
 47 18 47 18 47 40 c 128,-1,28
 47 62 47 62 63.5 74.5 c 128,-1,29
 80 87 80 87 107 87 c 1,30,-1
 196 82 l 1,31,32
 201 204 201 204 201 386 c 128,-1,33
 201 568 201 568 197 665 c 1,34,-1
 107 661 l 1,35,36
 80 661 80 661 63.5 673.5 c 128,-1,37
 47 686 47 686 47 708 c 128,-1,38
 47 730 47 730 63.5 742.5 c 128,-1,39
 80 755 80 755 107 755 c 2,40,-1
 246 750 l 1,41,-1
 385 756 l 1,42,43
 412 756 412 756 428.5 743.5 c 128,-1,44
 445 731 445 731 445 709 c 128,-1,45
 445 687 445 687 428.5 674 c 128,-1,46
 412 661 412 661 385 661 c 1,13,-1
EndSplineSet
EndChar

StartChar: Icircumflex
Encoding: 206 206 144
Width: 476
Flags: W
LayerCount: 2
Fore
SplineSet
324 842 m 0,0,1
 255 923 255 923 240 923 c 256,2,3
 225 923 225 923 161 846 c 0,4,5
 156 840 156 840 154 838 c 2,6,-1
 146 830 l 2,7,8
 133 817 133 817 115.5 817 c 128,-1,9
 98 817 98 817 87 827.5 c 128,-1,10
 76 838 76 838 76 856.5 c 128,-1,11
 76 875 76 875 102 896.5 c 128,-1,12
 128 918 128 918 154.5 948 c 128,-1,13
 181 978 181 978 200 994 c 128,-1,14
 219 1010 219 1010 240.5 1010 c 128,-1,15
 262 1010 262 1010 281.5 994 c 128,-1,16
 301 978 301 978 327 948 c 128,-1,17
 353 918 353 918 379.5 896 c 128,-1,18
 406 874 406 874 406 856 c 128,-1,19
 406 838 406 838 395 827.5 c 128,-1,20
 384 817 384 817 371 817 c 128,-1,21
 358 817 358 817 350 822 c 0,22,23
 336 829 336 829 324 842 c 0,0,1
369 661 m 1,24,-1
 287 665 l 1,25,26
 283 568 283 568 283 386.5 c 128,-1,27
 283 205 283 205 288 83 c 1,28,-1
 369 87 l 1,29,30
 396 87 396 87 412.5 74.5 c 128,-1,31
 429 62 429 62 429 40.5 c 128,-1,32
 429 19 429 19 412.5 6.5 c 128,-1,33
 396 -6 396 -6 369 -6 c 1,34,-1
 238 0 l 1,35,-1
 107 -6 l 1,36,37
 80 -6 80 -6 63.5 6.5 c 128,-1,38
 47 19 47 19 47 40.5 c 128,-1,39
 47 62 47 62 63.5 74.5 c 128,-1,40
 80 87 80 87 107 87 c 1,41,-1
 188 82 l 1,42,43
 193 204 193 204 193 386 c 128,-1,44
 193 568 193 568 189 665 c 1,45,-1
 107 661 l 1,46,47
 80 661 80 661 63.5 674 c 128,-1,48
 47 687 47 687 47 709 c 128,-1,49
 47 731 47 731 63.5 743.5 c 128,-1,50
 80 756 80 756 107 756 c 1,51,-1
 238 750 l 1,52,-1
 369 756 l 1,53,54
 396 756 396 756 412.5 743.5 c 128,-1,55
 429 731 429 731 429 709 c 128,-1,56
 429 687 429 687 412.5 674 c 128,-1,57
 396 661 396 661 369 661 c 1,24,-1
EndSplineSet
EndChar

StartChar: Eth
Encoding: 208 208 146
Width: 760
Flags: W
LayerCount: 2
Fore
SplineSet
580 265 m 128,-1,1
 598 319 598 319 598 387 c 128,-1,2
 598 455 598 455 567 522 c 128,-1,3
 536 589 536 589 469 633.5 c 128,-1,4
 402 678 402 678 310 678 c 0,5,6
 278 678 278 678 229 671 c 1,7,8
 226 616 226 616 226 411 c 1,9,10
 270 413 270 413 298 413 c 128,-1,11
 326 413 326 413 339.5 402 c 128,-1,12
 353 391 353 391 353 373 c 128,-1,13
 353 355 353 355 339.5 344 c 128,-1,14
 326 333 326 333 298 333 c 128,-1,15
 270 333 270 333 226 335 c 1,16,17
 226 160 226 160 231 75 c 1,18,19
 255 72 255 72 321 72 c 128,-1,20
 387 72 387 72 441 98 c 128,-1,21
 495 124 495 124 528.5 167.5 c 128,-1,0
 562 211 562 211 580 265 c 128,-1,1
132 105 m 1,22,-1
 135 334 l 1,23,24
 115 333 115 333 79.5 333 c 128,-1,25
 44 333 44 333 30.5 344 c 128,-1,26
 17 355 17 355 17 373 c 128,-1,27
 17 391 17 391 30.5 402 c 128,-1,28
 44 413 44 413 69.5 413 c 128,-1,29
 95 413 95 413 135 411 c 1,30,-1
 130 646 l 1,31,32
 83 651 83 651 83 690 c 0,33,34
 83 709 83 709 106 724 c 128,-1,35
 129 739 129 739 164 748 c 0,36,37
 233 764 233 764 318 764 c 128,-1,38
 403 764 403 764 477.5 731 c 128,-1,39
 552 698 552 698 598 642 c 0,40,41
 694 527 694 527 694 372 c 0,42,43
 694 221 694 221 602 108 c 0,44,45
 557 52 557 52 485 18.5 c 128,-1,46
 413 -15 413 -15 315 -15 c 128,-1,47
 217 -15 217 -15 148 8 c 128,-1,48
 79 31 79 31 79 68 c 128,-1,49
 79 105 79 105 132 105 c 1,22,-1
EndSplineSet
EndChar

StartChar: Ocircumflex
Encoding: 212 212 150
Width: 814
Flags: W
LayerCount: 2
Fore
SplineSet
493 842 m 0,0,1
 424 923 424 923 410 923 c 0,2,3
 394 923 394 923 330 846 c 0,4,5
 325 840 325 840 322 838 c 2,6,-1
 315 830 l 1,7,8
 302 817 302 817 284.5 817 c 128,-1,9
 267 817 267 817 256 827.5 c 128,-1,10
 245 838 245 838 245 856.5 c 128,-1,11
 245 875 245 875 271 896.5 c 128,-1,12
 297 918 297 918 323.5 948 c 128,-1,13
 350 978 350 978 369 994 c 128,-1,14
 388 1010 388 1010 409.5 1010 c 128,-1,15
 431 1010 431 1010 450.5 994 c 128,-1,16
 470 978 470 978 496 948 c 128,-1,17
 522 918 522 918 548.5 896 c 128,-1,18
 575 874 575 874 575 856 c 128,-1,19
 575 838 575 838 564 827.5 c 128,-1,20
 553 817 553 817 540 817 c 128,-1,21
 527 817 527 817 518 822 c 0,22,23
 505 829 505 829 493 842 c 0,0,1
747 376 m 128,-1,25
 747 213 747 213 649.5 99 c 128,-1,26
 552 -15 552 -15 406.5 -15 c 128,-1,27
 261 -15 261 -15 164 99 c 128,-1,28
 67 213 67 213 67 376 c 128,-1,29
 67 539 67 539 165 652 c 128,-1,30
 263 765 263 765 408.5 765 c 128,-1,31
 554 765 554 765 650.5 652 c 128,-1,24
 747 539 747 539 747 376 c 128,-1,25
581.5 164 m 128,-1,33
 651 256 651 256 651 377 c 128,-1,34
 651 498 651 498 582 588.5 c 128,-1,35
 513 679 513 679 407.5 679 c 128,-1,36
 302 679 302 679 232.5 588.5 c 128,-1,37
 163 498 163 498 163 377.5 c 128,-1,38
 163 257 163 257 233 164.5 c 128,-1,39
 303 72 303 72 407.5 72 c 128,-1,32
 512 72 512 72 581.5 164 c 128,-1,33
EndSplineSet
EndChar

StartChar: Odieresis
Encoding: 214 214 152
Width: 814
Flags: W
LayerCount: 2
Fore
SplineSet
351.5 950 m 128,-1,1
 365 933 365 933 365 907 c 128,-1,2
 365 881 365 881 348 859.5 c 128,-1,3
 331 838 331 838 306.5 838 c 128,-1,4
 282 838 282 838 268 856 c 128,-1,5
 254 874 254 874 254 900 c 128,-1,6
 254 926 254 926 270.5 946.5 c 128,-1,7
 287 967 287 967 312.5 967 c 128,-1,0
 338 967 338 967 351.5 950 c 128,-1,1
546.5 950 m 128,-1,9
 560 933 560 933 560 907 c 128,-1,10
 560 881 560 881 543 859.5 c 128,-1,11
 526 838 526 838 501.5 838 c 128,-1,12
 477 838 477 838 463 856 c 128,-1,13
 449 874 449 874 449 900 c 128,-1,14
 449 926 449 926 465.5 946.5 c 128,-1,15
 482 967 482 967 507.5 967 c 128,-1,8
 533 967 533 967 546.5 950 c 128,-1,9
747 376 m 128,-1,17
 747 213 747 213 649.5 99 c 128,-1,18
 552 -15 552 -15 406.5 -15 c 128,-1,19
 261 -15 261 -15 164 99 c 128,-1,20
 67 213 67 213 67 376 c 128,-1,21
 67 539 67 539 165 652 c 128,-1,22
 263 765 263 765 408.5 765 c 128,-1,23
 554 765 554 765 650.5 652 c 128,-1,16
 747 539 747 539 747 376 c 128,-1,17
581.5 164 m 128,-1,25
 651 256 651 256 651 377 c 128,-1,26
 651 498 651 498 582 588.5 c 128,-1,27
 513 679 513 679 407.5 679 c 128,-1,28
 302 679 302 679 232.5 588.5 c 128,-1,29
 163 498 163 498 163 377.5 c 128,-1,30
 163 257 163 257 233 164.5 c 128,-1,31
 303 72 303 72 407.5 72 c 128,-1,24
 512 72 512 72 581.5 164 c 128,-1,25
EndSplineSet
EndChar

StartChar: multiply
Encoding: 215 215 153
Width: 563
Flags: W
LayerCount: 2
Fore
SplineSet
281 322 m 1,0,1
 278 319 278 319 238.5 282.5 c 128,-1,2
 199 246 199 246 156 203 c 0,3,4
 140 187 140 187 122 187 c 128,-1,5
 104 187 104 187 92 199 c 128,-1,6
 80 211 80 211 80 227.5 c 128,-1,7
 80 244 80 244 100.5 264 c 128,-1,8
 121 284 121 284 165.5 321.5 c 128,-1,9
 210 359 210 359 228 376 c 1,10,11
 210 393 210 393 167 428 c 128,-1,12
 124 463 124 463 103 483.5 c 128,-1,13
 82 504 82 504 82 522 c 128,-1,14
 82 540 82 540 94.5 551.5 c 128,-1,15
 107 563 107 563 124 563 c 128,-1,16
 141 563 141 563 162 545 c 128,-1,17
 183 527 183 527 222.5 488 c 128,-1,18
 262 449 262 449 281 432 c 1,19,20
 296 445 296 445 336.5 485.5 c 128,-1,21
 377 526 377 526 398.5 545 c 128,-1,22
 420 564 420 564 437 564 c 128,-1,23
 454 564 454 564 466.5 552.5 c 128,-1,24
 479 541 479 541 479 523 c 128,-1,25
 479 505 479 505 458 485 c 128,-1,26
 437 465 437 465 395 430 c 128,-1,27
 353 395 353 395 334 377 c 1,28,29
 351 361 351 361 395.5 323.5 c 128,-1,30
 440 286 440 286 467 261 c 0,31,32
 483 245 483 245 483 228.5 c 128,-1,33
 483 212 483 212 471 200 c 128,-1,34
 459 188 459 188 441 188 c 128,-1,35
 423 188 423 188 407 204 c 0,36,37
 354 257 354 257 281 322 c 1,0,1
EndSplineSet
EndChar

StartChar: Oslash
Encoding: 216 216 154
Width: 814
Flags: W
LayerCount: 2
Fore
SplineSet
747 376 m 0,0,1
 747 213 747 213 649.5 99 c 128,-1,2
 552 -15 552 -15 406 -15 c 0,3,4
 388 -15 388 -15 352 -11 c 1,5,6
 334 -84 334 -84 293 -84 c 0,7,8
 274 -84 274 -84 262.5 -70 c 128,-1,9
 251 -56 251 -56 251 -33.5 c 128,-1,10
 251 -11 251 -11 262 20 c 1,11,12
 173 66 173 66 120 162 c 128,-1,13
 67 258 67 258 67 376 c 0,14,15
 67 539 67 539 165 652 c 128,-1,16
 263 765 263 765 408 765 c 0,17,18
 420 765 420 765 442 763 c 1,19,20
 452 803 452 803 465 819 c 128,-1,21
 478 835 478 835 499 835 c 128,-1,22
 520 835 520 835 531.5 821 c 128,-1,23
 543 807 543 807 543 787 c 128,-1,24
 543 767 543 767 533 739 c 1,25,26
 630 697 630 697 688.5 598 c 128,-1,27
 747 499 747 499 747 376 c 0,0,1
424 678 m 1,28,-1
 407 679 l 1,29,30
 302 679 302 679 232.5 588.5 c 128,-1,31
 163 498 163 498 163 376 c 0,32,33
 163 297 163 297 196 225 c 128,-1,34
 229 153 229 153 286 112 c 1,35,36
 322 224 322 224 424 678 c 1,28,-1
651 376 m 0,37,38
 651 464 651 464 613 539 c 128,-1,39
 575 614 575 614 511 651 c 1,40,41
 426 329 426 329 371 75 c 1,42,43
 388 72 388 72 407 72 c 0,44,45
 512 72 512 72 581.5 164 c 128,-1,46
 651 256 651 256 651 376 c 0,37,38
EndSplineSet
EndChar

StartChar: Uacute
Encoding: 218 218 156
Width: 733
Flags: W
LayerCount: 2
Fore
SplineSet
366 -15 m 128,-1,1
 242 -15 242 -15 176 62 c 128,-1,2
 110 139 110 139 108 249 c 0,3,4
 107 301 107 301 107 378 c 128,-1,5
 107 455 107 455 105.5 525.5 c 128,-1,6
 104 596 104 596 102.5 638.5 c 128,-1,7
 101 681 101 681 101 689 c 0,8,9
 101 760 101 760 152 760 c 128,-1,10
 203 760 203 760 203 689 c 0,11,12
 203 681 203 681 202 626 c 0,13,14
 197 459 197 459 197 365.5 c 128,-1,15
 197 272 197 272 204 230 c 128,-1,16
 211 188 211 188 228 150 c 0,17,18
 264 72 264 72 366 72 c 0,19,20
 512 72 512 72 532 249 c 0,21,22
 536 284 536 284 536 343.5 c 128,-1,23
 536 403 536 403 534.5 486.5 c 128,-1,24
 533 570 533 570 531.5 625.5 c 128,-1,25
 530 681 530 681 530 689 c 0,26,27
 530 760 530 760 581 760 c 128,-1,28
 632 760 632 760 632 689 c 0,29,30
 632 681 632 681 630 638 c 0,31,32
 626 511 626 511 626 406 c 128,-1,33
 626 301 626 301 625 249 c 0,34,35
 623 138 623 138 556.5 61.5 c 128,-1,0
 490 -15 490 -15 366 -15 c 128,-1,1
474 946 m 0,36,37
 474 902 474 902 426.5 857.5 c 128,-1,38
 379 813 379 813 347 813 c 0,39,40
 331 813 331 813 322.5 821 c 128,-1,41
 314 829 314 829 314 841 c 128,-1,42
 314 853 314 853 338 882.5 c 128,-1,43
 362 912 362 912 371 932 c 128,-1,44
 380 952 380 952 385.5 961.5 c 128,-1,45
 391 971 391 971 403.5 980.5 c 128,-1,46
 416 990 416 990 433.5 990 c 128,-1,47
 451 990 451 990 462.5 976.5 c 128,-1,48
 474 963 474 963 474 946 c 0,36,37
EndSplineSet
EndChar

StartChar: Ucircumflex
Encoding: 219 219 157
Width: 733
Flags: W
LayerCount: 2
Fore
SplineSet
446 842 m 0,0,1
 377 923 377 923 362 923 c 256,2,3
 347 923 347 923 283 846 c 0,4,5
 278 840 278 840 276 838 c 2,6,-1
 268 830 l 2,7,8
 255 817 255 817 237.5 817 c 128,-1,9
 220 817 220 817 209 827.5 c 128,-1,10
 198 838 198 838 198 856.5 c 128,-1,11
 198 875 198 875 224 896.5 c 128,-1,12
 250 918 250 918 276.5 948 c 128,-1,13
 303 978 303 978 322 994 c 128,-1,14
 341 1010 341 1010 362.5 1010 c 128,-1,15
 384 1010 384 1010 403.5 994 c 128,-1,16
 423 978 423 978 449 948 c 128,-1,17
 475 918 475 918 501.5 896 c 128,-1,18
 528 874 528 874 528 856 c 128,-1,19
 528 838 528 838 517 827.5 c 128,-1,20
 506 817 506 817 493 817 c 128,-1,21
 480 817 480 817 472 822 c 0,22,23
 458 829 458 829 446 842 c 0,0,1
366 -15 m 128,-1,25
 242 -15 242 -15 176 62 c 128,-1,26
 110 139 110 139 108 249 c 0,27,28
 107 301 107 301 107 378 c 128,-1,29
 107 455 107 455 105.5 525.5 c 128,-1,30
 104 596 104 596 102.5 638.5 c 128,-1,31
 101 681 101 681 101 689 c 0,32,33
 101 760 101 760 152 760 c 128,-1,34
 203 760 203 760 203 689 c 0,35,36
 203 681 203 681 202 626 c 0,37,38
 197 459 197 459 197 365.5 c 128,-1,39
 197 272 197 272 204 230 c 128,-1,40
 211 188 211 188 228 150 c 0,41,42
 264 72 264 72 366 72 c 0,43,44
 512 72 512 72 532 249 c 0,45,46
 536 284 536 284 536 343.5 c 128,-1,47
 536 403 536 403 534.5 486.5 c 128,-1,48
 533 570 533 570 531.5 625.5 c 128,-1,49
 530 681 530 681 530 689 c 0,50,51
 530 760 530 760 581 760 c 128,-1,52
 632 760 632 760 632 689 c 0,53,54
 632 681 632 681 630 638 c 0,55,56
 626 511 626 511 626 406 c 128,-1,57
 626 301 626 301 625 249 c 0,58,59
 623 138 623 138 556.5 61.5 c 128,-1,24
 490 -15 490 -15 366 -15 c 128,-1,25
EndSplineSet
EndChar

StartChar: Thorn
Encoding: 222 222 160
Width: 607
Flags: W
LayerCount: 2
Fore
SplineSet
114 375 m 1,0,-1
 108 689 l 1,1,2
 108 760 108 760 159 760 c 128,-1,3
 210 760 210 760 210 689 c 0,4,5
 210 674 210 674 207.5 650.5 c 128,-1,6
 205 627 205 627 205 612 c 1,7,8
 250 625 250 625 325 625 c 0,9,10
 435 625 435 625 502 563.5 c 128,-1,11
 569 502 569 502 569 410.5 c 128,-1,12
 569 319 569 319 501.5 258 c 128,-1,13
 434 197 434 197 324 197 c 0,14,15
 256 197 256 197 205 209 c 1,16,17
 210 96 210 96 210 61 c 0,18,19
 210 -10 210 -10 159 -10 c 128,-1,20
 108 -10 108 -10 108 61 c 1,21,-1
 114 375 l 1,0,-1
432.5 319 m 128,-1,23
 474 354 474 354 474 411.5 c 128,-1,24
 474 469 474 469 432.5 503.5 c 128,-1,25
 391 538 391 538 326.5 538 c 128,-1,26
 262 538 262 538 206 525 c 1,27,28
 204 488 204 488 204 411.5 c 128,-1,29
 204 335 204 335 205 298 c 1,30,31
 257 284 257 284 324 284 c 128,-1,22
 391 284 391 284 432.5 319 c 128,-1,23
EndSplineSet
EndChar

StartChar: germandbls
Encoding: 223 223 161
Width: 604
Flags: W
LayerCount: 2
Fore
SplineSet
117 426 m 1,0,-1
 77 425 l 2,1,2
 57 425 57 425 43.5 435 c 128,-1,3
 30 445 30 445 30 464 c 128,-1,4
 30 483 30 483 43.5 492.5 c 128,-1,5
 57 502 57 502 71.5 502 c 128,-1,6
 86 502 86 502 116 500 c 1,7,-1
 116 575 l 2,8,9
 116 670 116 670 168 715 c 128,-1,10
 220 760 220 760 301.5 760 c 128,-1,11
 383 760 383 760 430 714.5 c 128,-1,12
 477 669 477 669 477 604 c 0,13,14
 477 570 477 570 458.5 535 c 128,-1,15
 440 500 440 500 418 476 c 0,16,17
 358 414 358 414 358 388.5 c 128,-1,18
 358 363 358 363 390.5 335 c 128,-1,19
 423 307 423 307 461.5 284.5 c 128,-1,20
 500 262 500 262 532.5 222 c 128,-1,21
 565 182 565 182 565 135 c 0,22,23
 565 70 565 70 519.5 27.5 c 128,-1,24
 474 -15 474 -15 398 -15 c 0,25,26
 344 -15 344 -15 297 10 c 128,-1,27
 250 35 250 35 250 64 c 0,28,29
 250 105 250 105 292 105 c 0,30,31
 305 105 305 105 339.5 84.5 c 128,-1,32
 374 64 374 64 400.5 64 c 128,-1,33
 427 64 427 64 448.5 83 c 128,-1,34
 470 102 470 102 470 132.5 c 128,-1,35
 470 163 470 163 448.5 186 c 128,-1,36
 427 209 427 209 396.5 227 c 128,-1,37
 366 245 366 245 336 264.5 c 128,-1,38
 306 284 306 284 284.5 315.5 c 128,-1,39
 263 347 263 347 263 382 c 128,-1,40
 263 417 263 417 281.5 448 c 128,-1,41
 300 479 300 479 322 501 c 128,-1,42
 344 523 344 523 362.5 551 c 128,-1,43
 381 579 381 579 381 607.5 c 128,-1,44
 381 636 381 636 358 657 c 128,-1,45
 335 678 335 678 297 678 c 128,-1,46
 259 678 259 678 234 652 c 128,-1,47
 209 626 209 626 209 566 c 2,48,-1
 210 48 l 2,49,50
 210 22 210 22 196 6 c 128,-1,51
 182 -10 182 -10 159.5 -10 c 128,-1,52
 137 -10 137 -10 124 5.5 c 128,-1,53
 111 21 111 21 111 45 c 2,54,-1
 117 426 l 1,0,-1
EndSplineSet
EndChar

StartChar: aacute
Encoding: 225 225 163
Width: 800
Flags: W
LayerCount: 2
Fore
SplineSet
492 946 m 0,0,1
 492 902 492 902 444.5 857.5 c 128,-1,2
 397 813 397 813 365 813 c 0,3,4
 349 813 349 813 340.5 821 c 128,-1,5
 332 829 332 829 332 841 c 128,-1,6
 332 853 332 853 356 882.5 c 128,-1,7
 380 912 380 912 389 932 c 128,-1,8
 398 952 398 952 403.5 961.5 c 128,-1,9
 409 971 409 971 421.5 980.5 c 128,-1,10
 434 990 434 990 451.5 990 c 128,-1,11
 469 990 469 990 480.5 976.5 c 128,-1,12
 492 963 492 963 492 946 c 0,0,1
564 355 m 1,13,-1
 558 600 l 1,14,15
 473 678 473 678 376 678 c 0,16,17
 292 678 292 678 227.5 588 c 128,-1,18
 163 498 163 498 163 370.5 c 128,-1,19
 163 243 163 243 205 157.5 c 128,-1,20
 247 72 247 72 325 72 c 128,-1,21
 403 72 403 72 466 151.5 c 128,-1,22
 529 231 529 231 564 355 c 1,13,-1
643 367 m 1,23,24
 643 255 643 255 657.5 177.5 c 128,-1,25
 672 100 672 100 693 90 c 0,26,27
 701 86 701 86 712 84.5 c 128,-1,28
 723 83 723 83 728 80 c 128,-1,29
 733 77 733 77 733 69 c 0,30,31
 733 33 733 33 713 10 c 128,-1,32
 693 -13 693 -13 660 -13 c 0,33,34
 616 -13 616 -13 594 37 c 128,-1,35
 572 87 572 87 572 165 c 1,36,37
 538 89 538 89 471.5 37 c 128,-1,38
 405 -15 405 -15 320 -15 c 0,39,40
 257 -15 257 -15 207 19.5 c 128,-1,41
 157 54 157 54 128 110 c 0,42,43
 67 225 67 225 67 363 c 0,44,45
 67 468 67 468 104.5 559.5 c 128,-1,46
 142 651 142 651 214 708 c 128,-1,47
 286 765 286 765 383 765 c 128,-1,48
 480 765 480 765 556 696 c 1,49,50
 556 765 556 765 607 765 c 0,51,52
 670 765 670 765 670 664 c 0,53,54
 670 589 670 589 643 367 c 1,23,24
EndSplineSet
EndChar

StartChar: atilde
Encoding: 227 227 165
Width: 800
Flags: W
LayerCount: 2
Fore
SplineSet
593 925 m 0,0,1
 593 889 593 889 562 862 c 128,-1,2
 531 835 531 835 492 835 c 128,-1,3
 453 835 453 835 399 866 c 1,4,5
 355 888 355 888 333 888 c 128,-1,6
 311 888 311 888 286.5 858.5 c 128,-1,7
 262 829 262 829 241.5 829 c 128,-1,8
 221 829 221 829 208.5 841.5 c 128,-1,9
 196 854 196 854 196 872 c 0,10,11
 196 908 196 908 233 936.5 c 128,-1,12
 270 965 270 965 319 965 c 128,-1,13
 368 965 368 965 421 937.5 c 128,-1,14
 474 910 474 910 491.5 910 c 128,-1,15
 509 910 509 910 529.5 935 c 128,-1,16
 550 960 550 960 563.5 960 c 128,-1,17
 577 960 577 960 585 949.5 c 128,-1,18
 593 939 593 939 593 925 c 0,0,1
564 355 m 1,19,-1
 558 600 l 1,20,21
 473 678 473 678 376 678 c 0,22,23
 292 678 292 678 227.5 588 c 128,-1,24
 163 498 163 498 163 370.5 c 128,-1,25
 163 243 163 243 205 157.5 c 128,-1,26
 247 72 247 72 325 72 c 128,-1,27
 403 72 403 72 466 151.5 c 128,-1,28
 529 231 529 231 564 355 c 1,19,-1
643 367 m 1,29,30
 643 255 643 255 657.5 177.5 c 128,-1,31
 672 100 672 100 693 90 c 0,32,33
 701 86 701 86 712 84.5 c 128,-1,34
 723 83 723 83 728 80 c 128,-1,35
 733 77 733 77 733 69 c 0,36,37
 733 33 733 33 713 10 c 128,-1,38
 693 -13 693 -13 660 -13 c 0,39,40
 616 -13 616 -13 594 37 c 128,-1,41
 572 87 572 87 572 165 c 1,42,43
 538 89 538 89 471.5 37 c 128,-1,44
 405 -15 405 -15 320 -15 c 0,45,46
 257 -15 257 -15 207 19.5 c 128,-1,47
 157 54 157 54 128 110 c 0,48,49
 67 225 67 225 67 363 c 0,50,51
 67 468 67 468 104.5 559.5 c 128,-1,52
 142 651 142 651 214 708 c 128,-1,53
 286 765 286 765 383 765 c 128,-1,54
 480 765 480 765 556 696 c 1,55,56
 556 765 556 765 607 765 c 0,57,58
 670 765 670 765 670 664 c 0,59,60
 670 589 670 589 643 367 c 1,29,30
EndSplineSet
EndChar

StartChar: aring
Encoding: 229 229 167
Width: 800
Flags: W
LayerCount: 2
Fore
SplineSet
444 914 m 128,-1,1
 444 929 444 929 432 942 c 128,-1,2
 420 955 420 955 405.5 955 c 128,-1,3
 391 955 391 955 379.5 942.5 c 128,-1,4
 368 930 368 930 368 914.5 c 128,-1,5
 368 899 368 899 379 887 c 128,-1,6
 390 875 390 875 405.5 875 c 128,-1,7
 421 875 421 875 432.5 887 c 128,-1,0
 444 899 444 899 444 914 c 128,-1,1
479.5 986 m 128,-1,9
 509 956 509 956 509 913.5 c 128,-1,10
 509 871 509 871 480.5 843 c 128,-1,11
 452 815 452 815 406 815 c 128,-1,12
 360 815 360 815 331.5 843 c 128,-1,13
 303 871 303 871 303 914 c 128,-1,14
 303 957 303 957 332.5 986.5 c 128,-1,15
 362 1016 362 1016 406 1016 c 128,-1,8
 450 1016 450 1016 479.5 986 c 128,-1,9
564 355 m 1,16,-1
 558 600 l 1,17,18
 473 678 473 678 376 678 c 0,19,20
 292 678 292 678 227.5 588 c 128,-1,21
 163 498 163 498 163 370.5 c 128,-1,22
 163 243 163 243 205 157.5 c 128,-1,23
 247 72 247 72 325 72 c 128,-1,24
 403 72 403 72 466 151.5 c 128,-1,25
 529 231 529 231 564 355 c 1,16,-1
643 367 m 1,26,27
 643 255 643 255 657.5 177.5 c 128,-1,28
 672 100 672 100 693 90 c 0,29,30
 701 86 701 86 712 84.5 c 128,-1,31
 723 83 723 83 728 80 c 128,-1,32
 733 77 733 77 733 69 c 0,33,34
 733 33 733 33 713 10 c 128,-1,35
 693 -13 693 -13 660 -13 c 0,36,37
 616 -13 616 -13 594 37 c 128,-1,38
 572 87 572 87 572 165 c 1,39,40
 538 89 538 89 471.5 37 c 128,-1,41
 405 -15 405 -15 320 -15 c 0,42,43
 257 -15 257 -15 207 19.5 c 128,-1,44
 157 54 157 54 128 110 c 0,45,46
 67 225 67 225 67 363 c 0,47,48
 67 468 67 468 104.5 559.5 c 128,-1,49
 142 651 142 651 214 708 c 128,-1,50
 286 765 286 765 383 765 c 128,-1,51
 480 765 480 765 556 696 c 1,52,53
 556 765 556 765 607 765 c 0,54,55
 670 765 670 765 670 664 c 0,56,57
 670 589 670 589 643 367 c 1,26,27
EndSplineSet
EndChar

StartChar: ae
Encoding: 230 230 168
Width: 1159
Flags: W
LayerCount: 2
Fore
SplineSet
994 553 m 0,0,1
 994 600 994 600 958.5 639 c 128,-1,2
 923 678 923 678 857 678 c 0,3,4
 764 678 764 678 700.5 599.5 c 128,-1,5
 637 521 637 521 618 417 c 1,6,7
 687 400 687 400 805 400 c 0,8,9
 885 400 885 400 939.5 439 c 128,-1,10
 994 478 994 478 994 553 c 0,0,1
1021.5 704 m 128,-1,12
 1090 643 1090 643 1090 556 c 128,-1,13
 1090 469 1090 469 1047 414 c 0,14,15
 968 315 968 315 798 315 c 0,16,17
 692 315 692 315 617 329 c 1,18,19
 626 226 626 226 692 149.5 c 128,-1,20
 758 73 758 73 838 73 c 0,21,22
 884 73 884 73 923 86 c 128,-1,23
 962 99 962 99 982 114 c 0,24,25
 1037 156 1037 156 1054 156 c 128,-1,26
 1071 156 1071 156 1080.5 146 c 128,-1,27
 1090 136 1090 136 1090 117 c 128,-1,28
 1090 98 1090 98 1056.5 67 c 128,-1,29
 1023 36 1023 36 964 11 c 128,-1,30
 905 -14 905 -14 844 -14 c 0,31,32
 749 -14 749 -14 678.5 30.5 c 128,-1,33
 608 75 608 75 567 150 c 1,34,35
 524 67 524 67 454 26.5 c 128,-1,36
 384 -14 384 -14 299 -14 c 0,37,38
 193 -14 193 -14 121 57.5 c 128,-1,39
 49 129 49 129 49 242 c 0,40,41
 49 333 49 333 124.5 398 c 128,-1,42
 200 463 200 463 305 463 c 0,43,44
 366 463 366 463 407.5 455.5 c 128,-1,45
 449 448 449 448 516 429 c 1,46,47
 516 563 516 563 463.5 620.5 c 128,-1,48
 411 678 411 678 330 678 c 0,49,50
 291 678 291 678 258 665 c 128,-1,51
 225 652 225 652 208 637 c 0,52,53
 160 596 160 596 138 596 c 0,54,55
 92 596 92 596 92 638.5 c 128,-1,56
 92 681 92 681 163.5 723 c 128,-1,57
 235 765 235 765 327.5 765 c 128,-1,58
 420 765 420 765 485.5 724 c 128,-1,59
 551 683 551 683 585 615 c 1,60,61
 684 765 684 765 857 765 c 0,62,11
 953 765 953 765 1021.5 704 c 128,-1,12
145 239 m 0,63,64
 145 168 145 168 193 121 c 128,-1,65
 241 74 241 74 303 74 c 0,66,67
 387 74 387 74 450 145 c 128,-1,68
 513 216 513 216 513 343 c 1,69,70
 418 375 418 375 328.5 375 c 128,-1,71
 239 375 239 375 192 334 c 128,-1,72
 145 293 145 293 145 239 c 0,63,64
EndSplineSet
EndChar

StartChar: ccedilla
Encoding: 231 231 169
Width: 698
Flags: W
LayerCount: 2
Fore
SplineSet
510 -133 m 0,0,1
 510 -175 510 -175 472.5 -202.5 c 128,-1,2
 435 -230 435 -230 383 -230 c 128,-1,3
 331 -230 331 -230 299.5 -205.5 c 128,-1,4
 268 -181 268 -181 268 -155 c 0,5,6
 268 -146 268 -146 275.5 -138 c 128,-1,7
 283 -130 283 -130 294.5 -130 c 128,-1,8
 306 -130 306 -130 331.5 -142 c 128,-1,9
 357 -154 357 -154 376 -154 c 128,-1,10
 395 -154 395 -154 407 -147 c 128,-1,11
 419 -140 419 -140 419 -131 c 128,-1,12
 419 -122 419 -122 404.5 -111.5 c 128,-1,13
 390 -101 390 -101 373 -90.5 c 128,-1,14
 356 -80 356 -80 341 -57.5 c 128,-1,15
 326 -35 326 -35 326 -6 c 1,16,17
 210 22 210 22 138.5 128.5 c 128,-1,18
 67 235 67 235 67 376 c 0,19,20
 67 539 67 539 162.5 652 c 128,-1,21
 258 765 258 765 402 765 c 0,22,23
 490 765 490 765 559.5 732 c 128,-1,24
 629 699 629 699 629 658 c 0,25,26
 629 638 629 638 617 626 c 128,-1,27
 605 614 605 614 585.5 614 c 128,-1,28
 566 614 566 614 530 637 c 1,29,30
 472 678 472 678 402 678 c 0,31,32
 298 678 298 678 230.5 588.5 c 128,-1,33
 163 499 163 499 163 376.5 c 128,-1,34
 163 254 163 254 230.5 163 c 128,-1,35
 298 72 298 72 396 72 c 128,-1,36
 494 72 494 72 575 121 c 1,37,38
 608 139 608 139 619.5 139 c 128,-1,39
 631 139 631 139 640.5 129.5 c 128,-1,40
 650 120 650 120 650 106 c 0,41,42
 650 71 650 71 578 29 c 128,-1,43
 506 -13 506 -13 407 -15 c 1,44,45
 410 -32 410 -32 436 -49 c 128,-1,46
 462 -66 462 -66 486 -86 c 128,-1,47
 510 -106 510 -106 510 -133 c 0,0,1
EndSplineSet
EndChar

StartChar: eacute
Encoding: 233 233 171
Width: 735
Flags: W
LayerCount: 2
Fore
SplineSet
541 946 m 0,0,1
 541 902 541 902 493.5 857.5 c 128,-1,2
 446 813 446 813 414 813 c 0,3,4
 398 813 398 813 389.5 821 c 128,-1,5
 381 829 381 829 381 841 c 128,-1,6
 381 853 381 853 405 882.5 c 128,-1,7
 429 912 429 912 438 932 c 128,-1,8
 447 952 447 952 452.5 961.5 c 128,-1,9
 458 971 458 971 470.5 980.5 c 128,-1,10
 483 990 483 990 500.5 990 c 128,-1,11
 518 990 518 990 529.5 976.5 c 128,-1,12
 541 963 541 963 541 946 c 0,0,1
615.5 704 m 128,-1,14
 687 643 687 643 687 557 c 128,-1,15
 687 471 687 471 642 416 c 0,16,17
 560 315 560 315 385 315 c 0,18,19
 314 315 314 315 206 335 c 1,20,21
 215 227 215 227 277.5 149.5 c 128,-1,22
 340 72 340 72 424 72 c 0,23,24
 472 72 472 72 513 85 c 128,-1,25
 554 98 554 98 575.5 113.5 c 128,-1,26
 597 129 597 129 617 142 c 128,-1,27
 637 155 637 155 652 155 c 128,-1,28
 667 155 667 155 677 145 c 128,-1,29
 687 135 687 135 687 116 c 128,-1,30
 687 97 687 97 652 66 c 128,-1,31
 617 35 617 35 555.5 10 c 128,-1,32
 494 -15 494 -15 425.5 -15 c 128,-1,33
 357 -15 357 -15 296 16 c 128,-1,34
 235 47 235 47 196 99 c 0,35,36
 115 207 115 207 109 352 c 1,37,38
 37 374 37 374 37 423 c 0,39,40
 37 443 37 443 48.5 454.5 c 128,-1,41
 60 466 60 466 75 466 c 128,-1,42
 90 466 90 466 117 454 c 1,43,44
 148 588 148 588 233.5 676.5 c 128,-1,45
 319 765 319 765 443 765 c 0,46,13
 544 765 544 765 615.5 704 c 128,-1,14
591 553 m 0,47,48
 591 600 591 600 552.5 639 c 128,-1,49
 514 678 514 678 447 678 c 128,-1,50
 380 678 380 678 328 638 c 0,51,52
 235 565 235 565 208 421 c 1,53,54
 284 400 284 400 379.5 400 c 128,-1,55
 475 400 475 400 533 440 c 128,-1,56
 591 480 591 480 591 553 c 0,47,48
EndSplineSet
EndChar

StartChar: edieresis
Encoding: 235 235 173
Width: 735
Flags: W
LayerCount: 2
Fore
SplineSet
384.5 950 m 128,-1,1
 398 933 398 933 398 907 c 128,-1,2
 398 881 398 881 381 859.5 c 128,-1,3
 364 838 364 838 339.5 838 c 128,-1,4
 315 838 315 838 301 856 c 128,-1,5
 287 874 287 874 287 900 c 128,-1,6
 287 926 287 926 303.5 946.5 c 128,-1,7
 320 967 320 967 345.5 967 c 128,-1,0
 371 967 371 967 384.5 950 c 128,-1,1
579.5 950 m 128,-1,9
 593 933 593 933 593 907 c 128,-1,10
 593 881 593 881 576 859.5 c 128,-1,11
 559 838 559 838 534.5 838 c 128,-1,12
 510 838 510 838 496 856 c 128,-1,13
 482 874 482 874 482 900 c 128,-1,14
 482 926 482 926 498.5 946.5 c 128,-1,15
 515 967 515 967 540.5 967 c 128,-1,8
 566 967 566 967 579.5 950 c 128,-1,9
615.5 704 m 128,-1,17
 687 643 687 643 687 557 c 128,-1,18
 687 471 687 471 642 416 c 0,19,20
 560 315 560 315 385 315 c 0,21,22
 314 315 314 315 206 335 c 1,23,24
 215 227 215 227 277.5 149.5 c 128,-1,25
 340 72 340 72 424 72 c 0,26,27
 472 72 472 72 513 85 c 128,-1,28
 554 98 554 98 575.5 113.5 c 128,-1,29
 597 129 597 129 617 142 c 128,-1,30
 637 155 637 155 652 155 c 128,-1,31
 667 155 667 155 677 145 c 128,-1,32
 687 135 687 135 687 116 c 128,-1,33
 687 97 687 97 652 66 c 128,-1,34
 617 35 617 35 555.5 10 c 128,-1,35
 494 -15 494 -15 425.5 -15 c 128,-1,36
 357 -15 357 -15 296 16 c 128,-1,37
 235 47 235 47 196 99 c 0,38,39
 115 207 115 207 109 352 c 1,40,41
 37 374 37 374 37 423 c 0,42,43
 37 443 37 443 48.5 454.5 c 128,-1,44
 60 466 60 466 75 466 c 128,-1,45
 90 466 90 466 117 454 c 1,46,47
 148 588 148 588 233.5 676.5 c 128,-1,48
 319 765 319 765 443 765 c 0,49,16
 544 765 544 765 615.5 704 c 128,-1,17
591 553 m 0,50,51
 591 600 591 600 552.5 639 c 128,-1,52
 514 678 514 678 447 678 c 128,-1,53
 380 678 380 678 328 638 c 0,54,55
 235 565 235 565 208 421 c 1,56,57
 284 400 284 400 379.5 400 c 128,-1,58
 475 400 475 400 533 440 c 128,-1,59
 591 480 591 480 591 553 c 0,50,51
EndSplineSet
EndChar

StartChar: icircumflex
Encoding: 238 238 176
Width: 476
Flags: W
LayerCount: 2
Fore
SplineSet
324 842 m 0,0,1
 255 923 255 923 240 923 c 256,2,3
 225 923 225 923 161 846 c 0,4,5
 156 840 156 840 154 838 c 2,6,-1
 146 830 l 2,7,8
 133 817 133 817 115.5 817 c 128,-1,9
 98 817 98 817 87 827.5 c 128,-1,10
 76 838 76 838 76 856.5 c 128,-1,11
 76 875 76 875 102 896.5 c 128,-1,12
 128 918 128 918 154.5 948 c 128,-1,13
 181 978 181 978 200 994 c 128,-1,14
 219 1010 219 1010 240.5 1010 c 128,-1,15
 262 1010 262 1010 281.5 994 c 128,-1,16
 301 978 301 978 327 948 c 128,-1,17
 353 918 353 918 379.5 896 c 128,-1,18
 406 874 406 874 406 856 c 128,-1,19
 406 838 406 838 395 827.5 c 128,-1,20
 384 817 384 817 371 817 c 128,-1,21
 358 817 358 817 350 822 c 0,22,23
 336 829 336 829 324 842 c 0,0,1
369 661 m 1,24,-1
 287 665 l 1,25,26
 283 568 283 568 283 386.5 c 128,-1,27
 283 205 283 205 288 83 c 1,28,-1
 369 87 l 1,29,30
 396 87 396 87 412.5 74.5 c 128,-1,31
 429 62 429 62 429 40.5 c 128,-1,32
 429 19 429 19 412.5 6.5 c 128,-1,33
 396 -6 396 -6 369 -6 c 1,34,-1
 238 0 l 1,35,-1
 107 -6 l 1,36,37
 80 -6 80 -6 63.5 6.5 c 128,-1,38
 47 19 47 19 47 40.5 c 128,-1,39
 47 62 47 62 63.5 74.5 c 128,-1,40
 80 87 80 87 107 87 c 1,41,-1
 188 82 l 1,42,43
 193 204 193 204 193 386 c 128,-1,44
 193 568 193 568 189 665 c 1,45,-1
 107 661 l 1,46,47
 80 661 80 661 63.5 674 c 128,-1,48
 47 687 47 687 47 709 c 128,-1,49
 47 731 47 731 63.5 743.5 c 128,-1,50
 80 756 80 756 107 756 c 1,51,-1
 238 750 l 1,52,-1
 369 756 l 1,53,54
 396 756 396 756 412.5 743.5 c 128,-1,55
 429 731 429 731 429 709 c 128,-1,56
 429 687 429 687 412.5 674 c 128,-1,57
 396 661 396 661 369 661 c 1,24,-1
EndSplineSet
EndChar

StartChar: eth
Encoding: 240 240 178
Width: 611
Flags: W
LayerCount: 2
Fore
SplineSet
396 120 m 128,-1,1
 437 168 437 168 437 235.5 c 128,-1,2
 437 303 437 303 396 352.5 c 128,-1,3
 355 402 355 402 291.5 402 c 128,-1,4
 228 402 228 402 191 357.5 c 128,-1,5
 154 313 154 313 154 241.5 c 128,-1,6
 154 170 154 170 194 121 c 128,-1,7
 234 72 234 72 294.5 72 c 128,-1,0
 355 72 355 72 396 120 c 128,-1,1
539 300 m 0,8,9
 539 159 539 159 477.5 72 c 128,-1,10
 416 -15 416 -15 293 -15 c 0,11,12
 188 -15 188 -15 123 62.5 c 128,-1,13
 58 140 58 140 58 240.5 c 128,-1,14
 58 341 58 341 117 415 c 128,-1,15
 176 489 176 489 272 489 c 128,-1,16
 368 489 368 489 435 432 c 1,17,18
 405 533 405 533 333 595 c 1,19,20
 331 593 331 593 311 569.5 c 128,-1,21
 291 546 291 546 276 536 c 128,-1,22
 261 526 261 526 244 526 c 128,-1,23
 227 526 227 526 215.5 536.5 c 128,-1,24
 204 547 204 547 204 559.5 c 128,-1,25
 204 572 204 572 212.5 583.5 c 128,-1,26
 221 595 221 595 229.5 602.5 c 128,-1,27
 238 610 238 610 254.5 622 c 128,-1,28
 271 634 271 634 274 637 c 1,29,30
 251 650 251 650 214 654.5 c 128,-1,31
 177 659 177 659 163 664 c 1,32,33
 133 672 133 672 133 701 c 0,34,35
 133 717 133 717 147.5 729 c 128,-1,36
 162 741 162 741 189 741 c 0,37,38
 262 741 262 741 336 696 c 1,39,40
 379 739 379 739 393.5 749.5 c 128,-1,41
 408 760 408 760 424.5 760 c 128,-1,42
 441 760 441 760 452.5 750 c 128,-1,43
 464 740 464 740 464 725.5 c 128,-1,44
 464 711 464 711 456 699 c 128,-1,45
 448 687 448 687 441 680.5 c 128,-1,46
 434 674 434 674 417.5 662.5 c 128,-1,47
 401 651 401 651 398 648 c 1,48,49
 467 587 467 587 503 494 c 128,-1,50
 539 401 539 401 539 300 c 0,8,9
EndSplineSet
EndChar

StartChar: ntilde
Encoding: 241 241 179
Width: 795
Flags: W
LayerCount: 2
Fore
SplineSet
591 927 m 0,0,1
 591 891 591 891 560 864 c 128,-1,2
 529 837 529 837 490 837 c 128,-1,3
 451 837 451 837 397 868 c 1,4,5
 353 890 353 890 331 890 c 128,-1,6
 309 890 309 890 284.5 860.5 c 128,-1,7
 260 831 260 831 239.5 831 c 128,-1,8
 219 831 219 831 206.5 843.5 c 128,-1,9
 194 856 194 856 194 874 c 0,10,11
 194 910 194 910 231 938.5 c 128,-1,12
 268 967 268 967 317 967 c 128,-1,13
 366 967 366 967 419 939.5 c 128,-1,14
 472 912 472 912 489.5 912 c 128,-1,15
 507 912 507 912 527.5 937 c 128,-1,16
 548 962 548 962 561.5 962 c 128,-1,17
 575 962 575 962 583 951.5 c 128,-1,18
 591 941 591 941 591 927 c 0,0,1
665 497 m 1,19,-1
 658 215 l 2,20,21
 658 177 658 177 659 158 c 128,-1,22
 660 139 660 139 667 118 c 128,-1,23
 674 97 674 97 688 91 c 0,24,25
 696 87 696 87 707 85.5 c 128,-1,26
 718 84 718 84 723 81 c 128,-1,27
 728 78 728 78 728 70 c 0,28,29
 728 35 728 35 706 11.5 c 128,-1,30
 684 -12 684 -12 654 -12 c 0,31,32
 602 -12 602 -12 582.5 28 c 128,-1,33
 563 68 563 68 563 147 c 1,34,-1
 569 431 l 1,35,36
 569 539 569 539 529 605 c 128,-1,37
 489 671 489 671 417 671 c 128,-1,38
 345 671 345 671 278.5 583.5 c 128,-1,39
 212 496 212 496 186 385 c 1,40,-1
 190 57 l 2,41,42
 190 -12 190 -12 139 -12 c 0,43,44
 77 -12 77 -12 77 92.5 c 128,-1,45
 77 197 77 197 104 385 c 1,46,47
 104 450 104 450 92.5 561.5 c 128,-1,48
 81 673 81 673 81 698 c 128,-1,49
 81 723 81 723 95 741.5 c 128,-1,50
 109 760 109 760 133.5 760 c 128,-1,51
 158 760 158 760 172 741.5 c 128,-1,52
 186 723 186 723 186 700 c 128,-1,53
 186 677 186 677 185.5 644.5 c 128,-1,54
 185 612 185 612 185 589 c 1,55,56
 283 760 283 760 433 760 c 0,57,58
 544 760 544 760 604.5 683.5 c 128,-1,59
 665 607 665 607 665 497 c 1,19,-1
EndSplineSet
EndChar

StartChar: ograve
Encoding: 242 242 180
Width: 814
Flags: W
LayerCount: 2
Fore
SplineSet
297 946 m 0,0,1
 297 963 297 963 308.5 976.5 c 128,-1,2
 320 990 320 990 337.5 990 c 128,-1,3
 355 990 355 990 367.5 980.5 c 128,-1,4
 380 971 380 971 385.5 961.5 c 128,-1,5
 391 952 391 952 400 932 c 128,-1,6
 409 912 409 912 433 882.5 c 128,-1,7
 457 853 457 853 457 841 c 128,-1,8
 457 829 457 829 448.5 821 c 128,-1,9
 440 813 440 813 424 813 c 0,10,11
 392 813 392 813 344.5 857.5 c 128,-1,12
 297 902 297 902 297 946 c 0,0,1
747 376 m 128,-1,14
 747 213 747 213 649.5 99 c 128,-1,15
 552 -15 552 -15 406.5 -15 c 128,-1,16
 261 -15 261 -15 164 99 c 128,-1,17
 67 213 67 213 67 376 c 128,-1,18
 67 539 67 539 165 652 c 128,-1,19
 263 765 263 765 408.5 765 c 128,-1,20
 554 765 554 765 650.5 652 c 128,-1,13
 747 539 747 539 747 376 c 128,-1,14
581.5 164 m 128,-1,22
 651 256 651 256 651 377 c 128,-1,23
 651 498 651 498 582 588.5 c 128,-1,24
 513 679 513 679 407.5 679 c 128,-1,25
 302 679 302 679 232.5 588.5 c 128,-1,26
 163 498 163 498 163 377.5 c 128,-1,27
 163 257 163 257 233 164.5 c 128,-1,28
 303 72 303 72 407.5 72 c 128,-1,21
 512 72 512 72 581.5 164 c 128,-1,22
EndSplineSet
EndChar

StartChar: oacute
Encoding: 243 243 181
Width: 814
Flags: W
LayerCount: 2
Fore
SplineSet
517 946 m 0,0,1
 517 902 517 902 469.5 857.5 c 128,-1,2
 422 813 422 813 390 813 c 0,3,4
 374 813 374 813 365.5 821 c 128,-1,5
 357 829 357 829 357 841 c 128,-1,6
 357 853 357 853 381 882.5 c 128,-1,7
 405 912 405 912 414 932 c 128,-1,8
 423 952 423 952 428.5 961.5 c 128,-1,9
 434 971 434 971 446.5 980.5 c 128,-1,10
 459 990 459 990 476.5 990 c 128,-1,11
 494 990 494 990 505.5 976.5 c 128,-1,12
 517 963 517 963 517 946 c 0,0,1
747 376 m 128,-1,14
 747 213 747 213 649.5 99 c 128,-1,15
 552 -15 552 -15 406.5 -15 c 128,-1,16
 261 -15 261 -15 164 99 c 128,-1,17
 67 213 67 213 67 376 c 128,-1,18
 67 539 67 539 165 652 c 128,-1,19
 263 765 263 765 408.5 765 c 128,-1,20
 554 765 554 765 650.5 652 c 128,-1,13
 747 539 747 539 747 376 c 128,-1,14
581.5 164 m 128,-1,22
 651 256 651 256 651 377 c 128,-1,23
 651 498 651 498 582 588.5 c 128,-1,24
 513 679 513 679 407.5 679 c 128,-1,25
 302 679 302 679 232.5 588.5 c 128,-1,26
 163 498 163 498 163 377.5 c 128,-1,27
 163 257 163 257 233 164.5 c 128,-1,28
 303 72 303 72 407.5 72 c 128,-1,21
 512 72 512 72 581.5 164 c 128,-1,22
EndSplineSet
EndChar

StartChar: ocircumflex
Encoding: 244 244 182
Width: 814
Flags: W
LayerCount: 2
Fore
SplineSet
493 842 m 0,0,1
 424 923 424 923 410 923 c 0,2,3
 394 923 394 923 330 846 c 0,4,5
 325 840 325 840 322 838 c 2,6,-1
 315 830 l 1,7,8
 302 817 302 817 284.5 817 c 128,-1,9
 267 817 267 817 256 827.5 c 128,-1,10
 245 838 245 838 245 856.5 c 128,-1,11
 245 875 245 875 271 896.5 c 128,-1,12
 297 918 297 918 323.5 948 c 128,-1,13
 350 978 350 978 369 994 c 128,-1,14
 388 1010 388 1010 409.5 1010 c 128,-1,15
 431 1010 431 1010 450.5 994 c 128,-1,16
 470 978 470 978 496 948 c 128,-1,17
 522 918 522 918 548.5 896 c 128,-1,18
 575 874 575 874 575 856 c 128,-1,19
 575 838 575 838 564 827.5 c 128,-1,20
 553 817 553 817 540 817 c 128,-1,21
 527 817 527 817 518 822 c 0,22,23
 505 829 505 829 493 842 c 0,0,1
747 376 m 128,-1,25
 747 213 747 213 649.5 99 c 128,-1,26
 552 -15 552 -15 406.5 -15 c 128,-1,27
 261 -15 261 -15 164 99 c 128,-1,28
 67 213 67 213 67 376 c 128,-1,29
 67 539 67 539 165 652 c 128,-1,30
 263 765 263 765 408.5 765 c 128,-1,31
 554 765 554 765 650.5 652 c 128,-1,24
 747 539 747 539 747 376 c 128,-1,25
581.5 164 m 128,-1,33
 651 256 651 256 651 377 c 128,-1,34
 651 498 651 498 582 588.5 c 128,-1,35
 513 679 513 679 407.5 679 c 128,-1,36
 302 679 302 679 232.5 588.5 c 128,-1,37
 163 498 163 498 163 377.5 c 128,-1,38
 163 257 163 257 233 164.5 c 128,-1,39
 303 72 303 72 407.5 72 c 128,-1,32
 512 72 512 72 581.5 164 c 128,-1,33
EndSplineSet
EndChar

StartChar: odieresis
Encoding: 246 246 184
Width: 814
Flags: W
LayerCount: 2
Fore
SplineSet
351.5 950 m 128,-1,1
 365 933 365 933 365 907 c 128,-1,2
 365 881 365 881 348 859.5 c 128,-1,3
 331 838 331 838 306.5 838 c 128,-1,4
 282 838 282 838 268 856 c 128,-1,5
 254 874 254 874 254 900 c 128,-1,6
 254 926 254 926 270.5 946.5 c 128,-1,7
 287 967 287 967 312.5 967 c 128,-1,0
 338 967 338 967 351.5 950 c 128,-1,1
546.5 950 m 128,-1,9
 560 933 560 933 560 907 c 128,-1,10
 560 881 560 881 543 859.5 c 128,-1,11
 526 838 526 838 501.5 838 c 128,-1,12
 477 838 477 838 463 856 c 128,-1,13
 449 874 449 874 449 900 c 128,-1,14
 449 926 449 926 465.5 946.5 c 128,-1,15
 482 967 482 967 507.5 967 c 128,-1,8
 533 967 533 967 546.5 950 c 128,-1,9
747 376 m 128,-1,17
 747 213 747 213 649.5 99 c 128,-1,18
 552 -15 552 -15 406.5 -15 c 128,-1,19
 261 -15 261 -15 164 99 c 128,-1,20
 67 213 67 213 67 376 c 128,-1,21
 67 539 67 539 165 652 c 128,-1,22
 263 765 263 765 408.5 765 c 128,-1,23
 554 765 554 765 650.5 652 c 128,-1,16
 747 539 747 539 747 376 c 128,-1,17
581.5 164 m 128,-1,25
 651 256 651 256 651 377 c 128,-1,26
 651 498 651 498 582 588.5 c 128,-1,27
 513 679 513 679 407.5 679 c 128,-1,28
 302 679 302 679 232.5 588.5 c 128,-1,29
 163 498 163 498 163 377.5 c 128,-1,30
 163 257 163 257 233 164.5 c 128,-1,31
 303 72 303 72 407.5 72 c 128,-1,24
 512 72 512 72 581.5 164 c 128,-1,25
EndSplineSet
EndChar

StartChar: divide
Encoding: 247 247 185
Width: 618
Flags: W
LayerCount: 2
Fore
SplineSet
352.5 245 m 128,-1,1
 366 228 366 228 366 202 c 128,-1,2
 366 176 366 176 349 154.5 c 128,-1,3
 332 133 332 133 307.5 133 c 128,-1,4
 283 133 283 133 269 151 c 128,-1,5
 255 169 255 169 255 195 c 128,-1,6
 255 221 255 221 271.5 241.5 c 128,-1,7
 288 262 288 262 313.5 262 c 128,-1,0
 339 262 339 262 352.5 245 c 128,-1,1
350.5 598 m 128,-1,9
 364 581 364 581 364 554.5 c 128,-1,10
 364 528 364 528 347 507 c 128,-1,11
 330 486 330 486 305.5 486 c 128,-1,12
 281 486 281 486 267 504 c 128,-1,13
 253 522 253 522 253 548 c 128,-1,14
 253 574 253 574 269.5 594.5 c 128,-1,15
 286 615 286 615 311.5 615 c 128,-1,8
 337 615 337 615 350.5 598 c 128,-1,9
309 406 m 1,16,-1
 506 409 l 2,17,18
 524 409 524 409 535.5 399 c 128,-1,19
 547 389 547 389 547 374 c 128,-1,20
 547 359 547 359 535.5 349 c 128,-1,21
 524 339 524 339 506 339 c 2,22,-1
 309 342 l 1,23,-1
 112 339 l 2,24,25
 94 339 94 339 82.5 349 c 128,-1,26
 71 359 71 359 71 374 c 128,-1,27
 71 389 71 389 82.5 399 c 128,-1,28
 94 409 94 409 112 409 c 2,29,-1
 309 406 l 1,16,-1
EndSplineSet
EndChar

StartChar: oslash
Encoding: 248 248 186
Width: 814
Flags: W
LayerCount: 2
Fore
SplineSet
747 376 m 0,0,1
 747 213 747 213 649.5 99 c 128,-1,2
 552 -15 552 -15 406 -15 c 0,3,4
 388 -15 388 -15 352 -11 c 1,5,6
 334 -84 334 -84 293 -84 c 0,7,8
 274 -84 274 -84 262.5 -70 c 128,-1,9
 251 -56 251 -56 251 -33.5 c 128,-1,10
 251 -11 251 -11 262 20 c 1,11,12
 173 66 173 66 120 162 c 128,-1,13
 67 258 67 258 67 376 c 0,14,15
 67 539 67 539 165 652 c 128,-1,16
 263 765 263 765 408 765 c 0,17,18
 420 765 420 765 442 763 c 1,19,20
 452 803 452 803 465 819 c 128,-1,21
 478 835 478 835 499 835 c 128,-1,22
 520 835 520 835 531.5 821 c 128,-1,23
 543 807 543 807 543 787 c 128,-1,24
 543 767 543 767 533 739 c 1,25,26
 630 697 630 697 688.5 598 c 128,-1,27
 747 499 747 499 747 376 c 0,0,1
424 678 m 1,28,-1
 407 679 l 1,29,30
 302 679 302 679 232.5 588.5 c 128,-1,31
 163 498 163 498 163 376 c 0,32,33
 163 297 163 297 196 225 c 128,-1,34
 229 153 229 153 286 112 c 1,35,36
 322 224 322 224 424 678 c 1,28,-1
651 376 m 0,37,38
 651 464 651 464 613 539 c 128,-1,39
 575 614 575 614 511 651 c 1,40,41
 426 329 426 329 371 75 c 1,42,43
 388 72 388 72 407 72 c 0,44,45
 512 72 512 72 581.5 164 c 128,-1,46
 651 256 651 256 651 376 c 0,37,38
EndSplineSet
EndChar

StartChar: uacute
Encoding: 250 250 188
Width: 809
Flags: W
LayerCount: 2
Fore
SplineSet
489 946 m 0,0,1
 489 902 489 902 441.5 857.5 c 128,-1,2
 394 813 394 813 362 813 c 0,3,4
 346 813 346 813 337.5 821 c 128,-1,5
 329 829 329 829 329 841 c 128,-1,6
 329 853 329 853 353 882.5 c 128,-1,7
 377 912 377 912 386 932 c 128,-1,8
 395 952 395 952 400.5 961.5 c 128,-1,9
 406 971 406 971 418.5 980.5 c 128,-1,10
 431 990 431 990 448.5 990 c 128,-1,11
 466 990 466 990 477.5 976.5 c 128,-1,12
 489 963 489 963 489 946 c 0,0,1
197 646 m 1,13,-1
 186 314 l 1,14,15
 186 207 186 207 228 139.5 c 128,-1,16
 270 72 270 72 341.5 72 c 128,-1,17
 413 72 413 72 478.5 161 c 128,-1,18
 544 250 544 250 569 360 c 1,19,-1
 565 688 l 2,20,21
 565 757 565 757 616 757 c 0,22,23
 678 757 678 757 678 655 c 128,-1,24
 678 553 678 553 651 360 c 1,25,26
 651 250 651 250 665.5 173.5 c 128,-1,27
 680 97 680 97 701 88 c 0,28,29
 709 84 709 84 720.5 82.5 c 128,-1,30
 732 81 732 81 737 78 c 128,-1,31
 742 75 742 75 742 67 c 0,32,33
 742 30 742 30 720 7.5 c 128,-1,34
 698 -15 698 -15 664 -15 c 0,35,36
 579 -15 579 -15 579 158 c 1,37,38
 479 -15 479 -15 327 -15 c 0,39,40
 214 -15 214 -15 152.5 76 c 128,-1,41
 91 167 91 167 91 297 c 1,42,-1
 99 536 l 1,43,44
 99 590 99 590 88 636 c 128,-1,45
 77 682 77 682 77 702.5 c 128,-1,46
 77 723 77 723 93 740 c 128,-1,47
 109 757 109 757 135 757 c 0,48,49
 197 757 197 757 197 646 c 1,13,-1
EndSplineSet
EndChar

StartChar: udieresis
Encoding: 252 252 190
Width: 809
Flags: W
LayerCount: 2
Fore
SplineSet
323.5 950 m 128,-1,1
 337 933 337 933 337 907 c 128,-1,2
 337 881 337 881 320 859.5 c 128,-1,3
 303 838 303 838 278.5 838 c 128,-1,4
 254 838 254 838 240 856 c 128,-1,5
 226 874 226 874 226 900 c 128,-1,6
 226 926 226 926 242.5 946.5 c 128,-1,7
 259 967 259 967 284.5 967 c 128,-1,0
 310 967 310 967 323.5 950 c 128,-1,1
518.5 950 m 128,-1,9
 532 933 532 933 532 907 c 128,-1,10
 532 881 532 881 515 859.5 c 128,-1,11
 498 838 498 838 473.5 838 c 128,-1,12
 449 838 449 838 435 856 c 128,-1,13
 421 874 421 874 421 900 c 128,-1,14
 421 926 421 926 437.5 946.5 c 128,-1,15
 454 967 454 967 479.5 967 c 128,-1,8
 505 967 505 967 518.5 950 c 128,-1,9
197 646 m 1,16,-1
 186 314 l 1,17,18
 186 207 186 207 228 139.5 c 128,-1,19
 270 72 270 72 341.5 72 c 128,-1,20
 413 72 413 72 478.5 161 c 128,-1,21
 544 250 544 250 569 360 c 1,22,-1
 565 688 l 2,23,24
 565 757 565 757 616 757 c 0,25,26
 678 757 678 757 678 655 c 128,-1,27
 678 553 678 553 651 360 c 1,28,29
 651 250 651 250 665.5 173.5 c 128,-1,30
 680 97 680 97 701 88 c 0,31,32
 709 84 709 84 720.5 82.5 c 128,-1,33
 732 81 732 81 737 78 c 128,-1,34
 742 75 742 75 742 67 c 0,35,36
 742 30 742 30 720 7.5 c 128,-1,37
 698 -15 698 -15 664 -15 c 0,38,39
 579 -15 579 -15 579 158 c 1,40,41
 479 -15 479 -15 327 -15 c 0,42,43
 214 -15 214 -15 152.5 76 c 128,-1,44
 91 167 91 167 91 297 c 1,45,-1
 99 536 l 1,46,47
 99 590 99 590 88 636 c 128,-1,48
 77 682 77 682 77 702.5 c 128,-1,49
 77 723 77 723 93 740 c 128,-1,50
 109 757 109 757 135 757 c 0,51,52
 197 757 197 757 197 646 c 1,16,-1
EndSplineSet
EndChar

